{
.appVersion = "3436";
.formatVersion = 3;
DisplayStrings = (
"",
HOME,
PRS,
"UPPERCASE, lowercase & numb3rs:

ABCDEFGHIJKLMNOPQRSTUVWXYZ
abcdefghijklmnopqrstuvwxyz
0123456789

",
"pqs db ",
"ladle ",
s,
"Alphabet and Numbers with spacing characters:
HHOHHOOHOO

HHAHHOOAOO
HHBHHOOBOO
HHCHHOOCOO
HHDHHOODOO
HHEHHOOEOO
HHFHHOOFOO
HHGHHOOGOO
HHHHHOOHOO
HHIHHOOIOO
HHJHHOOJOO
HHKHHOOKOO
HHLHHOOLOO
HHMHHOOMOO
HHNHHOONOO
HHOHHOOOOO
HHPHHOOPOO
HHQHHOOQOO
HHRHHOOROO
HHSHHOOSOO
HHTHHOOTOO
HHUHHOOUOO
HHVHHOOVOO
HHWHHOOWOO
HHXHHOOXOO
HHYHHOOYOO
HHZHHOOZOO

nnannooaoo
nnbnnooboo
nncnnoocoo
nndnnoodoo
nnennooeoo
nnfnnoofoo
nngnnoogoo
nnnnhoohoo
nninnooioo
nnjnnoojoo
nnknnookoo
nnlnnooloo
nnmnnoomoo
nnnnnoonoo
nnonnooooo
nnpnnoopoo
nnqnnooqoo
nnrnnooroo
nnsnnoosoo
nntnnootoo
nnunnoouoo
nnvnnoovoo
nnwnnoowoo
nnxnnooxoo
nnynnooyoo
nnznnoozoo


0000010010111
0001010111111
0002010212111
0003010313111
0004010414111
0005010515111
0006010616111
0007010717111
0008010818111
0009010919111


",
"̀̋ÂČÊĚÔŘŠŤÛŽâčêěîňôřšûž̌"
);
axes = (
{
name = Weight;
tag = wght;
}
);
date = "2025-10-19 19:33:20 +0000";
familyName = Juncture;
fontMaster = (
{
axesValues = (
400
);
id = "1B8EDE0E-D46F-48F9-B9C6-2CD34FEA95FD";
metricValues = (
{
pos = 680;
},
{
over = 12;
pos = 650;
},
{
over = 12;
pos = 450;
},
{
over = -12;
},
{
over = -12;
pos = -200;
},
{
pos = 11;
}
);
name = "Regular Italic";
stemValues = (
88,
76
);
userData = {
"Letterink-NibData" = {
AngleInDegrees = 45;
MainAxisWidth = 30;
MinorAxisWidth = 15;
};
};
},
{
axesValues = (
400
);
id = "37597A9B-137B-4040-B731-85284A6575D5";
metricValues = (
{
pos = 680;
},
{
over = 12;
pos = 650;
},
{
over = 12;
pos = 450;
},
{
over = -12;
},
{
over = -12;
pos = -200;
},
{
pos = 20;
}
);
name = "Regular Superslant";
stemValues = (
89,
76
);
userData = {
"Letterink-NibData" = {
AngleInDegrees = 45;
MainAxisWidth = 30;
MinorAxisWidth = 15;
};
};
},
{
axesValues = (
400
);
id = "4D009BB9-CCD0-4844-B12B-B6DC88771387";
metricValues = (
{
pos = 680;
},
{

glyphs = (
{
glyphname = A;
lastChange = "2025-11-15 17:09:45 +0000";
layers = (
{
anchors = (
{
name = bottom;
pos = (287,0);
},
{
name = ogonek;
pos = (516,10);
},
{
name = top;
pos = (287,650);
}
);
layerId = "1B8EDE0E-D46F-48F9-B9C6-2CD34FEA95FD";
shapes = (
{
closed = 1;
nodes = (
(408,222,l),
(123,222,l),
(110,148,l),
(395,148,l)
);
},
{
closed = 1;
nodes = (
(44,0,l),
(346,570,l),
(318,570,l),
(399,0,l),
(479,0,l),
(383,650,l),
(306,650,l),
(-42,0,l)
);
}
);
width = 532;
},
{
anchors = (
{
name = bottom;
pos = (287,0);
},
{
name = ogonek;
pos = (516,10);
},
{
name = top;
pos = (287,650);
}
);
layerId = "37597A9B-137B-4040-B731-85284A6575D5";
shapes = (
{
closed = 1;
nodes = (
(428,222,l),
(143,222,l),
(144,148,l),
(429,148,l)
);
},
{
closed = 1;
nodes = (
(107,0,l),
(299,570,l),
(271,570,l),
(462,0,l),
(552,0,l),
(330,650,l),
(243,650,l),
(21,0,l)
);
}
);
width = 573;
},
{
anchors = (
{
name = bottom;
pos = (287,0);
},
{
name = ogonek;
pos = (516,10);
},
{
name = top;
pos = (287,650);
}
);
layerId = "4D009BB9-CCD0-4844-B12B-B6DC88771387";
shapes = (
{
closed = 1;
nodes = (
(428,222,l),
(143,222,l),
(144,148,l),
(429,148,l)
);
},
{
closed = 1;
nodes = (
(107,0,l),
(299,570,l),
(271,570,l),
(462,0,l),
(552,0,l),
(330,650,l),
(243,650,l),
(21,0,l)
);
}
);
width = 573;
}
);
metricRight = "=|";
unicode = 65;
},
{
glyphname = B;
lastChange = "2025-11-15 17:09:45 +0000";
layers = (
{
layerId = "1B8EDE0E-D46F-48F9-B9C6-2CD34FEA95FD";
shapes = (
{
closed = 1;
nodes = (
(232,0,l),
(246,70,l),
(106,70,l),
(149,294,l),
(300,294,l),
(314,364,l),
(163,364,l),
(204,578,l),
(336,578,l),
(350,650,l),
(129,650,l),
(3,0,l)
);
},
{
closed = 1;
nodes = (
(421,309,o),
(488,370,o),
(507,471,cs),
(527,578,o),
(454,650,o),
(350,650,c),
(336,578,l),
(419,578,o),
(428,517,o),
(420,473,cs),
(409,410,o),
(371,364,o),
(295,364,c),
(284,309,l)
);
},
{
closed = 1;
nodes = (
(402,0,o),
(458,48,o),
(481,165,cs),
(508,306,o),
(406,361,o),
(302,361,c),
(289,294,l),
(390,294,o),
(413,241,o),
(398,165,cs),
(386,104,o),
(347,70,o),
(246,70,c),
(232,0,l)
);
}
);
width = 515;
},
{
layerId = "37597A9B-137B-4040-B731-85284A6575D5";
metricRight = "=+28";
shapes = (
{
closed = 1;
nodes = (
(296,0,l),
(296,70,l),
(156,70,l),
(156,294,l),
(307,294,l),
(307,364,l),
(156,364,l),
(156,578,l),
(288,578,l),
(288,650,l),
(67,650,l),
(67,0,l)
);
},
{
closed = 1;
nodes = (
(425,309,o),
(480,370,o),
(480,471,cs),
(480,571,o),
(418,650,o),
(288,650,c),
(288,578,l),
(371,578,o),
(392,517,o),
(392,473,cs),
(392,428,o),
(364,364,o),
(288,364,c),
(288,309,l)
);
},
{
closed = 1;
nodes = (
(444,0,o),
(511,57,o),
(511,180,cs),
(511,306,o),
(400,361,o),
(296,361,c),
(296,294,l),
(407,294,o),
(429,241,o),
(429,181,cs),
(429,121,o),
(407,70,o),
(296,70,c),
(296,0,l)
);
}
);
width = 539;
},
{
layerId = "4D009BB9-CCD0-4844-B12B-B6DC88771387";
metricRight = "=+28";
shapes = (
{
closed = 1;
nodes = (
(296,0,l),
(296,70,l),
(156,70,l),
(156,294,l),
(307,294,l),
(307,364,l),
(156,364,l),
(156,578,l),
(288,578,l),
(288,650,l),
(67,650,l),
(67,0,l)
);
},
{
closed = 1;
nodes = (
(425,309,o),
(480,370,o),
(480,471,cs),
(480,571,o),
(418,650,o),
(288,650,c),
(288,578,l),
(371,578,o),
(392,517,o),
(392,473,cs),
(392,428,o),
(364,364,o),
(288,364,c),
(288,309,l)
);
},
{
closed = 1;
nodes = (
(444,0,o),
(511,57,o),
(511,180,cs),
(511,306,o),
(400,361,o),
(296,361,c),
(296,294,l),
(407,294,o),
(429,241,o),
(429,181,cs),
(429,121,o),
(407,70,o),
(296,70,c),
(296,0,l)
);
}
);
width = 539;
}
);
metricLeft = "=H";
unicode = 66;
},
{
glyphname = C;
lastChange = "2025-11-15 17:09:45 +0000";
layers = (
{
anchors = (
{
name = bottom;
pos = (304,0);
},
{
name = top;
pos = (304,650);
}
);
background = {
shapes = (
{
closed = 1;
nodes = (
(351,-12,o),
(486,48,o),
(527,198,c),
(439,198,l),
(408,99,o),
(332,64,o),
(256,65,cs),
(179,66,o),
(100,99,o),
(130,253,c),
(157,395,l),
(187,550,o),
(279,583,o),
(356,584,cs),
(433,585,o),
(491,548,o),
(488,449,c),
(576,449,l),
(590,604,o),
(477,662,o),
(371,662,cs),
(265,662,o),
(109,607,o),
(68,395,c),
(41,253,l),
(1,43,o),
(135,-12,o),
(241,-12,cs)
);
}
);
};
layerId = "1B8EDE0E-D46F-48F9-B9C6-2CD34FEA95FD";
shapes = (
{
closed = 1;
nodes = (
(359,-12,o),
(485,42,o),
(517,198,c),
(429,198,l),
(408,98,o),
(332,65,o),
(256,65,cs),
(159,65,o),
(105,119,o),
(130,253,cs),
(157,395,ls),
(184,538,o),
(268,583,o),
(357,584,cs),
(430,585,o),
(487,548,o),
(478,449,c),
(566,449,l),
(584,597,o),
(473,662,o),
(371,662,cs),
(270,662,o),
(110,615,o),
(68,395,cs),
(41,253,l),
(1,46,o),
(135,-12,o),
(241,-12,cs)
);
}
);
width = 561;
},
{
anchors = (
{
name = bottom;
pos = (296,0);
},
{
name = top;
pos = (296,650);
}
);
layerId = "37597A9B-137B-4040-B731-85284A6575D5";
shapes = (
{
closed = 1;
nodes = (
(408,-12,o),
(531,48,o),
(543,198,c),
(455,198,l),
(444,99,o),
(374,64,o),
(298,65,cs),
(221,66,o),
(136,99,o),
(136,253,c),
(136,395,l),
(136,550,o),
(221,583,o),
(298,584,cs),
(375,585,o),
(440,548,o),
(456,449,c),
(544,449,l),
(528,604,o),
(404,662,o),
(298,662,cs),
(192,662,o),
(47,607,o),
(47,395,c),
(47,253,l),
(47,43,o),
(192,-12,o),
(298,-12,cs)
);
}
);
width = 591;
},
{
anchors = (
{
name = bottom;
pos = (296,0);
},
{
name = top;
pos = (296,650);
}
);
layerId = "4D009BB9-CCD0-4844-B12B-B6DC88771387";
shapes = (
{
closed = 1;
nodes = (
(408,-12,o),
(531,48,o),
(543,198,c),
(455,198,l),
(444,99,o),
(374,64,o),
(298,65,cs),
(221,66,o),
(136,99,o),
(136,253,c),
(136,395,l),
(136,550,o),
(221,583,o),
(298,584,cs),
(375,585,o),
(440,548,o),
(456,449,c),
(544,449,l),
(528,604,o),
(404,662,o),
(298,662,cs),
(192,662,o),
(47,607,o),
(47,395,c),
(47,253,l),
(47,43,o),
(192,-12,o),
(298,-12,cs)
);
}
);
width = 591;
}
);
metricLeft = O;
unicode = 67;
},
{
glyphname = D;
lastChange = "2025-11-15 17:09:45 +0000";
layers = (
{
background = {
shapes = (
{
closed = 1;
nodes = (
(203,573,l),
(316,573,ls),
(401,572,o),
(479,538,o),
(449,383,cs),
(426,265,ls),
(397,111,o),
(303,77,o),
(220,77,cs),
(107,76,l)
);
},
{
closed = 1;
nodes = (
(212,0,ls),
(318,0,o),
(474,48,o),
(515,265,cs),
(538,383,ls),
(580,602,o),
(444,649,o),
(338,650,cs),
(129,650,l),
(3,0,l)
);
}
);
};
layerId = "1B8EDE0E-D46F-48F9-B9C6-2CD34FEA95FD";
shapes = (
{
closed = 1;
nodes = (
(203,573,l),
(316,572,ls),
(400,571,o),
(478,537,o),
(449,383,cs),
(417,215,ls),
(392,81,o),
(306,78,o),
(220,77,cs),
(107,76,l)
);
},
{
closed = 1;
nodes = (
(212,0,ls),
(352,0,o),
(468,16,o),
(506,215,cs),
(538,383,ls),
(579,600,o),
(421,650,o),
(338,650,cs),
(129,650,l),
(3,0,l)
);
}
);
width = 543;
},
{
layerId = "37597A9B-137B-4040-B731-85284A6575D5";
shapes = (
{
closed = 1;
nodes = (
(156,573,l),
(269,573,ls),
(354,572,o),
(439,538,o),
(439,383,cs),
(439,265,ls),
(439,111,o),
(352,77,o),
(269,77,cs),
(156,76,l)
);
},
{
closed = 1;
nodes = (
(276,0,ls),
(382,0,o),
(528,48,o),
(528,265,cs),
(528,383,ls),
(528,602,o),
(383,649,o),
(276,650,cs),
(67,650,l),
(67,0,l)
);
}
);
width = 575;
},
{
layerId = "4D009BB9-CCD0-4844-B12B-B6DC88771387";
shapes = (
{
closed = 1;
nodes = (
(156,573,l),
(269,573,ls),
(354,572,o),
(439,538,o),
(439,383,cs),
(439,265,ls),
(439,111,o),
(352,77,o),
(269,77,cs),
(156,76,l)
);
},
{
closed = 1;
nodes = (
(276,0,ls),
(382,0,o),
(528,48,o),
(528,265,cs),
(528,383,ls),
(528,602,o),
(383,649,o),
(276,650,cs),
(67,650,l),
(67,0,l)
);
}
);
width = 575;
}
);
metricLeft = "=H";
metricRight = "=O";
unicode = 68;
},
{
glyphname = E;
lastChange = "2025-11-15 17:09:45 +0000";
layers = (
{
anchors = (
{
name = bottom;
pos = (239,0);
},
{
name = ogonek;
pos = (431,10);
},
{
name = top;
pos = (239,650);
},
{
name = topleft;
pos = (19,650);
}
);
layerId = "1B8EDE0E-D46F-48F9-B9C6-2CD34FEA95FD";
shapes = (
{
closed = 1;
nodes = (
(376,0,l),
(391,74,l),
(107,74,l),
(150,300,l),
(359,300,l),
(374,376,l),
(165,376,l),
(203,576,l),
(487,576,l),
(502,650,l),
(129,650,l),
(3,0,l)
);
}
);
width = 460;
},
{
anchors = (
{
name = bottom;
pos = (239,0);
},
{
name = ogonek;
pos = (431,10);
},
{
name = top;
pos = (239,650);
},
{
name = topleft;
pos = (19,650);
}
);
layerId = "37597A9B-137B-4040-B731-85284A6575D5";
shapes = (
{
closed = 1;
nodes = (
(324,0,l),
(350,74,l),
(66,74,l),
(146,300,l),
(355,300,l),
(382,376,l),
(173,376,l),
(244,576,l),
(528,576,l),
(554,650,l),
(181,650,l),
(-49,0,l)
);
}
);
width = 446;
},
{
anchors = (
{
name = bottom;
pos = (240,0);
},
{
name = ogonek;
pos = (432,10);
},
{
name = top;
pos = (240,650);
},
{
name = topleft;
pos = (20,650);
}
);
layerId = "4D009BB9-CCD0-4844-B12B-B6DC88771387";
shapes = (
{
closed = 1;
nodes = (
(440,0,l),
(440,74,l),
(156,74,l),
(156,300,l),
(365,300,l),
(365,376,l),
(156,376,l),
(156,576,l),
(440,576,l),
(440,650,l),
(67,650,l),
(67,0,l)
);
}
);
width = 480;
}
);
metricLeft = "=H";
metricRight = "=40";
unicode = 69;
},
{
glyphname = F;
lastChange = "2025-11-15 17:09:45 +0000";
layers = (
{
layerId = "1B8EDE0E-D46F-48F9-B9C6-2CD34FEA95FD";
shapes = (
{
closed = 1;
nodes = (
(92,0,l),
(142,260,l),
(351,260,l),
(366,337,l),
(157,337,l),
(203,573,l),
(487,573,l),
(502,650,l),
(129,650,l),
(3,0,l)
);
}
);
width = 449;
},
{
layerId = "37597A9B-137B-4040-B731-85284A6575D5";
shapes = (
{
closed = 1;
nodes = (
(156,0,l),
(156,260,l),
(365,260,l),
(365,337,l),
(156,337,l),
(156,573,l),
(440,573,l),
(440,650,l),
(67,650,l),
(67,0,l)
);
}
);
width = 470;
},
{
layerId = "4D009BB9-CCD0-4844-B12B-B6DC88771387";
shapes = (
{
closed = 1;
nodes = (
(156,0,l),
(156,260,l),
(365,260,l),
(365,337,l),
(156,337,l),
(156,573,l),
(440,573,l),
(440,650,l),
(67,650,l),
(67,0,l)
);
}
);
width = 470;
}
);
metricLeft = "=H";
metricRight = "=E-10";
unicode = 70;
},
{
glyphname = G;
lastChange = "2025-11-15 17:09:45 +0000";
layers = (
{
background = {
shapes = (
{
closed = 1;
nodes = (
(452,231,l),
(426,100,o),
(353,66,o),
(266,66,cs),
(184,66,o),
(91,114,o),
(124,263,c),
(153,419,l),
(179,550,o),
(250,584,o),
(337,584,cs),
(419,584,o),
(512,536,o),
(479,387,c),
(474,358,l),
(563,358,l),
(567,381,l),
(615,591,o),
(444,662,o),
(337,662,cs),
(224,662,o),
(97,601,o),
(65,429,cs),
(36,269,ls),
(-7,58,o),
(159,-12,o),
(266,-12,cs),
(379,-12,o),
(464,49,o),
(496,221,c)
);
}
);
};
layerId = "1B8EDE0E-D46F-48F9-B9C6-2CD34FEA95FD";
shapes = (
{
closed = 1;
nodes = (
(496,-1,l),
(558,326,l),
(351,326,l),
(337,253,l),
(456,253,l),
(419,61,l),
(425,56,l),
(422,-1,l)
);
},
{
closed = 1;
nodes = (
(452,231,l),
(426,100,o),
(353,66,o),
(266,66,cs),
(184,66,o),
(91,114,o),
(124,263,c),
(153,419,l),
(179,550,o),
(250,584,o),
(344,584,cs),
(450,584,o),
(485,502,o),
(487,450,c),
(576,450,l),
(583,569,o),
(471,662,o),
(347,662,cs),
(224,662,o),
(97,601,o),
(65,429,cs),
(36,269,ls),
(-7,58,o),
(159,-12,o),
(266,-12,cs),
(379,-12,o),
(464,49,o),
(496,221,c)
);
}
);
width = 591;
},
{
layerId = "37597A9B-137B-4040-B731-85284A6575D5";
shapes = (
{
closed = 1;
nodes = (
(543,-1,l),
(543,326,l),
(336,326,l),
(336,253,l),
(455,253,l),
(455,61,l),
(462,56,l),
(469,-1,l)
);
},
{
closed = 1;
nodes = (
(408,-12,o),
(501,46,o),
(517,198,c),
(455,198,l),
(451,118,o),
(388,63,o),
(298,64,cs),
(210,66,o),
(136,117,o),
(136,253,c),
(136,395,l),
(136,550,o),
(221,583,o),
(298,584,cs),
(375,585,o),
(440,548,o),
(456,449,c),
(544,449,l),
(528,604,o),
(404,662,o),
(298,662,cs),
(192,662,o),
(47,607,o),
(47,395,c),
(47,253,l),
(47,66,o),
(171,-12,o),
(298,-12,cs)
);
}
);
width = 591;
},
{
layerId = "4D009BB9-CCD0-4844-B12B-B6DC88771387";
shapes = (
{
closed = 1;
nodes = (
(543,-1,l),
(543,326,l),
(336,326,l),
(336,253,l),
(455,253,l),
(455,61,l),
(462,56,l),
(469,-1,l)
);
},
{
closed = 1;
nodes = (
(408,-12,o),
(501,46,o),
(517,198,c),
(455,198,l),
(451,118,o),
(388,63,o),
(298,64,cs),
(210,66,o),
(136,117,o),
(136,253,c),
(136,395,l),
(136,550,o),
(221,583,o),
(298,584,cs),
(375,585,o),
(440,548,o),
(456,449,c),
(544,449,l),
(528,604,o),
(404,662,o),
(298,662,cs),
(192,662,o),
(47,607,o),
(47,395,c),
(47,253,l),
(47,66,o),
(171,-12,o),
(298,-12,cs)
);
}
);
width = 591;
}
);
metricLeft = "=O";
unicode = 71;
},
{
glyphname = H;
lastChange = "2025-11-15 17:09:45 +0000";
layers = (
{
anchors = (
{
name = bottom;
pos = (314,0);
},
{
name = center;
pos = (314,488);
},
{
name = top;
pos = (314,650);
},
{
name = topleft;
pos = (17,650);
}
);
layerId = "1B8EDE0E-D46F-48F9-B9C6-2CD34FEA95FD";
shapes = (
{
closed = 1;
nodes = (
(5,2,l),
(94,2,l),
(150,296,l),
(435,296,l),
(379,2,l),
(468,2,l),
(592,650,l),
(503,650,l),
(449,365,l),
(164,365,l),
(218,650,l),
(129,650,l)
);
}
);
width = 557;
},
{
anchors = (
{
name = bottom;
pos = (314,0);
},
{
name = center;
pos = (314,488);
},
{
name = top;
pos = (314,650);
},
{
name = topleft;
pos = (17,650);
}
);
layerId = "37597A9B-137B-4040-B731-85284A6575D5";
shapes = (
{
closed = 1;
nodes = (
(-47,2,l),
(42,2,l),
(145,296,l),
(430,296,l),
(327,2,l),
(416,2,l),
(644,650,l),
(555,650,l),
(457,372,l),
(172,372,l),
(270,650,l),
(181,650,l)
);
}
);
width = 597;
},
{
anchors = (
{
name = bottom;
pos = (314,0);
},
{
name = center;
pos = (314,488);
},
{
name = top;
pos = (314,650);
},
{
name = topleft;
pos = (17,650);
}
);
layerId = "4D009BB9-CCD0-4844-B12B-B6DC88771387";
shapes = (
{
closed = 1;
nodes = (
(67,2,l),
(156,2,l),
(156,296,l),
(441,296,l),
(441,2,l),
(530,2,l),
(530,650,l),
(441,650,l),
(441,372,l),
(156,372,l),
(156,650,l),
(67,650,l)
);
}
);
width = 597;
}
);
metricRight = "=|";
unicode = 72;
},
{
glyphname = I;
lastChange = "2025-11-15 17:09:45 +0000";
layers = (
{
anchors = (
{
name = bottom;
pos = (113,0);
},
{
name = ogonek;
pos = (209,10);
},
{
name = top;
pos = (113,650);
},
{
name = topleft;
pos = (13,650);
}
);
layerId = "1B8EDE0E-D46F-48F9-B9C6-2CD34FEA95FD";
shapes = (
{
closed = 1;
nodes = (
(129,650,l),
(3,0,l),
(92,0,l),
(218,650,l)
);
}
);
width = 182;
},
{
anchors = (
{
name = bottom;
pos = (114,0);
},
{
name = ogonek;
pos = (210,10);
},
{
name = top;
pos = (114,650);
},
{
name = topleft;
pos = (14,650);
}
);
layerId = "37597A9B-137B-4040-B731-85284A6575D5";
shapes = (
{
closed = 1;
nodes = (
(67,650,l),
(67,0,l),
(156,0,l),
(156,650,l)
);
}
);
width = 223;
},
{
anchors = (
{
name = bottom;
pos = (114,0);
},
{
name = ogonek;
pos = (210,10);
},
{
name = top;
pos = (114,650);
},
{
name = topleft;
pos = (14,650);
}
);
layerId = "4D009BB9-CCD0-4844-B12B-B6DC88771387";
shapes = (
{
closed = 1;
nodes = (
(67,650,l),
(67,0,l),
(156,0,l),
(156,650,l)
);
}
);
width = 223;
}
);
metricLeft = H;
metricRight = H;
unicode = 73;
},
{
glyphname = J;
lastChange = "2025-11-15 17:09:45 +0000";
layers = (
{
anchors = (
{
name = bottom;
pos = (241,0);
},
{
name = top;
pos = (241,650);
}
);
background = {
shapes = (
{
closed = 1;
nodes = (
(157,-8,o),
(173,-10,o),
(189,-10,cs),
(264,-10,o),
(334,30,o),
(355,141,cs),
(447,610,l),
(359,627,l),
(268,158,ls),
(255,89,o),
(220,67,o),
(180,67,cs),
(173,67,o),
(164,68,o),
(155,70,cs),
(114,78,o),
(81,101,o),
(81,157,cs),
(81,169,o),
(82,180,o),
(85,193,c),
(89,218,l),
(8,234,l),
(3,209,l),
(0,192,o),
(-2,175,o),
(-2,160,cs),
(-2,60,o),
(68,9,o),
(141,-5,cs)
);
}
);
};
layerId = "1B8EDE0E-D46F-48F9-B9C6-2CD34FEA95FD";
shapes = (
{
closed = 1;
nodes = (
(266,-12,o),
(336,36,o),
(362,172,cs),
(454,650,l),
(365,650,l),
(273,172,ls),
(262,113,o),
(242,68,o),
(176,68,cs),
(117,68,o),
(70,109,o),
(83,180,cs),
(86,197,l),
(1,197,l),
(-1,180,ls),
(-15,61,o),
(48,-12,o),
(170,-12,c)
);
}
);
width = 418;
},
{
anchors = (
{
name = bottom;
pos = (241,0);
},
{
name = top;
pos = (241,650);
}
);
layerId = "37597A9B-137B-4040-B731-85284A6575D5";
shapes = (
{
closed = 1;
nodes = (
(299,-12,o),
(386,36,o),
(386,172,cs),
(386,650,l),
(297,650,l),
(297,172,ls),
(297,88,o),
(253,64,o),
(203,64,cs),
(153,64,o),
(110,88,o),
(110,172,c),
(110,197,l),
(27,197,l),
(27,172,l),
(27,36,o),
(118,-12,o),
(203,-12,cs)
);
}
);
width = 453;
},
{
anchors = (
{
name = bottom;
pos = (241,0);
},
{
name = top;
pos = (241,650);
}
);
layerId = "4D009BB9-CCD0-4844-B12B-B6DC88771387";
shapes = (
{
closed = 1;
nodes = (
(299,-12,o),
(386,36,o),
(386,172,cs),
(386,650,l),
(297,650,l),
(297,172,ls),
(297,88,o),
(253,64,o),
(203,64,cs),
(153,64,o),
(110,88,o),
(110,172,c),
(110,197,l),
(27,197,l),
(27,172,l),
(27,36,o),
(118,-12,o),
(203,-12,cs)
);
}
);
width = 453;
}
);
metricRight = "=H";
unicode = 74;
},
{
glyphname = K;
lastChange = "2025-11-15 17:09:45 +0000";
layers = (
{
anchors = (
{
name = bottom;
pos = (300,0);
},
{
name = top;
pos = (300,650);
}
);
layerId = "1B8EDE0E-D46F-48F9-B9C6-2CD34FEA95FD";
shapes = (
{
closed = 1;
nodes = (
(93,1,l),
(144,267,l),
(98,184,l),
(281,360,l),
(236,384,l),
(379,0,l),
(477,0,l),
(308,451,l),
(281,355,l),
(589,650,l),
(488,650,l),
(121,310,l),
(150,298,l),
(218,650,l),
(129,650,l),
(4,1,l)
);
}
);
width = 540;
},
{
anchors = (
{
name = bottom;
pos = (301,0);
},
{
name = top;
pos = (301,650);
}
);
layerId = "37597A9B-137B-4040-B731-85284A6575D5";
shapes = (
{
closed = 1;
nodes = (
(156,1,l),
(156,267,l),
(126,184,l),
(275,360,l),
(226,384,l),
(443,0,l),
(541,0,l),
(285,451,l),
(272,355,l),
(523,650,l),
(426,650,l),
(125,310,l),
(156,298,l),
(156,650,l),
(67,650,l),
(67,1,l)
);
}
);
width = 541;
},
{
anchors = (
{
name = bottom;
pos = (301,0);
},
{
name = top;
pos = (301,650);
}
);
layerId = "4D009BB9-CCD0-4844-B12B-B6DC88771387";
shapes = (
{
closed = 1;
nodes = (
(156,1,l),
(156,267,l),
(126,184,l),
(275,360,l),
(226,384,l),
(443,0,l),
(541,0,l),
(285,451,l),
(272,355,l),
(523,650,l),
(426,650,l),
(125,310,l),
(156,298,l),
(156,650,l),
(67,650,l),
(67,1,l)
);
}
);
width = 541;
}
);
metricLeft = "=H";
unicode = 75;
},
{
glyphname = L;
lastChange = "2025-11-15 17:09:45 +0000";
layers = (
{
anchors = (
{
name = bottom;
pos = (243,0);
},
{
name = center;
pos = (243,325);
},
{
name = top;
pos = (243,650);
},
{
name = topright;
pos = (474,650);
}
);
layerId = "1B8EDE0E-D46F-48F9-B9C6-2CD34FEA95FD";
shapes = (
{
closed = 1;
nodes = (
(375,0,l),
(390,69,l),
(107,69,l),
(218,650,l),
(129,650,l),
(3,0,l)
);
}
);
width = 419;
},
{
anchors = (
{
name = bottom;
pos = (244,0);
},
{
name = center;
pos = (244,325);
},
{
name = top;
pos = (244,650);
},
{
name = topright;
pos = (475,650);
}
);
layerId = "37597A9B-137B-4040-B731-85284A6575D5";
shapes = (
{
closed = 1;
nodes = (
(439,0,l),
(439,76,l),
(156,76,l),
(156,650,l),
(67,650,l),
(67,0,l)
);
}
);
width = 470;
},
{
anchors = (
{
name = bottom;
pos = (244,0);
},
{
name = center;
pos = (244,325);
},
{
name = top;
pos = (244,650);
},
{
name = topright;
pos = (475,650);
}
);
layerId = "4D009BB9-CCD0-4844-B12B-B6DC88771387";
shapes = (
{
closed = 1;
nodes = (
(439,0,l),
(439,76,l),
(156,76,l),
(156,650,l),
(67,650,l),
(67,0,l)
);
}
);
width = 470;
}
);
metricLeft = "=H";
unicode = 76;
},
{
glyphname = M;
lastChange = "2025-11-15 17:09:45 +0000";
layers = (
{
anchors = (
{
name = bottom;
pos = (388,0);
},
{
name = top;
pos = (388,650);
}
);
layerId = "1B8EDE0E-D46F-48F9-B9C6-2CD34FEA95FD";
shapes = (
{
closed = 1;
nodes = (
(94,1,l),
(199,547,l),
(173,512,l),
(289,130,l),
(356,130,l),
(625,512,l),
(609,547,l),
(504,1,l),
(593,1,l),
(717,650,l),
(627,650,l),
(323,208,l),
(353,208,l),
(219,650,l),
(129,650,l),
(5,1,l)
);
}
);
width = 683;
},
{
anchors = (
{
name = bottom;
pos = (388,0);
},
{
name = top;
pos = (388,650);
}
);
layerId = "37597A9B-137B-4040-B731-85284A6575D5";
shapes = (
{
closed = 1;
nodes = (
(42,1,l),
(234,547,l),
(206,522,l),
(258,130,l),
(325,130,l),
(654,522,l),
(644,547,l),
(452,1,l),
(541,1,l),
(769,650,l),
(679,650,l),
(305,208,l),
(335,208,l),
(271,650,l),
(181,650,l),
(-47,1,l)
);
}
);
width = 723;
},
{
anchors = (
{
name = bottom;
pos = (388,0);
},
{
name = top;
pos = (388,650);
}
);
layerId = "4D009BB9-CCD0-4844-B12B-B6DC88771387";
shapes = (
{
closed = 1;
nodes = (
(156,1,l),
(156,547,l),
(137,532,l),
(327,130,l),
(394,130,l),
(585,532,l),
(566,547,l),
(566,1,l),
(655,1,l),
(655,650,l),
(565,650,l),
(346,208,l),
(376,208,l),
(157,650,l),
(67,650,l),
(67,1,l)
);
}
);
width = 722;
}
);
metricLeft = H;
metricRight = H;
unicode = 77;
},
{
glyphname = N;
lastChange = "2025-11-15 17:09:45 +0000";
layers = (
{
anchors = (
{
name = bottom;
pos = (331,0);
},
{
name = top;
pos = (331,650);
}
);
layerId = "1B8EDE0E-D46F-48F9-B9C6-2CD34FEA95FD";
shapes = (
{
closed = 1;
nodes = (
(3,0,l),
(92,0,l),
(200,561,l),
(162,554,l),
(387,0,l),
(472,0,l),
(598,650,l),
(509,650,l),
(400,86,l),
(440,92,l),
(216,650,l),
(129,650,l)
);
}
);
width = 562;
},
{
anchors = (
{
name = bottom;
pos = (332,0);
},
{
name = top;
pos = (332,650);
}
);
layerId = "37597A9B-137B-4040-B731-85284A6575D5";
shapes = (
{
closed = 1;
nodes = (
(67,0,l),
(156,0,l),
(156,561,l),
(119,554,l),
(451,0,l),
(536,0,l),
(536,650,l),
(447,650,l),
(447,86,l),
(486,92,l),
(154,650,l),
(67,650,l)
);
}
);
width = 603;
},
{
anchors = (
{
name = bottom;
pos = (332,0);
},
{
name = top;
pos = (332,650);
}
);
layerId = "4D009BB9-CCD0-4844-B12B-B6DC88771387";
shapes = (
{
closed = 1;
nodes = (
(67,0,l),
(156,0,l),
(156,561,l),
(119,554,l),
(451,0,l),
(536,0,l),
(536,650,l),
(447,650,l),
(447,86,l),
(486,92,l),
(154,650,l),
(67,650,l)
);
}
);
width = 603;
}
);
metricLeft = H;
metricRight = "=|";
unicode = 78;
},
{
glyphname = O;
lastChange = "2025-11-15 17:09:45 +0000";
layers = (
{
anchors = (
{
name = bottom;
pos = (309,0);
},
{
name = center;
pos = (309,325);
},
{
name = ogonek;
pos = (548,10);
},
{
name = top;
pos = (309,650);
},
{
name = topleft;
pos = (30,650);
},
{
name = topright;
pos = (588,650);
}
);
background = {
shapes = (
{
closed = 1;
nodes = (
(459,234,l),
(431,89,o),
(338,63,o),
(261,72,cs),
(185,80,o),
(105,121,o),
(134,266,c),
(163,419,l),
(192,566,o),
(284,590,o),
(361,583,cs),
(437,577,o),
(517,534,o),
(489,387,c)
);
},
{
closed = 1;
nodes = (
(45,273,l),
(6,74,o),
(141,6,o),
(246,-4,cs),
(353,-15,o),
(508,26,o),
(547,225,c),
(577,381,l),
(616,582,o),
(482,650,o),
(376,660,cs),
(270,670,o),
(114,630,o),
(75,429,c)
);
}
);
};
layerId = "1B8EDE0E-D46F-48F9-B9C6-2CD34FEA95FD";
shapes = (
{
closed = 1;
nodes = (
(460,231,l),
(434,100,o),
(363,66,o),
(276,66,cs),
(194,66,o),
(101,114,o),
(134,263,c),
(163,419,l),
(189,549,o),
(253,584,o),
(347,584,cs),
(429,584,o),
(522,536,o),
(489,387,c)
);
},
{
closed = 1;
nodes = (
(3,56,o),
(149,-12,o),
(276,-12,cs),
(389,-12,o),
(516,49,o),
(548,221,c),
(577,381,l),
(625,591,o),
(454,662,o),
(347,662,cs),
(241,662,o),
(107,599,o),
(75,429,cs),
(46,269,ls)
);
}
);
width = 584;
},
{
anchors = (
{
name = bottom;
pos = (299,0);
},
{
name = center;
pos = (299,325);
},
{
name = ogonek;
pos = (538,10);
},
{
name = top;
pos = (299,650);
},
{
name = topleft;
pos = (20,650);
},
{
name = topright;
pos = (578,650);
}
);
background = {
shapes = (
{
closed = 0;
nodes = (
(390,584,ls),
(466,572,o),
(540,523,o),
(488,381,c)
);
},
{
closed = 0;
nodes = (
(575,368,l),
(646,562,o),
(522,640,o),
(417,659,cs)
);
}
);
};
layerId = "37597A9B-137B-4040-B731-85284A6575D5";
shapes = (
{
closed = 1;
nodes = (
(441,211,l),
(399,96,o),
(325,63,o),
(258,63,cs),
(119,63,o),
(76,153,o),
(119,268,c),
(180,436,l),
(223,554,o),
(297,586,o),
(364,586,cs),
(424,586,o),
(519,563,o),
(519,464,cs),
(519,440,o),
(514,412,o),
(502,379,c)
);
},
{
closed = 1;
nodes = (
(31,282,l),
(-36,95,o),
(82,-12,o),
(246,-12,cs),
(353,-12,o),
(468,34,o),
(527,195,c),
(589,366,l),
(604,406,o),
(610,441,o),
(610,471,cs),
(610,603,o),
(488,662,o),
(376,662,cs),
(276,662,o),
(152,616,o),
(93,453,c)
);
}
);
width = 598;
},
{
anchors = (
{
name = bottom;
pos = (299,0);
},
{
name = center;
pos = (299,325);
},
{
name = ogonek;
pos = (538,10);
},
{
name = top;
pos = (299,650);
},
{
name = topleft;
pos = (20,650);
},
{
name = topright;
pos = (578,650);
}
);
layerId = "4D009BB9-CCD0-4844-B12B-B6DC88771387";
shapes = (
{
closed = 1;
nodes = (
(463,246,l),
(463,99,o),
(376,64,o),
(299,65,cs),
(222,66,o),
(136,99,o),
(136,246,c),
(136,401,l),
(136,550,o),
(222,583,o),
(299,584,cs),
(376,585,o),
(463,550,o),
(463,401,c)
);
},
{
closed = 1;
nodes = (
(47,245,l),
(47,43,o),
(193,-12,o),
(299,-12,cs),
(406,-12,o),
(551,43,o),
(551,245,c),
(551,403,l),
(551,607,o),
(406,662,o),
(299,662,cs),
(193,662,o),
(47,607,o),
(47,403,c)
);
}
);
width = 598;
}
);
metricRight = "=|";
unicode = 79;
},
{
glyphname = P;
lastChange = "2025-11-15 17:09:45 +0000";
layers = (
{
background = {
shapes = (
{
closed = 1;
nodes = (
(219,215,ls),
(313,206,o),
(429,239,o),
(457,380,c),
(470,446,l),
(497,589,o),
(398,642,o),
(304,651,cs),
(197,662,l),
(182,587,l),
(281,576,ls),
(334,571,o),
(400,553,o),
(381,453,c),
(369,392,l),
(349,291,o),
(278,287,o),
(226,292,cs),
(127,301,l),
(112,226,l)
);
}
);
};
layerId = "1B8EDE0E-D46F-48F9-B9C6-2CD34FEA95FD";
shapes = (
{
closed = 1;
nodes = (
(92,0,l),
(218,650,l),
(129,650,l),
(3,0,l)
);
},
{
closed = 1;
nodes = (
(218,208,ls),
(323,208,o),
(425,231,o),
(451,365,cs),
(472,472,ls),
(497,597,o),
(377,650,o),
(284,650,cs),
(197,650,l),
(182,574,l),
(281,573,ls),
(329,573,o),
(400,559,o),
(381,460,cs),
(367,388,ls),
(347,284,o),
(280,286,o),
(225,286,cs),
(126,285,l),
(111,208,l)
);
}
);
width = 459;
},
{
layerId = "37597A9B-137B-4040-B731-85284A6575D5";
shapes = (
{
closed = 1;
nodes = (
(156,0,l),
(156,650,l),
(67,650,l),
(67,0,l)
);
},
{
closed = 1;
nodes = (
(242,208,ls),
(337,208,o),
(445,252,o),
(445,395,c),
(445,462,l),
(445,606,o),
(337,650,o),
(242,650,cs),
(135,650,l),
(135,574,l),
(234,573,ls),
(287,573,o),
(356,561,o),
(356,460,c),
(356,398,l),
(356,296,o),
(287,285,o),
(234,285,cs),
(135,284,l),
(135,208,l)
);
}
);
width = 485;
},
{
layerId = "4D009BB9-CCD0-4844-B12B-B6DC88771387";
shapes = (
{
closed = 1;
nodes = (
(156,0,l),
(156,650,l),
(67,650,l),
(67,0,l)
);
},
{
closed = 1;
nodes = (
(242,208,ls),
(337,208,o),
(445,252,o),
(445,395,c),
(445,462,l),
(445,606,o),
(337,650,o),
(242,650,cs),
(135,650,l),
(135,574,l),
(234,573,ls),
(287,573,o),
(356,561,o),
(356,460,c),
(356,398,l),
(356,296,o),
(287,285,o),
(234,285,cs),
(135,284,l),
(135,208,l)
);
}
);
width = 485;
}
);
metricLeft = "=H";
unicode = 80;
},
{
glyphname = Q;
lastChange = "2025-11-15 17:09:45 +0000";
layers = (
{
layerId = "1B8EDE0E-D46F-48F9-B9C6-2CD34FEA95FD";
shapes = (
{
closed = 1;
nodes = (
(337,29,l),
(383,-98,l),
(472,-60,l),
(424,66,l)
);
},
{
closed = 1;
nodes = (
(460,231,l),
(434,100,o),
(363,66,o),
(276,66,cs),
(194,66,o),
(101,114,o),
(134,263,c),
(163,419,l),
(189,549,o),
(253,584,o),
(347,584,cs),
(429,584,o),
(522,536,o),
(489,387,c)
);
},
{
closed = 1;
nodes = (
(3,56,o),
(149,-12,o),
(276,-12,cs),
(389,-12,o),
(516,49,o),
(548,221,c),
(577,381,l),
(625,591,o),
(454,662,o),
(347,662,cs),
(241,662,o),
(107,599,o),
(75,429,cs),
(46,269,ls)
);
}
);
width = 584;
},
{
layerId = "37597A9B-137B-4040-B731-85284A6575D5";
shapes = (
{
closed = 1;
nodes = (
(463,245,l),
(463,99,o),
(376,64,o),
(299,65,cs),
(222,66,o),
(136,99,o),
(136,245,c),
(136,403,l),
(136,550,o),
(222,583,o),
(299,584,cs),
(376,585,o),
(463,550,o),
(463,403,c)
);
},
{
closed = 1;
nodes = (
(47,245,l),
(47,43,o),
(193,-12,o),
(299,-12,cs),
(406,-12,o),
(551,43,o),
(551,245,c),
(551,403,l),
(551,607,o),
(406,662,o),
(299,662,cs),
(193,662,o),
(47,607,o),
(47,403,c)
);
},
{
closed = 1;
nodes = (
(375,35,l),
(445,-87,l),
(525,-40,l),
(454,81,l)
);
}
);
width = 598;
},
{
layerId = "4D009BB9-CCD0-4844-B12B-B6DC88771387";
shapes = (
{
closed = 1;
nodes = (
(463,245,l),
(463,99,o),
(376,64,o),
(299,65,cs),
(222,66,o),
(136,99,o),
(136,245,c),
(136,403,l),
(136,550,o),
(222,583,o),
(299,584,cs),
(376,585,o),
(463,550,o),
(463,403,c)
);
},
{
closed = 1;
nodes = (
(47,245,l),
(47,43,o),
(193,-12,o),
(299,-12,cs),
(406,-12,o),
(551,43,o),
(551,245,c),
(551,403,l),
(551,607,o),
(406,662,o),
(299,662,cs),
(193,662,o),
(47,607,o),
(47,403,c)
);
},
{
closed = 1;
nodes = (
(375,35,l),
(445,-87,l),
(525,-40,l),
(454,81,l)
);
}
);
width = 598;
}
);
metricLeft = "=O";
metricRight = "=O";
unicode = 81;
},
{
glyphname = R;
lastChange = "2025-11-15 17:09:45 +0000";
layers = (
{
anchors = (
{
name = bottom;
pos = (263,0);
},
{
name = top;
pos = (263,650);
}
);
background = {
shapes = (
{
closed = 0;
nodes = (
(259,331,ls),
(155,331,l)
);
},
{
closed = 0;
nodes = (
(141,256,l),
(242,256,ls)
);
}
);
};
layerId = "1B8EDE0E-D46F-48F9-B9C6-2CD34FEA95FD";
shapes = (
{
closed = 1;
nodes = (
(406,0,l),
(339,294,l),
(254,294,l),
(316,0,l)
);
},
{
closed = 1;
nodes = (
(92,0,l),
(218,650,l),
(129,650,l),
(3,0,l)
);
},
{
closed = 1;
nodes = (
(227,254,ls),
(332,254,o),
(433,277,o),
(457,411,cs),
(468,472,ls),
(491,600,o),
(393,650,o),
(304,650,cs),
(197,650,l),
(182,574,l),
(281,573,ls),
(329,573,o),
(402,568,o),
(381,460,cs),
(376,434,ls),
(356,330,o),
(289,332,o),
(234,332,cs),
(135,331,l),
(120,254,l)
);
}
);
width = 467;
},
{
anchors = (
{
name = bottom;
pos = (264,0);
},
{
name = top;
pos = (264,650);
}
);
layerId = "37597A9B-137B-4040-B731-85284A6575D5";
shapes = (
{
closed = 1;
nodes = (
(155,575,l),
(259,575,ls),
(324,575,o),
(368,551,o),
(369,466,cs),
(369,440,ls),
(368,355,o),
(327,331,o),
(259,331,cs),
(155,331,l)
);
},
{
closed = 1;
nodes = (
(155,0,l),
(155,256,l),
(256,256,ls),
(360,256,o),
(462,297,o),
(462,437,cs),
(462,468,ls),
(462,611,o),
(360,650,o),
(255,650,c),
(67,650,l),
(67,0,l)
);
},
{
closed = 1;
nodes = (
(486,0,l),
(352,294,l),
(261,294,l),
(390,0,l)
);
}
);
width = 528;
},
{
anchors = (
{
name = bottom;
pos = (264,0);
},
{
name = top;
pos = (264,650);
}
);
layerId = "4D009BB9-CCD0-4844-B12B-B6DC88771387";
shapes = (
{
closed = 1;
nodes = (
(155,575,l),
(259,575,ls),
(324,575,o),
(368,551,o),
(369,466,cs),
(369,440,ls),
(368,355,o),
(327,331,o),
(259,331,cs),
(155,331,l)
);
},
{
closed = 1;
nodes = (
(155,0,l),
(155,256,l),
(256,256,ls),
(360,256,o),
(462,297,o),
(462,437,cs),
(462,468,ls),
(462,611,o),
(360,650,o),
(255,650,c),
(67,650,l),
(67,0,l)
);
},
{
closed = 1;
nodes = (
(486,0,l),
(352,294,l),
(261,294,l),
(390,0,l)
);
}
);
width = 528;
}
);
metricLeft = "=H";
unicode = 82;
},
{
glyphname = S;
lastChange = "2025-11-15 17:09:45 +0000";
layers = (
{
anchors = (
{
name = bottom;
pos = (267,0);
},
{
name = top;
pos = (267,650);
}
);
background = {
shapes = (
{
closed = 1;
nodes = (
(216,-13,o),
(226,-13,o),
(235,-13,cs),
(335,-13,o),
(423,42,o),
(442,139,cs),
(443,147,ls),
(445,156,o),
(446,165,o),
(446,174,cs),
(446,232,o),
(404,273,o),
(337,323,cs),
(270,373,ls),
(240,395,o),
(180,432,o),
(180,479,cs),
(180,482,o),
(181,485,o),
(181,488,c),
(184,504,l),
(195,558,o),
(239,591,o),
(299,591,cs),
(353,591,o),
(405,564,o),
(405,482,cs),
(405,470,o),
(404,456,o),
(401,441,c),
(487,433,l),
(491,454,o),
(492,473,o),
(492,490,cs),
(492,613,o),
(408,662,o),
(300,662,cs),
(208,662,o),
(120,619,o),
(99,515,c),
(97,503,l),
(95,491,o),
(94,480,o),
(94,469,cs),
(94,381,o),
(169,335,o),
(204,309,cs),
(270,260,ls),
(315,226,o),
(358,210,o),
(358,166,cs),
(358,161,o),
(358,156,o),
(357,151,c),
(356,146,l),
(347,100,o),
(300,64,o),
(234,64,cs),
(167,64,o),
(107,97,o),
(107,177,cs),
(107,186,o),
(107,196,o),
(109,206,c),
(25,215,l),
(21,196,o),
(20,178,o),
(20,162,cs),
(20,43,o),
(109,-2,o),
(207,-12,cs)
);
}
);
};
layerId = "1B8EDE0E-D46F-48F9-B9C6-2CD34FEA95FD";
shapes = (
{
closed = 1;
nodes = (
(351,-12,o),
(411,23,o),
(442,148,cs),
(464,236,o),
(388,288,o),
(308,345,cs),
(270,372,ls),
(241,393,o),
(176,428,o),
(182,479,cs),
(184,495,ls),
(191,554,o),
(230,589,o),
(298,589,cs),
(355,589,o),
(419,555,o),
(402,450,c),
(488,450,l),
(514,590,o),
(424,662,o),
(300,662,cs),
(209,662,o),
(128,621,o),
(96,492,cs),
(71,391,o),
(162,345,o),
(199,318,cs),
(247,282,ls),
(317,230,o),
(368,204,o),
(357,149,c),
(356,143,l),
(346,93,o),
(301,66,o),
(227,66,cs),
(158,66,o),
(93,102,o),
(108,196,c),
(24,196,l),
(-1,79,o),
(95,-12,o),
(207,-12,cs)
);
}
);
width = 495;
},
{
anchors = (
{
name = bottom;
pos = (248,0);
},
{
name = top;
pos = (248,650);
}
);
layerId = "37597A9B-137B-4040-B731-85284A6575D5";
shapes = (
{
closed = 1;
nodes = (
(365,-12,o),
(455,53,o),
(455,161,cs),
(455,169,ls),
(455,241,o),
(404,290,o),
(317,334,cs),
(242,372,ls),
(206,390,o),
(135,424,o),
(133,475,c),
(133,491,l),
(133,550,o),
(176,589,o),
(244,589,cs),
(301,589,o),
(356,555,o),
(359,450,c),
(445,450,l),
(442,604,o),
(355,662,o),
(245,662,cs),
(144,662,o),
(47,611,o),
(47,494,c),
(47,482,l),
(47,370,o),
(145,324,o),
(189,302,cs),
(263,265,ls),
(319,237,o),
(369,220,o),
(369,165,c),
(369,159,l),
(369,109,o),
(322,66,o),
(248,66,cs),
(179,66,o),
(117,102,o),
(114,196,c),
(30,196,l),
(31,35,o),
(141,-12,o),
(253,-12,cs)
);
}
);
width = 495;
},
{
anchors = (
{
name = bottom;
pos = (248,0);
},
{
name = top;
pos = (248,650);
}
);
layerId = "4D009BB9-CCD0-4844-B12B-B6DC88771387";
shapes = (
{
closed = 1;
nodes = (
(365,-12,o),
(455,53,o),
(455,161,cs),
(455,169,ls),
(455,241,o),
(404,290,o),
(317,334,cs),
(242,372,ls),
(206,390,o),
(135,424,o),
(133,475,c),
(133,491,l),
(133,550,o),
(176,589,o),
(244,589,cs),
(301,589,o),
(356,555,o),
(359,450,c),
(445,450,l),
(442,604,o),
(355,662,o),
(245,662,cs),
(144,662,o),
(47,611,o),
(47,494,c),
(47,482,l),
(47,370,o),
(145,324,o),
(189,302,cs),
(263,265,ls),
(319,237,o),
(369,220,o),
(369,165,c),
(369,159,l),
(369,109,o),
(322,66,o),
(248,66,cs),
(179,66,o),
(117,102,o),
(114,196,c),
(30,196,l),
(31,35,o),
(141,-12,o),
(253,-12,cs)
);
}
);
width = 495;
}
);
metricLeft = "=30";
metricRight = "=|+10";
unicode = 83;
},
{
glyphname = T;
lastChange = "2025-11-15 17:09:45 +0000";
layers = (
{
anchors = (
{
name = bottom;
pos = (257,0);
},
{
name = center;
pos = (257,325);
},
{
name = top;
pos = (257,650);
}
);
layerId = "1B8EDE0E-D46F-48F9-B9C6-2CD34FEA95FD";
shapes = (
{
closed = 1;
nodes = (
(79,650,l),
(65,574,l),
(254,574,l),
(144,2,l),
(232,2,l),
(342,574,l),
(530,574,l),
(544,650,l)
);
}
);
width = 458;
},
{
anchors = (
{
name = bottom;
pos = (257,0);
},
{
name = center;
pos = (257,325);
},
{
name = top;
pos = (257,650);
}
);
layerId = "37597A9B-137B-4040-B731-85284A6575D5";
shapes = (
{
closed = 1;
nodes = (
(17,650,l),
(17,574,l),
(206,574,l),
(206,2,l),
(294,2,l),
(294,574,l),
(482,574,l),
(482,650,l)
);
}
);
width = 499;
},
{
anchors = (
{
name = bottom;
pos = (257,0);
},
{
name = center;
pos = (257,325);
},
{
name = top;
pos = (257,650);
}
);
layerId = "4D009BB9-CCD0-4844-B12B-B6DC88771387";
shapes = (
{
closed = 1;
nodes = (
(17,650,l),
(17,574,l),
(206,574,l),
(206,2,l),
(294,2,l),
(294,574,l),
(482,574,l),
(482,650,l)
);
}
);
width = 499;
}
);
metricRight = "=|";
unicode = 84;
},
{
glyphname = U;
lastChange = "2025-11-15 17:09:45 +0000";
layers = (
{
anchors = (
{
name = bottom;
pos = (215,1);
},
{
name = ogonek;
pos = (451,-11);
},
{
name = top;
pos = (340,642);
},
{
name = topright;
pos = (612,616);
}
);
background = {
shapes = (
{
closed = 1;
nodes = (
(241,-11,o),
(251,-12,o),
(262,-12,cs),
(357,-12,o),
(480,34,o),
(514,213,c),
(593,620,l),
(506,628,l),
(428,229,l),
(403,98,o),
(329,64,o),
(265,64,cs),
(201,64,o),
(126,89,o),
(126,196,cs),
(126,214,o),
(128,234,o),
(133,257,c),
(210,657,l),
(122,665,l),
(43,259,l),
(38,234,o),
(36,211,o),
(36,190,cs),
(36,46,o),
(145,-2,o),
(231,-10,cs)
);
}
);
};
layerId = "1B8EDE0E-D46F-48F9-B9C6-2CD34FEA95FD";
shapes = (
{
closed = 1;
nodes = (
(361,-12,o),
(480,37,o),
(514,213,cs),
(599,650,l),
(511,650,l),
(428,229,ls),
(401,92,o),
(313,64,o),
(261,64,cs),
(152,64,o),
(108,122,o),
(134,257,cs),
(209,650,l),
(119,650,l),
(45,271,ls),
(-3,24,o),
(158,-12,o),
(262,-12,cs)
);
}
);
width = 552;
},
{
anchors = (
{
name = bottom;
pos = (294,0);
},
{
name = ogonek;
pos = (529,10);
},
{
name = top;
pos = (294,650);
},
{
name = topright;
pos = (568,650);
}
);
layerId = "37597A9B-137B-4040-B731-85284A6575D5";
shapes = (
{
closed = 1;
nodes = (
(393,-12,o),
(531,36,o),
(531,238,c),
(531,650,l),
(443,650,l),
(443,245,l),
(443,98,o),
(362,64,o),
(294,64,cs),
(224,65,o),
(146,98,o),
(146,245,c),
(146,650,l),
(57,650,l),
(57,238,l),
(57,36,o),
(196,-12,o),
(294,-12,cs)
);
}
);
width = 588;
},
{
anchors = (
{
name = bottom;
pos = (294,0);
},
{
name = ogonek;
pos = (529,10);
},
{
name = top;
pos = (294,650);
},
{
name = topright;
pos = (568,650);
}
);
layerId = "4D009BB9-CCD0-4844-B12B-B6DC88771387";
shapes = (
{
closed = 1;
nodes = (
(393,-12,o),
(531,36,o),
(531,238,c),
(531,650,l),
(443,650,l),
(443,245,l),
(443,98,o),
(362,64,o),
(294,64,cs),
(224,65,o),
(146,98,o),
(146,245,c),
(146,650,l),
(57,650,l),
(57,238,l),
(57,36,o),
(196,-12,o),
(294,-12,cs)
);
}
);
width = 588;
}
);
metricLeft = "=H-10";
metricRight = "=|";
unicode = 85;
},
{
glyphname = V;
lastChange = "2025-11-15 17:09:45 +0000";
layers = (
{
anchors = (
{
name = bottom;
pos = (284,0);
},
{
name = top;
pos = (284,650);
}
);
layerId = "1B8EDE0E-D46F-48F9-B9C6-2CD34FEA95FD";
shapes = (
{
closed = 1;
nodes = (
(257,0,l),
(605,650,l),
(525,650,l),
(218,80,l),
(245,80,l),
(156,650,l),
(78,650,l),
(174,0,l)
);
}
);
width = 517;
},
{
anchors = (
{
name = bottom;
pos = (284,0);
},
{
name = top;
pos = (284,650);
}
);
layerId = "37597A9B-137B-4040-B731-85284A6575D5";
shapes = (
{
closed = 1;
nodes = (
(320,0,l),
(542,650,l),
(452,650,l),
(265,80,l),
(296,80,l),
(107,650,l),
(15,650,l),
(237,0,l)
);
}
);
width = 557;
},
{
anchors = (
{
name = bottom;
pos = (284,0);
},
{
name = top;
pos = (284,650);
}
);
layerId = "4D009BB9-CCD0-4844-B12B-B6DC88771387";
shapes = (
{
closed = 1;
nodes = (
(320,0,l),
(542,650,l),
(452,650,l),
(265,80,l),
(296,80,l),
(107,650,l),
(15,650,l),
(237,0,l)
);
}
);
width = 557;
}
);
metricRight = "=|";
unicode = 86;
},
{
glyphname = W;
lastChange = "2025-11-15 17:09:45 +0000";
layers = (
{
anchors = (
{
name = bottom;
pos = (439,0);
},
{
name = top;
pos = (431,650);
}
);
layerId = "1B8EDE0E-D46F-48F9-B9C6-2CD34FEA95FD";
shapes = (
{
closed = 1;
nodes = (
(135,0,l),
(210,0,l),
(479,560,l),
(443,559,l),
(496,0,l),
(573,0,l),
(883,650,l),
(794,650,l),
(530,73,l),
(573,73,l),
(525,650,l),
(433,650,l),
(168,73,l),
(210,73,l),
(170,650,l),
(78,650,l)
);
}
);
width = 795;
},
{
anchors = (
{
name = bottom;
pos = (439,0);
},
{
name = top;
pos = (431,650);
}
);
layerId = "37597A9B-137B-4040-B731-85284A6575D5";
shapes = (
{
closed = 1;
nodes = (
(198,0,l),
(273,0,l),
(434,560,l),
(398,559,l),
(559,0,l),
(636,0,l),
(820,650,l),
(731,650,l),
(579,73,l),
(622,73,l),
(466,650,l),
(370,650,l),
(217,73,l),
(259,73,l),
(107,650,l),
(15,650,l)
);
}
);
width = 835;
},
{
anchors = (
{
name = bottom;
pos = (439,0);
},
{
name = top;
pos = (431,650);
}
);
layerId = "4D009BB9-CCD0-4844-B12B-B6DC88771387";
shapes = (
{
closed = 1;
nodes = (
(198,0,l),
(273,0,l),
(434,560,l),
(398,559,l),
(559,0,l),
(636,0,l),
(820,650,l),
(731,650,l),
(579,73,l),
(622,73,l),
(466,650,l),
(370,650,l),
(217,73,l),
(259,73,l),
(107,650,l),
(15,650,l)
);
}
);
width = 835;
}
);
metricLeft = "=V";
metricRight = "=|";
unicode = 87;
},
{
glyphname = X;
lastChange = "2025-11-15 17:09:45 +0000";
layers = (
{
layerId = "1B8EDE0E-D46F-48F9-B9C6-2CD34FEA95FD";
shapes = (
{
closed = 1;
nodes = (
(464,1,l),
(185,650,l),
(94,650,l),
(373,1,l)
);
},
{
closed = 1;
nodes = (
(309,299,l),
(592,650,l),
(491,650,l),
(269,374,l)
);
},
{
closed = 1;
nodes = (
(59,1,l),
(299,299,l),
(259,374,l),
(-41,1,l)
);
}
);
width = 521;
},
{
layerId = "37597A9B-137B-4040-B731-85284A6575D5";
shapes = (
{
closed = 1;
nodes = (
(536,1,l),
(133,650,l),
(32,650,l),
(435,1,l)
);
},
{
closed = 1;
nodes = (
(314,299,l),
(530,650,l),
(429,650,l),
(260,374,l)
);
},
{
closed = 1;
nodes = (
(121,1,l),
(304,299,l),
(250,374,l),
(21,1,l)
);
}
);
width = 557;
},
{
layerId = "4D009BB9-CCD0-4844-B12B-B6DC88771387";
shapes = (
{
closed = 1;
nodes = (
(536,1,l),
(133,650,l),
(32,650,l),
(435,1,l)
);
},
{
closed = 1;
nodes = (
(314,299,l),
(530,650,l),
(429,650,l),
(260,374,l)
);
},
{
closed = 1;
nodes = (
(121,1,l),
(304,299,l),
(250,374,l),
(21,1,l)
);
}
);
width = 557;
}
);
metricRight = "=|";
unicode = 88;
},
{
glyphname = Y;
lastChange = "2025-11-15 17:09:45 +0000";
layers = (
{
anchors = (
{
name = bottom;
pos = (257,0);
},
{
name = top;
pos = (257,650);
},
{
name = topleft;
pos = (20,650);
}
);
layerId = "1B8EDE0E-D46F-48F9-B9C6-2CD34FEA95FD";
shapes = (
{
closed = 1;
nodes = (
(201,264,l),
(150,0,l),
(238,0,l),
(289,264,l),
(562,650,l),
(474,650,l),
(230,304,l),
(273,304,l),
(167,650,l),
(78,650,l)
);
}
);
width = 474;
},
{
anchors = (
{
name = bottom;
pos = (257,0);
},
{
name = top;
pos = (257,650);
},
{
name = topleft;
pos = (20,650);
}
);
layerId = "37597A9B-137B-4040-B731-85284A6575D5";
shapes = (
{
closed = 1;
nodes = (
(213,264,l),
(213,0,l),
(301,0,l),
(301,264,l),
(499,650,l),
(411,650,l),
(236,304,l),
(278,304,l),
(107,650,l),
(15,650,l)
);
}
);
width = 514;
},
{
anchors = (
{
name = bottom;
pos = (257,0);
},
{
name = top;
pos = (257,650);
},
{
name = topleft;
pos = (20,650);
}
);
layerId = "4D009BB9-CCD0-4844-B12B-B6DC88771387";
shapes = (
{
closed = 1;
nodes = (
(213,264,l),
(213,0,l),
(301,0,l),
(301,264,l),
(499,650,l),
(411,650,l),
(236,304,l),
(278,304,l),
(107,650,l),
(15,650,l)
);
}
);
width = 514;
}
);
metricLeft = V;
metricRight = "=|";
unicode = 89;
},
{
glyphname = Z;
lastChange = "2025-11-15 17:09:45 +0000";
layers = (
{
anchors = (
{
name = bottom;
pos = (287,0);
},
{
name = center;
pos = (287,325);
},
{
name = top;
pos = (287,650);
}
);
layerId = "1B8EDE0E-D46F-48F9-B9C6-2CD34FEA95FD";
shapes = (
{
closed = 1;
nodes = (
(17,68,l),
(3,0,l),
(429,0,l),
(444,76,l),
(130,76,l),
(541,582,l),
(555,650,l),
(129,650,l),
(114,575,l),
(428,575,l)
);
}
);
width = 519;
},
{
anchors = (
{
name = bottom;
pos = (288,0);
},
{
name = center;
pos = (288,325);
},
{
name = top;
pos = (288,650);
}
);
layerId = "37597A9B-137B-4040-B731-85284A6575D5";
shapes = (
{
closed = 1;
nodes = (
(67,68,l),
(67,0,l),
(493,0,l),
(493,76,l),
(173,76,l),
(493,582,l),
(493,650,l),
(67,650,l),
(67,575,l),
(387,575,l)
);
}
);
width = 560;
},
{
anchors = (
{
name = bottom;
pos = (288,0);
},
{
name = center;
pos = (288,325);
},
{
name = top;
pos = (288,650);
}
);
layerId = "4D009BB9-CCD0-4844-B12B-B6DC88771387";
shapes = (
{
closed = 1;
nodes = (
(67,68,l),
(67,0,l),
(493,0,l),
(493,76,l),
(173,76,l),
(493,582,l),
(493,650,l),
(67,650,l),
(67,575,l),
(387,575,l)
);
}
);
width = 560;
}
);
metricLeft = "=H";
metricRight = "=|";
unicode = 90;
},
{
glyphname = a;
lastChange = "2025-11-15 17:09:45 +0000";
layers = (
{
anchors = (
{
name = bottom;
pos = (243,0);
},
{
name = ogonek;
pos = (435,10);
},
{
name = top;
pos = (243,450);
}
);
background = {
anchors = (
{
name = bottom;
pos = (243,0);
},
{
name = ogonek;
pos = (435,10);
},
{
name = top;
pos = (243,450);
}
);
shapes = (
{
closed = 1;
nodes = (
(204,275,ls),
(80,275,o),
(40,203,o),
(40,130,cs),
(40,55,o),
(88,-12,o),
(203,-12,cs),
(264,-12,o),
(305,3,o),
(342,45,c),
(333,168,l),
(333,91,o),
(272,60,o),
(218,60,cs),
(166,60,o),
(122,82,o),
(122,132,cs),
(122,174,o),
(153,205,o),
(228,205,c),
(333,205,l),
(333,275,l)
);
},
{
closed = 1;
nodes = (
(420,0,l),
(421,311,ls),
(421,424,o),
(316,462,o),
(240,462,cs),
(176,462,o),
(72,428,o),
(64,319,c),
(146,319,l),
(154,374,o),
(199,388,o),
(240,388,cs),
(270,388,o),
(333,379,o),
(333,307,cs),
(333,56,l),
(342,44,l),
(352,0,l)
);
}
);
};
layerId = "1B8EDE0E-D46F-48F9-B9C6-2CD34FEA95FD";
shapes = (
{
closed = 1;
nodes = (
(295,-12,o),
(341,82,o),
(360,169,c),
(317,169,l),
(298,89,o),
(263,63,o),
(212,63,cs),
(117,63,o),
(99,138,o),
(111,201,cs),
(124,268,ls),
(143,364,o),
(197,387,o),
(253,387,cs),
(304,387,o),
(355,362,o),
(338,278,c),
(375,278,l),
(398,412,o),
(324,462,o),
(254,462,cs),
(169,462,o),
(68,419,o),
(40,277,cs),
(27,210,ls),
(1,78,o),
(78,-12,o),
(188,-12,cs)
);
},
{
closed = 1;
nodes = (
(370,450,l),
(295,56,l),
(303,0,l),
(371,0,l),
(458,450,l)
);
}
);
width = 475;
},
{
anchors = (
{
name = bottom;
pos = (243,0);
},
{
name = ogonek;
pos = (435,10);
},
{
name = top;
pos = (243,450);
}
);
associatedMasterId = "1B8EDE0E-D46F-48F9-B9C6-2CD34FEA95FD";
layerId = "6C3A7C1F-C310-46EB-8A79-20A1081BB649";
name = "Nov 14, 25 at 13:37";
shapes = (
{
closed = 1;
nodes = (
(204,275,ls),
(80,275,o),
(40,203,o),
(40,130,cs),
(40,55,o),
(88,-12,o),
(203,-12,cs),
(264,-12,o),
(305,3,o),
(342,45,c),
(333,168,l),
(333,91,o),
(272,60,o),
(218,60,cs),
(166,60,o),
(122,82,o),
(122,132,cs),
(122,174,o),
(153,205,o),
(228,205,c),
(333,205,l),
(333,275,l)
);
},
{
closed = 1;
nodes = (
(420,0,l),
(421,311,ls),
(421,424,o),
(316,462,o),
(240,462,cs),
(176,462,o),
(72,428,o),
(64,319,c),
(146,319,l),
(154,374,o),
(199,388,o),
(240,388,cs),
(270,388,o),
(333,379,o),
(333,307,cs),
(333,56,l),
(342,44,l),
(352,0,l)
);
}
);
width = 483;
},
{
anchors = (
{
name = bottom;
pos = (243,0);
},
{
name = ogonek;
pos = (435,10);
},
{
name = top;
pos = (243,450);
}
);
layerId = "37597A9B-137B-4040-B731-85284A6575D5";
shapes = (
{
closed = 1;
nodes = (
(204,275,ls),
(80,275,o),
(40,203,o),
(40,130,cs),
(40,55,o),
(88,-12,o),
(203,-12,cs),
(264,-12,o),
(305,3,o),
(342,45,c),
(333,168,l),
(333,91,o),
(272,60,o),
(218,60,cs),
(166,60,o),
(122,82,o),
(122,132,cs),
(122,174,o),
(153,205,o),
(228,205,c),
(333,205,l),
(333,275,l)
);
},
{
closed = 1;
nodes = (
(420,0,l),
(421,311,ls),
(421,424,o),
(316,462,o),
(240,462,cs),
(176,462,o),
(72,428,o),
(64,319,c),
(146,319,l),
(154,374,o),
(199,388,o),
(240,388,cs),
(270,388,o),
(333,379,o),
(333,307,cs),
(333,56,l),
(342,44,l),
(352,0,l)
);
}
);
width = 483;
},
{
anchors = (
{
name = bottom;
pos = (243,0);
},
{
name = ogonek;
pos = (435,10);
},
{
name = top;
pos = (243,450);
}
);
layerId = "4D009BB9-CCD0-4844-B12B-B6DC88771387";
shapes = (
{
closed = 1;
nodes = (
(204,275,ls),
(80,275,o),
(40,203,o),
(40,130,cs),
(40,55,o),
(88,-12,o),
(203,-12,cs),
(264,-12,o),
(305,3,o),
(342,45,c),
(333,168,l),
(333,91,o),
(272,60,o),
(218,60,cs),
(166,60,o),
(122,82,o),
(122,132,cs),
(122,174,o),
(153,205,o),
(228,205,c),
(333,205,l),
(333,275,l)
);
},
{
closed = 1;
nodes = (
(420,0,l),
(421,311,ls),
(421,424,o),
(316,462,o),
(240,462,cs),
(176,462,o),
(72,428,o),
(64,319,c),
(146,319,l),
(154,374,o),
(199,388,o),
(240,388,cs),
(270,388,o),
(333,379,o),
(333,307,cs),
(333,56,l),
(342,44,l),
(352,0,l)
);
}
);
width = 483;
}
);
metricRight = "=n";
unicode = 97;
},
{
glyphname = b;
lastChange = "2025-11-15 17:09:45 +0000";
layers = (
{
background = {
anchors = (
{
name = bottom;
pos = (251,0);
},
{
name = center;
pos = (251,225);
},
{
name = ogonek;
pos = (441,10);
},
{
name = top;
pos = (251,450);
},
{
name = topright;
pos = (469,450);
}
);
shapes = (
{
closed = 1;
nodes = (
(136,63,o),
(116,138,o),
(130,201,cs),
(143,268,ls),
(161,364,o),
(222,387,o),
(270,387,cs),
(363,387,o),
(382,308,o),
(369,247,cs),
(356,180,ls),
(338,86,o),
(277,63,o),
(231,63,cs)
);
},
{
closed = 1;
nodes = (
(311,-12,o),
(414,31,o),
(441,171,cs),
(455,244,ls),
(479,369,o),
(394,462,o),
(273,462,cs),
(188,462,o),
(87,419,o),
(59,277,cs),
(46,210,ls),
(18,78,o),
(97,-12,o),
(227,-12,cs)
);
}
);
};
layerId = "1B8EDE0E-D46F-48F9-B9C6-2CD34FEA95FD";
shapes = (
{
closed = 1;
nodes = (
(85,0,l),
(113,40,l),
(232,658,l),
(144,658,l),
(17,0,l)
);
},
{
closed = 1;
nodes = (
(320,-12,o),
(414,31,o),
(440,171,cs),
(456,256,ls),
(480,385,o),
(380,462,o),
(301,462,cs),
(198,462,o),
(160,414,o),
(129,278,c),
(158,267,l),
(175,351,o),
(222,387,o),
(284,387,cs),
(331,387,o),
(387,341,o),
(371,256,cs),
(357,182,ls),
(337,79,o),
(269,63,o),
(222,63,cs),
(172,63,o),
(126,88,o),
(137,169,c),
(93,169,l),
(72,37,o),
(131,-12,o),
(208,-12,cs)
);
}
);
width = 504;
},
{
associatedMasterId = "1B8EDE0E-D46F-48F9-B9C6-2CD34FEA95FD";
layerId = "B4FF47CF-B400-4FB7-9F40-46C09C1EAA9F";
name = "Nov 14, 25 at 13:37";
shapes = (
{
closed = 1;
nodes = (
(130,0,l),
(150,40,l),
(150,658,l),
(62,658,l),
(62,0,l)
);
},
{
closed = 1;
nodes = (
(350,-12,o),
(452,36,o),
(452,192,cs),
(452,256,ls),
(452,413,o),
(348,462,o),
(271,462,cs),
(183,462,o),
(115,414,o),
(111,278,c),
(150,278,l),
(150,362,o),
(205,387,o),
(255,387,cs),
(302,387,o),
(367,362,o),
(367,256,cs),
(367,182,ls),
(367,79,o),
(302,63,o),
(255,63,cs),
(205,63,o),
(154,88,o),
(150,169,c),
(106,169,l),
(110,37,o),
(179,-12,o),
(266,-12,cs)
);
}
);
width = 487;
},
{
layerId = "37597A9B-137B-4040-B731-85284A6575D5";
shapes = (
{
closed = 1;
nodes = (
(130,0,l),
(150,40,l),
(150,658,l),
(62,658,l),
(62,0,l)
);
},
{
closed = 1;
nodes = (
(350,-12,o),
(452,36,o),
(452,192,cs),
(452,256,ls),
(452,413,o),
(348,462,o),
(271,462,cs),
(183,462,o),
(115,414,o),
(111,278,c),
(150,278,l),
(150,362,o),
(205,387,o),
(255,387,cs),
(302,387,o),
(367,362,o),
(367,256,cs),
(367,182,ls),
(367,79,o),
(302,63,o),
(255,63,cs),
(205,63,o),
(154,88,o),
(150,169,c),
(106,169,l),
(110,37,o),
(179,-12,o),
(266,-12,cs)
);
}
);
width = 487;
},
{
layerId = "4D009BB9-CCD0-4844-B12B-B6DC88771387";
shapes = (
{
closed = 1;
nodes = (
(130,0,l),
(150,40,l),
(150,658,l),
(62,658,l),
(62,0,l)
);
},
{
closed = 1;
nodes = (
(350,-12,o),
(452,36,o),
(452,192,cs),
(452,256,ls),
(452,413,o),
(348,462,o),
(271,462,cs),
(183,462,o),
(115,414,o),
(111,278,c),
(150,278,l),
(150,362,o),
(205,387,o),
(255,387,cs),
(302,387,o),
(367,362,o),
(367,256,cs),
(367,182,ls),
(367,79,o),
(302,63,o),
(255,63,cs),
(205,63,o),
(154,88,o),
(150,169,c),
(106,169,l),
(110,37,o),
(179,-12,o),
(266,-12,cs)
);
}
);
width = 487;
}
);
metricLeft = n;
unicode = 98;
},
{
glyphname = c;
lastChange = "2025-11-15 17:09:45 +0000";
layers = (
{
background = {
anchors = (
{
name = bottom;
pos = (239,0);
},
{
name = center;
pos = (239,225);
},
{
name = ogonek;
pos = (429,10);
},
{
name = top;
pos = (239,450);
},
{
name = topright;
pos = (457,450);
}
);
shapes = (
{
closed = 1;
nodes = (
(174,63,o),
(114,84,o),
(114,163,cs),
(114,174,o),
(115,187,o),
(118,201,cs),
(131,268,ls),
(149,364,o),
(210,387,o),
(258,387,cs),
(301,387,o),
(361,364,o),
(361,285,cs),
(361,273,o),
(360,261,o),
(357,247,cs),
(344,180,ls),
(326,86,o),
(265,63,o),
(219,63,cs)
);
},
{
closed = 1;
nodes = (
(299,-12,o),
(402,31,o),
(429,171,cs),
(442,239,ls),
(445,257,o),
(447,273,o),
(447,288,cs),
(447,400,o),
(361,462,o),
(261,462,cs),
(176,462,o),
(75,419,o),
(47,277,cs),
(34,210,ls),
(30,191,o),
(29,173,o),
(29,157,cs),
(29,32,o),
(130,-12,o),
(215,-12,cs)
);
}
);
};
layerId = "1B8EDE0E-D46F-48F9-B9C6-2CD34FEA95FD";
shapes = (
{
closed = 1;
nodes = (
(310,-12,o),
(386,41,o),
(409,149,c),
(327,149,l),
(311,88,o),
(273,63,o),
(219,63,cs),
(170,63,o),
(96,90,o),
(118,201,cs),
(131,268,ls),
(152,376,o),
(210,387,o),
(258,387,cs),
(301,387,o),
(362,360,o),
(351,288,c),
(436,288,l),
(457,411,o),
(342,462,o),
(261,462,cs),
(175,462,o),
(75,419,o),
(47,277,cs),
(34,210,ls),
(1,37,o),
(130,-12,o),
(215,-12,cs)
);
}
);
width = 461;
},
{
anchors = (
{
name = bottom;
pos = (234,0);
},
{
name = top;
pos = (234,450);
}
);
associatedMasterId = "1B8EDE0E-D46F-48F9-B9C6-2CD34FEA95FD";
layerId = "83663103-C91B-4581-A7FD-8D168A18DD28";
name = "Nov 14, 25 at 13:37";
shapes = (
{
closed = 1;
nodes = (
(334,-12,o),
(424,41,o),
(427,149,c),
(344,149,l),
(340,88,o),
(293,63,o),
(239,63,cs),
(190,63,o),
(126,88,o),
(125,192,cs),
(125,256,ls),
(126,361,o),
(190,387,o),
(239,387,cs),
(286,387,o),
(339,360,o),
(342,288,c),
(427,288,l),
(424,411,o),
(320,462,o),
(239,462,cs),
(149,462,o),
(41,414,o),
(40,256,cs),
(40,192,ls),
(41,37,o),
(149,-12,o),
(239,-12,cs)
);
}
);
width = 467;
},
{
anchors = (
{
name = bottom;
pos = (234,0);
},
{
name = top;
pos = (234,450);
}
);
layerId = "37597A9B-137B-4040-B731-85284A6575D5";
shapes = (
{
closed = 1;
nodes = (
(334,-12,o),
(424,41,o),
(427,149,c),
(344,149,l),
(340,88,o),
(293,63,o),
(239,63,cs),
(190,63,o),
(126,88,o),
(125,192,cs),
(125,256,ls),
(126,361,o),
(190,387,o),
(239,387,cs),
(286,387,o),
(339,360,o),
(342,288,c),
(427,288,l),
(424,411,o),
(320,462,o),
(239,462,cs),
(149,462,o),
(41,414,o),
(40,256,cs),
(40,192,ls),
(41,37,o),
(149,-12,o),
(239,-12,cs)
);
}
);
width = 467;
},
{
anchors = (
{
name = bottom;
pos = (234,0);
},
{
name = top;
pos = (234,450);
}
);
layerId = "4D009BB9-CCD0-4844-B12B-B6DC88771387";
shapes = (
{
closed = 1;
nodes = (
(334,-12,o),
(424,41,o),
(427,149,c),
(344,149,l),
(340,88,o),
(293,63,o),
(239,63,cs),
(190,63,o),
(126,88,o),
(125,192,cs),
(125,256,ls),
(126,361,o),
(190,387,o),
(239,387,cs),
(286,387,o),
(339,360,o),
(342,288,c),
(427,288,l),
(424,411,o),
(320,462,o),
(239,462,cs),
(149,462,o),
(41,414,o),
(40,256,cs),
(40,192,ls),
(41,37,o),
(149,-12,o),
(239,-12,cs)
);
}
);
width = 467;
}
);
metricLeft = "=o";
metricRight = "=|";
unicode = 99;
},
{
glyphname = d;
lastChange = "2025-11-15 17:09:45 +0000";
layers = (
{
background = {
shapes = (
{
closed = 1;
nodes = (
(140,63,o),
(120,138,o),
(134,201,cs),
(147,268,ls),
(165,364,o),
(226,387,o),
(274,387,cs),
(367,387,o),
(386,308,o),
(373,247,cs),
(360,180,ls),
(342,86,o),
(281,63,o),
(235,63,cs)
);
},
{
closed = 1;
nodes = (
(315,-12,o),
(418,31,o),
(445,171,cs),
(459,244,ls),
(483,369,o),
(398,462,o),
(277,462,cs),
(192,462,o),
(91,419,o),
(63,277,cs),
(50,210,ls),
(22,78,o),
(101,-12,o),
(231,-12,cs)
);
}
);
};
layerId = "1B8EDE0E-D46F-48F9-B9C6-2CD34FEA95FD";
shapes = (
{
closed = 1;
nodes = (
(395,0,l),
(522,658,l),
(434,658,l),
(315,40,l),
(326,0,l)
);
},
{
closed = 1;
nodes = (
(318,-12,o),
(364,82,o),
(383,169,c),
(340,169,l),
(321,89,o),
(286,63,o),
(235,63,cs),
(140,63,o),
(122,138,o),
(134,201,cs),
(147,268,ls),
(166,364,o),
(220,387,o),
(276,387,cs),
(327,387,o),
(378,362,o),
(361,278,c),
(398,278,l),
(421,412,o),
(347,462,o),
(277,462,cs),
(192,462,o),
(91,419,o),
(63,277,cs),
(50,210,ls),
(24,78,o),
(101,-12,o),
(211,-12,cs)
);
}
);
width = 499;
},
{
associatedMasterId = "1B8EDE0E-D46F-48F9-B9C6-2CD34FEA95FD";
background = {
shapes = (
{
closed = 1;
nodes = (
(308,-12,o),
(377,37,o),
(381,169,c),
(337,169,l),
(333,88,o),
(282,63,o),
(232,63,cs),
(185,63,o),
(120,79,o),
(120,182,cs),
(120,256,ls),
(120,362,o),
(185,387,o),
(232,387,cs),
(282,387,o),
(333,362,o),
(337,278,c),
(376,278,l),
(372,414,o),
(304,462,o),
(216,462,cs),
(139,462,o),
(35,413,o),
(35,256,cs),
(35,192,ls),
(35,36,o),
(137,-12,o),
(221,-12,cs)
);
}
);
};
layerId = "665ACB89-C18D-45E7-8CB3-05F4A1D08BBC";
name = "Nov 14, 25 at 13:37";
shapes = (
{
closed = 1;
nodes = (
(424,0,l),
(424,658,l),
(336,658,l),
(336,40,l),
(355,0,l)
);
},
{
closed = 1;
nodes = (
(307,-12,o),
(376,37,o),
(380,169,c),
(336,169,l),
(332,89,o),
(281,63,o),
(230,63,cs),
(184,63,o),
(120,79,o),
(120,182,cs),
(120,256,ls),
(120,362,o),
(185,387,o),
(231,387,cs),
(282,387,o),
(336,362,o),
(336,278,c),
(374,278,l),
(371,412,o),
(304,462,o),
(217,462,cs),
(139,462,o),
(35,413,o),
(35,256,cs),
(35,192,ls),
(36,35,o),
(136,-12,o),
(220,-12,cs)
);
}
);
width = 486;
},
{
background = {
shapes = (
{
closed = 1;
nodes = (
(308,-12,o),
(377,37,o),
(381,169,c),
(337,169,l),
(333,88,o),
(282,63,o),
(232,63,cs),
(185,63,o),
(120,79,o),
(120,182,cs),
(120,256,ls),
(120,362,o),
(185,387,o),
(232,387,cs),
(282,387,o),
(333,362,o),
(337,278,c),
(376,278,l),
(372,414,o),
(304,462,o),
(216,462,cs),
(139,462,o),
(35,413,o),
(35,256,cs),
(35,192,ls),
(35,36,o),
(137,-12,o),
(221,-12,cs)
);
}
);
};
layerId = "37597A9B-137B-4040-B731-85284A6575D5";
shapes = (
{
closed = 1;
nodes = (
(424,0,l),
(424,658,l),
(336,658,l),
(336,40,l),
(355,0,l)
);
},
{
closed = 1;
nodes = (
(307,-12,o),
(376,37,o),
(380,169,c),
(336,169,l),
(332,89,o),
(281,63,o),
(230,63,cs),
(184,63,o),
(120,79,o),
(120,182,cs),
(120,256,ls),
(120,362,o),
(185,387,o),
(231,387,cs),
(282,387,o),
(336,362,o),
(336,278,c),
(374,278,l),
(371,412,o),
(304,462,o),
(217,462,cs),
(139,462,o),
(35,413,o),
(35,256,cs),
(35,192,ls),
(36,35,o),
(136,-12,o),
(220,-12,cs)
);
}
);
width = 486;
},
{
background = {
shapes = (
{
closed = 1;
nodes = (
(308,-12,o),
(377,37,o),
(381,169,c),
(337,169,l),
(333,88,o),
(282,63,o),
(232,63,cs),
(185,63,o),
(120,79,o),
(120,182,cs),
(120,256,ls),
(120,362,o),
(185,387,o),
(232,387,cs),
(282,387,o),
(333,362,o),
(337,278,c),
(376,278,l),
(372,414,o),
(304,462,o),
(216,462,cs),
(139,462,o),
(35,413,o),
(35,256,cs),
(35,192,ls),
(35,36,o),
(137,-12,o),
(221,-12,cs)
);
}
);
};
layerId = "4D009BB9-CCD0-4844-B12B-B6DC88771387";
shapes = (
{
closed = 1;
nodes = (
(424,0,l),
(424,658,l),
(336,658,l),
(336,40,l),
(355,0,l)
);
},
{
closed = 1;
nodes = (
(307,-12,o),
(376,37,o),
(380,169,c),
(336,169,l),
(332,89,o),
(281,63,o),
(230,63,cs),
(184,63,o),
(120,79,o),
(120,182,cs),
(120,256,ls),
(120,362,o),
(185,387,o),
(231,387,cs),
(282,387,o),
(336,362,o),
(336,278,c),
(374,278,l),
(371,412,o),
(304,462,o),
(217,462,cs),
(139,462,o),
(35,413,o),
(35,256,cs),
(35,192,ls),
(36,35,o),
(136,-12,o),
(220,-12,cs)
);
}
);
width = 486;
}
);
metricLeft = "=|b";
metricRight = "=|b";
unicode = 100;
},
{
glyphname = e;
lastChange = "2025-11-15 17:09:45 +0000";
layers = (
{
anchors = (
{
name = bottom;
pos = (246,0);
},
{
name = ogonek;
pos = (436,10);
},
{
name = top;
pos = (246,450);
}
);
background = {
anchors = (
{
name = bottom;
pos = (246,0);
},
{
name = ogonek;
pos = (436,10);
},
{
name = top;
pos = (246,450);
}
);
shapes = (
{
closed = 1;
nodes = (
(443,186,l),
(443,252,l),
(408,254,l),
(124,254,l),
(124,186,l)
);
},
{
closed = 1;
nodes = (
(359,-12,o),
(435,50,o),
(440,134,c),
(357,134,l),
(351,87,o),
(301,63,o),
(254,63,cs),
(198,63,o),
(133,86,o),
(133,192,cs),
(133,256,ls),
(134,361,o),
(198,387,o),
(247,387,cs),
(300,387,o),
(358,356,o),
(358,252,c),
(443,252,l),
(442,408,o),
(333,462,o),
(247,462,cs),
(157,462,o),
(49,414,o),
(48,256,cs),
(48,192,ls),
(49,37,o),
(157,-12,o),
(254,-12,cs)
);
}
);
};
layerId = "1B8EDE0E-D46F-48F9-B9C6-2CD34FEA95FD";
shapes = (
{
closed = 1;
nodes = (
(443,186,l),
(443,252,l),
(408,254,l),
(124,254,l),
(124,186,l)
);
},
{
closed = 1;
nodes = (
(359,-12,o),
(435,50,o),
(440,134,c),
(357,134,l),
(351,87,o),
(301,63,o),
(254,63,cs),
(198,63,o),
(133,86,o),
(133,192,cs),
(133,256,ls),
(134,361,o),
(198,387,o),
(247,387,cs),
(300,387,o),
(358,356,o),
(358,252,c),
(443,252,l),
(442,408,o),
(333,462,o),
(247,462,cs),
(157,462,o),
(49,414,o),
(48,256,cs),
(48,192,ls),
(49,37,o),
(157,-12,o),
(254,-12,cs)
);
}
);
width = 496;
},
{
anchors = (
{
name = bottom;
pos = (238,0);
},
{
name = ogonek;
pos = (428,10);
},
{
name = top;
pos = (238,450);
}
);
associatedMasterId = "1B8EDE0E-D46F-48F9-B9C6-2CD34FEA95FD";
layerId = "5C981AEE-6A72-4F3D-8A4D-3D39C3C1723A";
name = "Nov 14, 25 at 13:37";
shapes = (
{
closed = 1;
nodes = (
(435,186,l),
(435,252,l),
(400,254,l),
(116,254,l),
(116,186,l)
);
},
{
closed = 1;
nodes = (
(351,-12,o),
(427,50,o),
(432,134,c),
(349,134,l),
(343,87,o),
(293,63,o),
(246,63,cs),
(190,63,o),
(125,86,o),
(125,192,cs),
(125,256,ls),
(126,361,o),
(190,387,o),
(239,387,cs),
(292,387,o),
(350,356,o),
(350,252,c),
(435,252,l),
(434,408,o),
(325,462,o),
(239,462,cs),
(149,462,o),
(41,414,o),
(40,256,cs),
(40,192,ls),
(41,37,o),
(149,-12,o),
(246,-12,cs)
);
}
);
width = 475;
},
{
anchors = (
{
name = bottom;
pos = (238,0);
},
{
name = ogonek;
pos = (428,10);
},
{
name = top;
pos = (238,450);
}
);
layerId = "37597A9B-137B-4040-B731-85284A6575D5";
shapes = (
{
closed = 1;
nodes = (
(435,186,l),
(435,252,l),
(400,254,l),
(116,254,l),
(116,186,l)
);
},
{
closed = 1;
nodes = (
(351,-12,o),
(427,50,o),
(432,134,c),
(349,134,l),
(343,87,o),
(293,63,o),
(246,63,cs),
(190,63,o),
(125,86,o),
(125,192,cs),
(125,256,ls),
(126,361,o),
(190,387,o),
(239,387,cs),
(292,387,o),
(350,356,o),
(350,252,c),
(435,252,l),
(434,408,o),
(325,462,o),
(239,462,cs),
(149,462,o),
(41,414,o),
(40,256,cs),
(40,192,ls),
(41,37,o),
(149,-12,o),
(246,-12,cs)
);
}
);
width = 475;
},
{
anchors = (
{
name = bottom;
pos = (238,0);
},
{
name = ogonek;
pos = (428,10);
},
{
name = top;
pos = (238,450);
}
);
layerId = "4D009BB9-CCD0-4844-B12B-B6DC88771387";
shapes = (
{
closed = 1;
nodes = (
(435,186,l),
(435,252,l),
(400,254,l),
(116,254,l),
(116,186,l)
);
},
{
closed = 1;
nodes = (
(351,-12,o),
(427,50,o),
(432,134,c),
(349,134,l),
(343,87,o),
(293,63,o),
(246,63,cs),
(190,63,o),
(125,86,o),
(125,192,cs),
(125,256,ls),
(126,361,o),
(190,387,o),
(239,387,cs),
(292,387,o),
(350,356,o),
(350,252,c),
(435,252,l),
(434,408,o),
(325,462,o),
(239,462,cs),
(149,462,o),
(41,414,o),
(40,256,cs),
(40,192,ls),
(41,37,o),
(149,-12,o),
(246,-12,cs)
);
}
);
width = 475;
}
);
metricLeft = o;
metricRight = "=o";
unicode = 101;
},
{
glyphname = f;
lastChange = "2025-11-15 17:09:45 +0000";
layers = (
{
anchors = (
{
name = bottom;
pos = (161,0);
},
{
name = top;
pos = (161,685);
}
);
background = {
anchors = (
{
name = bottom;
pos = (161,0);
},
{
name = top;
pos = (161,685);
}
);
shapes = (
{
closed = 1;
nodes = (
(188,-2,l),
(188,377,l),
(304,377,l),
(304,450,l),
(187,450,l),
(187,558,ls),
(187,588,o),
(201,605,o),
(233,605,cs),
(304,605,l),
(304,680,l),
(217,680,ls),
(149,680,o),
(98,636,o),
(98,559,cs),
(98,450,l),
(32,450,l),
(32,377,l),
(99,377,l),
(99,-2,l)
);
}
);
};
layerId = "1B8EDE0E-D46F-48F9-B9C6-2CD34FEA95FD";
shapes = (
{
closed = 1;
nodes = (
(122,-2,l),
(195,377,l),
(311,377,l),
(325,450,l),
(208,450,l),
(229,558,ls),
(235,588,o),
(252,605,o),
(284,605,cs),
(355,605,l),
(370,680,l),
(283,680,ls),
(214,680,o),
(155,636,o),
(140,559,cs),
(119,450,l),
(53,450,l),
(39,377,l),
(106,377,l),
(33,-2,l)
);
}
);
width = 323;
},
{
anchors = (
{
name = bottom;
pos = (161,0);
},
{
name = top;
pos = (161,685);
}
);
associatedMasterId = "1B8EDE0E-D46F-48F9-B9C6-2CD34FEA95FD";
layerId = "E7E34776-8D8D-447B-86BC-7A47E8638D64";
name = "Nov 14, 25 at 13:37";
shapes = (
{
closed = 1;
nodes = (
(188,-2,l),
(188,377,l),
(304,377,l),
(304,450,l),
(187,450,l),
(187,558,ls),
(187,588,o),
(201,605,o),
(233,605,cs),
(304,605,l),
(304,680,l),
(217,680,ls),
(149,680,o),
(98,636,o),
(98,559,cs),
(98,450,l),
(32,450,l),
(32,377,l),
(99,377,l),
(99,-2,l)
);
}
);
width = 323;
},
{
anchors = (
{
name = bottom;
pos = (161,0);
},
{
name = top;
pos = (161,685);
}
);
layerId = "37597A9B-137B-4040-B731-85284A6575D5";
shapes = (
{
closed = 1;
nodes = (
(188,-2,l),
(188,377,l),
(304,377,l),
(304,450,l),
(187,450,l),
(187,558,ls),
(187,588,o),
(201,605,o),
(233,605,cs),
(304,605,l),
(304,680,l),
(217,680,ls),
(149,680,o),
(98,636,o),
(98,559,cs),
(98,450,l),
(32,450,l),
(32,377,l),
(99,377,l),
(99,-2,l)
);
}
);
width = 323;
},
{
anchors = (
{
name = bottom;
pos = (161,0);
},
{
name = top;
pos = (161,685);
}
);
layerId = "4D009BB9-CCD0-4844-B12B-B6DC88771387";
shapes = (
{
closed = 1;
nodes = (
(188,-2,l),
(188,377,l),
(304,377,l),
(304,450,l),
(187,450,l),
(187,558,ls),
(187,588,o),
(201,605,o),
(233,605,cs),
(304,605,l),
(304,680,l),
(217,680,ls),
(149,680,o),
(98,636,o),
(98,559,cs),
(98,450,l),
(32,450,l),
(32,377,l),
(99,377,l),
(99,-2,l)
);
}
);
width = 323;
}
);
unicode = 102;
},
{
glyphname = g;
lastChange = "2025-11-15 17:09:45 +0000";
layers = (
{
background = {
shapes = (
{
closed = 1;
nodes = (
(329,141,o),
(413,180,o),
(413,303,cs),
(413,424,o),
(323,466,o),
(236,466,cs),
(149,466,o),
(59,419,o),
(59,303,cs),
(59,180,o),
(144,141,o),
(236,141,cs)
);
},
{
closed = 1;
nodes = (
(175,209,o),
(140,238,o),
(140,304,cs),
(140,359,o),
(175,398,o),
(236,398,cs),
(297,398,o),
(332,359,o),
(332,304,cs),
(332,238,o),
(297,209,o),
(236,209,cs)
);
},
{
closed = 1;
nodes = (
(286,12,l),
(286,71,l),
(204,71,ls),
(151,71,o),
(112,87,o),
(112,117,cs),
(112,156,o),
(144,179,o),
(167,193,c),
(120,243,l),
(70,206,o),
(34,162,o),
(34,116,cs),
(34,69,o),
(71,23,o),
(176,17,cs)
);
},
{
closed = 1;
nodes = (
(283,-200,ls),
(407,-200,o),
(453,-133,o),
(453,-66,cs),
(453,9,o),
(407,72,o),
(283,72,cs),
(193,72,ls),
(76,72,o),
(23,9,o),
(23,-66,cs),
(23,-133,o),
(69,-200,o),
(193,-200,cs)
);
},
{
closed = 1;
nodes = (
(135,-130,o),
(101,-107,o),
(101,-64,cs),
(101,-14,o),
(135,2,o),
(187,2,cs),
(288,2,ls),
(341,2,o),
(375,-22,o),
(375,-64,cs),
(375,-99,o),
(341,-130,o),
(288,-130,cs),
(187,-130,ls)
);
},
{
closed = 1;
nodes = (
(375,385,l),
(375,414,o),
(383,432,o),
(441,432,c),
(441,448,l),
(441,495,l),
(441,504,l),
(346,504,o),
(308,445,o),
(308,385,c)
);
}
);
};
layerId = "1B8EDE0E-D46F-48F9-B9C6-2CD34FEA95FD";
shapes = (
{
closed = 1;
nodes = (
(329,141,o),
(413,180,o),
(413,303,cs),
(413,424,o),
(323,466,o),
(236,466,cs),
(149,466,o),
(59,419,o),
(59,303,cs),
(59,180,o),
(144,141,o),
(236,141,cs)
);
},
{
closed = 1;
nodes = (
(175,209,o),
(140,238,o),
(140,304,cs),
(140,359,o),
(175,398,o),
(236,398,cs),
(297,398,o),
(332,359,o),
(332,304,cs),
(332,238,o),
(297,209,o),
(236,209,cs)
);
},
{
closed = 1;
nodes = (
(286,12,l),
(286,71,l),
(204,71,ls),
(151,71,o),
(112,87,o),
(112,117,cs),
(112,156,o),
(144,179,o),
(167,193,c),
(120,243,l),
(70,206,o),
(34,162,o),
(34,116,cs),
(34,69,o),
(71,23,o),
(176,17,cs)
);
},
{
closed = 1;
nodes = (
(283,-200,ls),
(407,-200,o),
(453,-133,o),
(453,-66,cs),
(453,9,o),
(407,72,o),
(283,72,cs),
(193,72,ls),
(76,72,o),
(23,9,o),
(23,-66,cs),
(23,-133,o),
(69,-200,o),
(193,-200,cs)
);
},
{
closed = 1;
nodes = (
(135,-130,o),
(101,-107,o),
(101,-64,cs),
(101,-14,o),
(135,2,o),
(187,2,cs),
(288,2,ls),
(341,2,o),
(375,-22,o),
(375,-64,cs),
(375,-99,o),
(341,-130,o),
(288,-130,cs),
(187,-130,ls)
);
},
{
closed = 1;
nodes = (
(375,385,l),
(375,414,o),
(383,432,o),
(441,432,c),
(441,448,l),
(441,495,l),
(441,504,l),
(346,504,o),
(308,445,o),
(308,385,c)
);
}
);
width = 498;
},
{
associatedMasterId = "1B8EDE0E-D46F-48F9-B9C6-2CD34FEA95FD";
layerId = "EB05142C-98D4-4C59-89EA-598445D1F06B";
name = "Nov 14, 25 at 13:37";
shapes = (
{
closed = 1;
nodes = (
(348,141,o),
(432,180,o),
(432,303,cs),
(432,424,o),
(342,466,o),
(255,466,cs),
(168,466,o),
(78,419,o),
(78,303,cs),
(78,180,o),
(163,141,o),
(255,141,cs)
);
},
{
closed = 1;
nodes = (
(194,209,o),
(159,238,o),
(159,304,cs),
(159,359,o),
(194,398,o),
(255,398,cs),
(316,398,o),
(351,359,o),
(351,304,cs),
(351,238,o),
(316,209,o),
(255,209,cs)
);
},
{
closed = 1;
nodes = (
(305,12,l),
(305,71,l),
(223,71,ls),
(170,71,o),
(131,87,o),
(131,117,cs),
(131,156,o),
(163,179,o),
(186,193,c),
(139,243,l),
(89,206,o),
(53,162,o),
(53,116,cs),
(53,69,o),
(90,23,o),
(195,17,cs)
);
},
{
closed = 1;
nodes = (
(302,-200,ls),
(426,-200,o),
(472,-133,o),
(472,-66,cs),
(472,9,o),
(426,72,o),
(302,72,cs),
(212,72,ls),
(95,72,o),
(42,9,o),
(42,-66,cs),
(42,-133,o),
(88,-200,o),
(212,-200,cs)
);
},
{
closed = 1;
nodes = (
(154,-130,o),
(120,-107,o),
(120,-64,cs),
(120,-14,o),
(154,2,o),
(206,2,cs),
(307,2,ls),
(360,2,o),
(394,-22,o),
(394,-64,cs),
(394,-99,o),
(360,-130,o),
(307,-130,cs),
(206,-130,ls)
);
},
{
closed = 1;
nodes = (
(394,385,l),
(394,414,o),
(402,432,o),
(460,432,c),
(460,448,l),
(460,495,l),
(460,504,l),
(365,504,o),
(327,445,o),
(327,385,c)
);
}
);
width = 517;
},
{
layerId = "37597A9B-137B-4040-B731-85284A6575D5";
shapes = (
{
closed = 1;
nodes = (
(348,141,o),
(432,180,o),
(432,303,cs),
(432,424,o),
(342,466,o),
(255,466,cs),
(168,466,o),
(78,419,o),
(78,303,cs),
(78,180,o),
(163,141,o),
(255,141,cs)
);
},
{
closed = 1;
nodes = (
(194,209,o),
(159,238,o),
(159,304,cs),
(159,359,o),
(194,398,o),
(255,398,cs),
(316,398,o),
(351,359,o),
(351,304,cs),
(351,238,o),
(316,209,o),
(255,209,cs)
);
},
{
closed = 1;
nodes = (
(305,12,l),
(305,71,l),
(223,71,ls),
(170,71,o),
(131,87,o),
(131,117,cs),
(131,156,o),
(163,179,o),
(186,193,c),
(139,243,l),
(89,206,o),
(53,162,o),
(53,116,cs),
(53,69,o),
(90,23,o),
(195,17,cs)
);
},
{
closed = 1;
nodes = (
(302,-200,ls),
(426,-200,o),
(472,-133,o),
(472,-66,cs),
(472,9,o),
(426,72,o),
(302,72,cs),
(212,72,ls),
(95,72,o),
(42,9,o),
(42,-66,cs),
(42,-133,o),
(88,-200,o),
(212,-200,cs)
);
},
{
closed = 1;
nodes = (
(154,-130,o),
(120,-107,o),
(120,-64,cs),
(120,-14,o),
(154,2,o),
(206,2,cs),
(307,2,ls),
(360,2,o),
(394,-22,o),
(394,-64,cs),
(394,-99,o),
(360,-130,o),
(307,-130,cs),
(206,-130,ls)
);
},
{
closed = 1;
nodes = (
(394,385,l),
(394,414,o),
(402,432,o),
(460,432,c),
(460,448,l),
(460,495,l),
(460,504,l),
(365,504,o),
(327,445,o),
(327,385,c)
);
}
);
width = 517;
},
{
layerId = "4D009BB9-CCD0-4844-B12B-B6DC88771387";
shapes = (
{
closed = 1;
nodes = (
(348,141,o),
(432,180,o),
(432,303,cs),
(432,424,o),
(342,466,o),
(255,466,cs),
(168,466,o),
(78,419,o),
(78,303,cs),
(78,180,o),
(163,141,o),
(255,141,cs)
);
},
{
closed = 1;
nodes = (
(194,209,o),
(159,238,o),
(159,304,cs),
(159,359,o),
(194,398,o),
(255,398,cs),
(316,398,o),
(351,359,o),
(351,304,cs),
(351,238,o),
(316,209,o),
(255,209,cs)
);
},
{
closed = 1;
nodes = (
(305,12,l),
(305,71,l),
(223,71,ls),
(170,71,o),
(131,87,o),
(131,117,cs),
(131,156,o),
(163,179,o),
(186,193,c),
(139,243,l),
(89,206,o),
(53,162,o),
(53,116,cs),
(53,69,o),
(90,23,o),
(195,17,cs)
);
},
{
closed = 1;
nodes = (
(302,-200,ls),
(426,-200,o),
(472,-133,o),
(472,-66,cs),
(472,9,o),
(426,72,o),
(302,72,cs),
(212,72,ls),
(95,72,o),
(42,9,o),
(42,-66,cs),
(42,-133,o),
(88,-200,o),
(212,-200,cs)
);
},
{
closed = 1;
nodes = (
(154,-130,o),
(120,-107,o),
(120,-64,cs),
(120,-14,o),
(154,2,o),
(206,2,cs),
(307,2,ls),
(360,2,o),
(394,-22,o),
(394,-64,cs),
(394,-99,o),
(360,-130,o),
(307,-130,cs),
(206,-130,ls)
);
},
{
closed = 1;
nodes = (
(394,385,l),
(394,414,o),
(402,432,o),
(460,432,c),
(460,448,l),
(460,495,l),
(460,504,l),
(365,504,o),
(327,445,o),
(327,385,c)
);
}
);
width = 517;
}
);
metricLeft = "=n-20";
unicode = 103;
},
{
glyphname = h;
lastChange = "2025-11-15 17:09:45 +0000";
layers = (
{
background = {
shapes = (
{
closed = 1;
nodes = (
(170,0,l),
(170,667,l),
(82,667,l),
(82,0,l)
);
},
{
closed = 1;
nodes = (
(170,263,l),
(173,340,o),
(217,388,o),
(277,388,cs),
(337,388,o),
(384,357,o),
(384,263,cs),
(384,0,l),
(469,0,l),
(469,265,ls),
(469,414,o),
(376,463,o),
(287,463,cs),
(185,463,o),
(132,393,o),
(132,263,c)
);
}
);
};
layerId = "1B8EDE0E-D46F-48F9-B9C6-2CD34FEA95FD";
shapes = (
{
closed = 1;
nodes = (
(106,0,l),
(234,667,l),
(146,667,l),
(18,0,l)
);
},
{
closed = 1;
nodes = (
(156,263,l),
(175,357,o),
(227,388,o),
(287,388,cs),
(347,388,o),
(389,357,o),
(370,263,cs),
(320,0,l),
(405,0,l),
(456,265,ls),
(486,418,o),
(388,463,o),
(312,463,cs),
(210,463,o),
(143,393,o),
(118,263,c)
);
}
);
width = 499;
},
{
associatedMasterId = "1B8EDE0E-D46F-48F9-B9C6-2CD34FEA95FD";
layerId = "1D9F8932-FF1C-4488-AECF-01160163DE0F";
name = "Nov 14, 25 at 13:37";
shapes = (
{
closed = 1;
nodes = (
(150,0,l),
(150,667,l),
(62,667,l),
(62,0,l)
);
},
{
closed = 1;
nodes = (
(150,263,l),
(153,340,o),
(197,388,o),
(257,388,cs),
(317,388,o),
(364,357,o),
(364,263,cs),
(364,0,l),
(449,0,l),
(449,265,ls),
(449,414,o),
(356,463,o),
(267,463,cs),
(165,463,o),
(112,393,o),
(112,263,c)
);
}
);
width = 501;
},
{
layerId = "37597A9B-137B-4040-B731-85284A6575D5";
shapes = (
{
closed = 1;
nodes = (
(150,0,l),
(150,667,l),
(62,667,l),
(62,0,l)
);
},
{
closed = 1;
nodes = (
(150,263,l),
(153,340,o),
(197,388,o),
(257,388,cs),
(317,388,o),
(364,357,o),
(364,263,cs),
(364,0,l),
(449,0,l),
(449,265,ls),
(449,414,o),
(356,463,o),
(267,463,cs),
(165,463,o),
(112,393,o),
(112,263,c)
);
}
);
width = 501;
},
{
layerId = "4D009BB9-CCD0-4844-B12B-B6DC88771387";
shapes = (
{
closed = 1;
nodes = (
(150,0,l),
(150,667,l),
(62,667,l),
(62,0,l)
);
},
{
closed = 1;
nodes = (
(150,263,l),
(153,340,o),
(197,388,o),
(257,388,cs),
(317,388,o),
(364,357,o),
(364,263,cs),
(364,0,l),
(449,0,l),
(449,265,ls),
(449,414,o),
(356,463,o),
(267,463,cs),
(165,463,o),
(112,393,o),
(112,263,c)
);
}
);
width = 501;
}
);
metricLeft = n;
metricRight = "=n-10";
unicode = 104;
},
{
glyphname = i;
lastChange = "2025-11-15 17:09:45 +0000";
layers = (
{
anchors = (
{
name = bottom;
pos = (80,0);
}
);
background = {
anchors = (
{
name = bottom;
pos = (142,0);
}
);
shapes = (
{
closed = 1;
nodes = (
(227,0,l),
(227,79,l),
(213,79,ls),
(183,79,o),
(165,96,o),
(165,129,c),
(166,450,l),
(79,450,l),
(78,136,l),
(78,38,o),
(134,0,o),
(208,0,cs)
);
},
{
closed = 1;
nodes = (
(157,533,o),
(177,553,o),
(177,588,cs),
(177,623,o),
(157,643,o),
(121,643,cs),
(85,643,o),
(66,623,o),
(66,588,cs),
(66,553,o),
(85,533,o),
(121,533,cs)
);
}
);
};
layerId = "1B8EDE0E-D46F-48F9-B9C6-2CD34FEA95FD";
shapes = (
{
closed = 1;
nodes = (
(165,0,l),
(180,79,l),
(166,79,ls),
(136,79,o),
(122,96,o),
(128,129,c),
(191,450,l),
(104,450,l),
(42,136,l),
(23,38,o),
(72,0,o),
(146,0,cs)
);
},
{
closed = 1;
nodes = (
(198,533,o),
(222,553,o),
(228,588,cs),
(235,623,o),
(219,643,o),
(183,643,cs),
(147,643,o),
(124,623,o),
(117,588,cs),
(111,553,o),
(126,533,o),
(162,533,cs)
);
}
);
width = 245;
},
{
anchors = (
{
name = bottom;
pos = (124,0);
}
);
associatedMasterId = "1B8EDE0E-D46F-48F9-B9C6-2CD34FEA95FD";
layerId = "10A882DE-0DE1-4158-8B8D-71B55071388B";
name = "Nov 14, 25 at 13:37";
shapes = (
{
closed = 1;
nodes = (
(209,0,l),
(209,79,l),
(195,79,ls),
(165,79,o),
(147,96,o),
(147,129,c),
(148,450,l),
(61,450,l),
(60,136,l),
(60,38,o),
(116,0,o),
(190,0,cs)
);
},
{
closed = 1;
nodes = (
(139,533,o),
(159,553,o),
(159,588,cs),
(159,623,o),
(139,643,o),
(103,643,cs),
(67,643,o),
(48,623,o),
(48,588,cs),
(48,553,o),
(67,533,o),
(103,533,cs)
);
}
);
width = 227;
},
{
anchors = (
{
name = bottom;
pos = (124,0);
}
);
layerId = "37597A9B-137B-4040-B731-85284A6575D5";
shapes = (
{
closed = 1;
nodes = (
(209,0,l),
(209,79,l),
(195,79,ls),
(165,79,o),
(147,96,o),
(147,129,c),
(148,450,l),
(61,450,l),
(60,136,l),
(60,38,o),
(116,0,o),
(190,0,cs)
);
},
{
closed = 1;
nodes = (
(139,533,o),
(159,553,o),
(159,588,cs),
(159,623,o),
(139,643,o),
(103,643,cs),
(67,643,o),
(48,623,o),
(48,588,cs),
(48,553,o),
(67,533,o),
(103,533,cs)
);
}
);
width = 227;
},
{
anchors = (
{
name = bottom;
pos = (124,0);
}
);
layerId = "4D009BB9-CCD0-4844-B12B-B6DC88771387";
shapes = (
{
closed = 1;
nodes = (
(209,0,l),
(209,79,l),
(195,79,ls),
(165,79,o),
(147,96,o),
(147,129,c),
(148,450,l),
(61,450,l),
(60,136,l),
(60,38,o),
(116,0,o),
(190,0,cs)
);
},
{
closed = 1;
nodes = (
(139,533,o),
(159,553,o),
(159,588,cs),
(159,623,o),
(139,643,o),
(103,643,cs),
(67,643,o),
(48,623,o),
(48,588,cs),
(48,553,o),
(67,533,o),
(103,533,cs)
);
}
);
width = 227;
}
);
metricLeft = "=n-14";
unicode = 105;
},
{
glyphname = idotless;
lastChange = "2025-11-15 17:09:45 +0000";
layers = (
{
anchors = (
{
name = bottom;
pos = (105,0);
},
{
name = ogonek;
pos = (209,0);
},
{
name = top;
pos = (102,450);
}
);
layerId = "1B8EDE0E-D46F-48F9-B9C6-2CD34FEA95FD";
shapes = (
{
closed = 1;
nodes = (
(209,0,l),
(209,79,l),
(195,79,ls),
(165,79,o),
(147,96,o),
(147,129,c),
(148,450,l),
(61,450,l),
(60,136,l),
(60,38,o),
(116,0,o),
(190,0,cs)
);
}
);
width = 209;
},
{
anchors = (
{
name = bottom;
pos = (105,0);
},
{
name = ogonek;
pos = (209,0);
},
{
name = top;
pos = (102,450);
}
);
layerId = "37597A9B-137B-4040-B731-85284A6575D5";
shapes = (
{
closed = 1;
nodes = (
(209,0,l),
(209,79,l),
(195,79,ls),
(165,79,o),
(147,96,o),
(147,129,c),
(148,450,l),
(61,450,l),
(60,136,l),
(60,38,o),
(116,0,o),
(190,0,cs)
);
}
);
width = 209;
},
{
anchors = (
{
name = bottom;
pos = (105,0);
},
{
name = ogonek;
pos = (209,0);
},
{
name = top;
pos = (102,450);
}
);
layerId = "4D009BB9-CCD0-4844-B12B-B6DC88771387";
shapes = (
{
closed = 1;
nodes = (
(209,0,l),
(209,79,l),
(195,79,ls),
(165,79,o),
(147,96,o),
(147,129,c),
(148,450,l),
(61,450,l),
(60,136,l),
(60,38,o),
(116,0,o),
(190,0,cs)
);
}
);
width = 209;
}
);
unicode = 305;
},
{
glyphname = j;
lastChange = "2025-11-15 17:09:45 +0000";
layers = (
{
background = {
shapes = (
{
closed = 1;
nodes = (
(101,-200,o),
(148,-174,o),
(148,-67,c),
(147,446,l),
(59,446,l),
(60,-67,l),
(60,-100,o),
(44,-119,o),
(10,-119,cs),
(-30,-119,l),
(-30,-200,l),
(17,-200,ls)
);
},
{
closed = 1;
nodes = (
(139,533,o),
(159,553,o),
(159,588,cs),
(159,623,o),
(139,643,o),
(103,643,cs),
(67,643,o),
(48,623,o),
(48,588,cs),
(48,553,o),
(67,533,o),
(103,533,cs)
);
}
);
};
layerId = "1B8EDE0E-D46F-48F9-B9C6-2CD34FEA95FD";
shapes = (
{
closed = 1;
nodes = (
(20,-200,o),
(72,-174,o),
(92,-67,c),
(190,446,l),
(102,446,l),
(4,-67,l),
(-2,-100,o),
(-22,-119,o),
(-56,-119,cs),
(-96,-119,l),
(-111,-200,l),
(-64,-200,ls)
);
},
{
closed = 1;
nodes = (
(199,533,o),
(223,553,o),
(230,588,cs),
(236,623,o),
(220,643,o),
(184,643,cs),
(148,643,o),
(125,623,o),
(119,588,cs),
(112,553,o),
(127,533,o),
(163,533,cs)
);
}
);
width = 205;
},
{
associatedMasterId = "1B8EDE0E-D46F-48F9-B9C6-2CD34FEA95FD";
layerId = "7991B1EE-D21E-4793-9B28-4D4C57B10503";
name = "Nov 14, 25 at 13:37";
shapes = (
{
closed = 1;
nodes = (
(101,-200,o),
(148,-174,o),
(148,-67,c),
(147,446,l),
(59,446,l),
(60,-67,l),
(60,-100,o),
(44,-119,o),
(10,-119,cs),
(-30,-119,l),
(-30,-200,l),
(17,-200,ls)
);
},
{
closed = 1;
nodes = (
(139,533,o),
(159,553,o),
(159,588,cs),
(159,623,o),
(139,643,o),
(103,643,cs),
(67,643,o),
(48,623,o),
(48,588,cs),
(48,553,o),
(67,533,o),
(103,533,cs)
);
}
);
width = 207;
},
{
layerId = "37597A9B-137B-4040-B731-85284A6575D5";
shapes = (
{
closed = 1;
nodes = (
(101,-200,o),
(148,-174,o),
(148,-67,c),
(147,446,l),
(59,446,l),
(60,-67,l),
(60,-100,o),
(44,-119,o),
(10,-119,cs),
(-30,-119,l),
(-30,-200,l),
(17,-200,ls)
);
},
{
closed = 1;
nodes = (
(139,533,o),
(159,553,o),
(159,588,cs),
(159,623,o),
(139,643,o),
(103,643,cs),
(67,643,o),
(48,623,o),
(48,588,cs),
(48,553,o),
(67,533,o),
(103,533,cs)
);
}
);
width = 207;
},
{
layerId = "4D009BB9-CCD0-4844-B12B-B6DC88771387";
shapes = (
{
closed = 1;
nodes = (
(101,-200,o),
(148,-174,o),
(148,-67,c),
(147,446,l),
(59,446,l),
(60,-67,l),
(60,-100,o),
(44,-119,o),
(10,-119,cs),
(-30,-119,l),
(-30,-200,l),
(17,-200,ls)
);
},
{
closed = 1;
nodes = (
(139,533,o),
(159,553,o),
(159,588,cs),
(159,623,o),
(139,643,o),
(103,643,cs),
(67,643,o),
(48,623,o),
(48,588,cs),
(48,553,o),
(67,533,o),
(103,533,cs)
);
}
);
width = 207;
}
);
metricRight = "=|i";
unicode = 106;
},
{
glyphname = k;
lastChange = "2025-11-15 17:09:45 +0000";
layers = (
{
anchors = (
{
name = bottom;
pos = (256,0);
},
{
name = top;
pos = (256,685);
}
);
background = {
anchors = (
{
name = bottom;
pos = (256,0);
},
{
name = top;
pos = (256,685);
}
);
shapes = (
{
closed = 1;
nodes = (
(83,0,l),
(171,0,l),
(171,680,l),
(83,680,l)
);
},
{
closed = 1;
nodes = (
(279,300,l),
(189,294,l),
(368,0,l),
(461,0,l)
);
},
{
closed = 1;
nodes = (
(160,164,l),
(439,450,l),
(331,450,l),
(100,206,l)
);
}
);
};
layerId = "1B8EDE0E-D46F-48F9-B9C6-2CD34FEA95FD";
shapes = (
{
closed = 1;
nodes = (
(18,0,l),
(106,0,l),
(236,680,l),
(148,680,l)
);
},
{
closed = 1;
nodes = (
(271,300,l),
(180,294,l),
(303,0,l),
(396,0,l)
);
},
{
closed = 1;
nodes = (
(126,164,l),
(460,450,l),
(352,450,l),
(74,206,l)
);
}
);
width = 466;
},
{
anchors = (
{
name = bottom;
pos = (235,0);
},
{
name = top;
pos = (235,685);
}
);
associatedMasterId = "1B8EDE0E-D46F-48F9-B9C6-2CD34FEA95FD";
layerId = "45867232-6A4A-4A77-AB62-27AC5F6B844B";
name = "Nov 14, 25 at 13:37";
shapes = (
{
closed = 1;
nodes = (
(62,0,l),
(150,0,l),
(150,680,l),
(62,680,l)
);
},
{
closed = 1;
nodes = (
(258,300,l),
(168,294,l),
(347,0,l),
(440,0,l)
);
},
{
closed = 1;
nodes = (
(139,164,l),
(418,450,l),
(310,450,l),
(79,206,l)
);
}
);
width = 445;
},
{
anchors = (
{
name = bottom;
pos = (235,0);
},
{
name = top;
pos = (235,685);
}
);
layerId = "37597A9B-137B-4040-B731-85284A6575D5";
shapes = (
{
closed = 1;
nodes = (
(62,0,l),
(150,0,l),
(150,680,l),
(62,680,l)
);
},
{
closed = 1;
nodes = (
(258,300,l),
(168,294,l),
(347,0,l),
(440,0,l)
);
},
{
closed = 1;
nodes = (
(139,164,l),
(418,450,l),
(310,450,l),
(79,206,l)
);
}
);
width = 445;
},
{
anchors = (
{
name = bottom;
pos = (235,0);
},
{
name = top;
pos = (235,685);
}
);
layerId = "4D009BB9-CCD0-4844-B12B-B6DC88771387";
shapes = (
{
closed = 1;
nodes = (
(62,0,l),
(150,0,l),
(150,680,l),
(62,680,l)
);
},
{
closed = 1;
nodes = (
(258,300,l),
(168,294,l),
(347,0,l),
(440,0,l)
);
},
{
closed = 1;
nodes = (
(139,164,l),
(418,450,l),
(310,450,l),
(79,206,l)
);
}
);
width = 445;
}
);
metricLeft = n;
unicode = 107;
},
{
glyphname = l;
lastChange = "2025-11-15 17:09:45 +0000";
layers = (
{
anchors = (
{
name = bottom;
pos = (133,0);
},
{
name = center;
pos = (133,225);
},
{
name = top;
pos = (133,670);
},
{
name = topright;
pos = (230,680);
}
);
layerId = "1B8EDE0E-D46F-48F9-B9C6-2CD34FEA95FD";
shapes = (
{
closed = 1;
nodes = (
(166,0,l),
(181,79,l),
(166,79,ls),
(136,79,o),
(123,96,o),
(129,129,c),
(234,667,l),
(146,667,l),
(43,137,l),
(24,39,o),
(72,0,o),
(146,0,cs)
);
}
);
width = 246;
},
{
anchors = (
{
name = bottom;
pos = (115,0);
},
{
name = center;
pos = (115,225);
},
{
name = top;
pos = (115,670);
},
{
name = topright;
pos = (212,680);
}
);
layerId = "37597A9B-137B-4040-B731-85284A6575D5";
shapes = (
{
closed = 1;
nodes = (
(212,-6,l),
(212,73,l),
(197,73,ls),
(167,73,o),
(150,90,o),
(150,123,c),
(151,667,l),
(63,667,l),
(62,131,l),
(62,33,o),
(118,-6,o),
(192,-6,cs)
);
}
);
width = 230;
},
{
anchors = (
{
name = bottom;
pos = (115,0);
},
{
name = center;
pos = (115,225);
},
{
name = top;
pos = (115,670);
},
{
name = topright;
pos = (212,680);
}
);
layerId = "4D009BB9-CCD0-4844-B12B-B6DC88771387";
shapes = (
{
closed = 1;
nodes = (
(212,-6,l),
(212,73,l),
(197,73,ls),
(167,73,o),
(150,90,o),
(150,123,c),
(151,667,l),
(63,667,l),
(62,131,l),
(62,33,o),
(118,-6,o),
(192,-6,cs)
);
}
);
width = 230;
}
);
metricLeft = "=n";
metricRight = "=i";
unicode = 108;
},
{
glyphname = m;
lastChange = "2025-11-15 17:09:45 +0000";
layers = (
{
anchors = (
{
name = bottom;
pos = (348,0);
},
{
name = top;
pos = (348,450);
}
);
background = {
shapes = (
{
closed = 1;
nodes = (
(426,263,l),
(444,340,o),
(491,388,o),
(551,388,cs),
(606,388,o),
(647,357,o),
(629,263,cs),
(578,0,l),
(664,0,l),
(715,262,ls),
(744,410,o),
(652,463,o),
(580,463,cs),
(478,463,o),
(413,393,o),
(388,263,c)
);
}
);
};
layerId = "1B8EDE0E-D46F-48F9-B9C6-2CD34FEA95FD";
shapes = (
{
closed = 1;
nodes = (
(105,0,l),
(184,406,l),
(178,408,l),
(177,450,l),
(104,450,l),
(17,0,l)
);
},
{
closed = 1;
nodes = (
(384,0,l),
(438,278,ls),
(457,374,o),
(397,463,o),
(313,463,cs),
(223,463,o),
(149,406,o),
(123,278,c),
(157,268,l),
(174,357,o),
(233,388,o),
(277,388,cs),
(321,388,o),
(368,357,o),
(351,268,cs),
(299,0,l)
);
},
{
closed = 1;
nodes = (
(664,0,l),
(715,262,ls),
(742,402,o),
(651,463,o),
(585,463,cs),
(502,463,o),
(424,408,o),
(396,278,c),
(438,278,l),
(456,357,o),
(512,388,o),
(556,388,cs),
(600,388,o),
(646,352,o),
(629,263,cs),
(578,0,l)
);
}
);
width = 768;
},
{
anchors = (
{
name = bottom;
pos = (348,0);
},
{
name = top;
pos = (348,450);
}
);
associatedMasterId = "1B8EDE0E-D46F-48F9-B9C6-2CD34FEA95FD";
layerId = "BAC15551-FA05-4B91-9389-7BFA7DA5187E";
name = "Nov 14, 25 at 13:37";
shapes = (
{
closed = 1;
nodes = (
(150,0,l),
(150,406,l),
(144,408,l),
(135,450,l),
(62,450,l),
(62,0,l)
);
},
{
closed = 1;
nodes = (
(429,0,l),
(429,278,ls),
(429,376,o),
(359,463,o),
(268,463,cs),
(178,463,o),
(115,406,o),
(114,278,c),
(150,268,l),
(150,357,o),
(203,388,o),
(247,388,cs),
(291,388,o),
(344,357,o),
(344,268,cs),
(344,0,l)
);
},
{
closed = 1;
nodes = (
(708,0,l),
(708,270,ls),
(708,414,o),
(619,463,o),
(540,463,cs),
(457,463,o),
(390,408,o),
(387,278,c),
(429,278,l),
(432,357,o),
(482,388,o),
(526,388,cs),
(570,388,o),
(623,357,o),
(623,268,cs),
(623,0,l)
);
}
);
width = 770;
},
{
anchors = (
{
name = bottom;
pos = (348,0);
},
{
name = top;
pos = (348,450);
}
);
layerId = "37597A9B-137B-4040-B731-85284A6575D5";
shapes = (
{
closed = 1;
nodes = (
(150,0,l),
(150,406,l),
(144,408,l),
(135,450,l),
(62,450,l),
(62,0,l)
);
},
{
closed = 1;
nodes = (
(429,0,l),
(429,278,ls),
(429,376,o),
(359,463,o),
(268,463,cs),
(178,463,o),
(115,406,o),
(114,278,c),
(150,268,l),
(150,357,o),
(203,388,o),
(247,388,cs),
(291,388,o),
(344,357,o),
(344,268,cs),
(344,0,l)
);
},
{
closed = 1;
nodes = (
(708,0,l),
(708,270,ls),
(708,414,o),
(619,463,o),
(540,463,cs),
(457,463,o),
(390,408,o),
(387,278,c),
(429,278,l),
(432,357,o),
(482,388,o),
(526,388,cs),
(570,388,o),
(623,357,o),
(623,268,cs),
(623,0,l)
);
}
);
width = 770;
},
{
anchors = (
{
name = bottom;
pos = (348,0);
},
{
name = top;
pos = (348,450);
}
);
layerId = "4D009BB9-CCD0-4844-B12B-B6DC88771387";
shapes = (
{
closed = 1;
nodes = (
(150,0,l),
(150,406,l),
(144,408,l),
(135,450,l),
(62,450,l),
(62,0,l)
);
},
{
closed = 1;
nodes = (
(429,0,l),
(429,278,ls),
(429,376,o),
(359,463,o),
(268,463,cs),
(178,463,o),
(115,406,o),
(114,278,c),
(150,268,l),
(150,357,o),
(203,388,o),
(247,388,cs),
(291,388,o),
(344,357,o),
(344,268,cs),
(344,0,l)
);
},
{
closed = 1;
nodes = (
(708,0,l),
(708,270,ls),
(708,414,o),
(619,463,o),
(540,463,cs),
(457,463,o),
(390,408,o),
(387,278,c),
(429,278,l),
(432,357,o),
(482,388,o),
(526,388,cs),
(570,388,o),
(623,357,o),
(623,268,cs),
(623,0,l)
);
}
);
width = 770;
}
);
metricLeft = "=n";
metricRight = "=n";
unicode = 109;
},
{
glyphname = n;
lastChange = "2025-11-15 17:09:45 +0000";
layers = (
{
anchors = (
{
name = bottom;
pos = (250,0);
},
{
name = top;
pos = (250,450);
}
);
background = {
anchors = (
{
name = bottom;
pos = (250,0);
},
{
name = top;
pos = (250,450);
}
);
shapes = (
{
closed = 1;
nodes = (
(150,0,l),
(150,405,l),
(130,450,l),
(62,450,l),
(62,0,l)
);
},
{
closed = 1;
nodes = (
(150,263,l),
(153,340,o),
(197,388,o),
(257,388,cs),
(317,388,o),
(364,357,o),
(364,263,cs),
(364,0,l),
(449,0,l),
(449,265,ls),
(449,414,o),
(360,463,o),
(271,463,cs),
(169,463,o),
(112,393,o),
(112,263,c)
);
}
);
};
layerId = "1B8EDE0E-D46F-48F9-B9C6-2CD34FEA95FD";
shapes = (
{
closed = 1;
nodes = (
(104,0,l),
(183,405,l),
(172,450,l),
(104,450,l),
(16,0,l)
);
},
{
closed = 1;
nodes = (
(156,263,l),
(174,340,o),
(221,388,o),
(281,388,cs),
(336,388,o),
(377,357,o),
(359,263,cs),
(308,0,l),
(394,0,l),
(445,262,ls),
(474,410,o),
(382,463,o),
(310,463,cs),
(208,463,o),
(143,393,o),
(118,263,c)
);
}
);
width = 498;
},
{
anchors = (
{
name = bottom;
pos = (250,0);
},
{
name = top;
pos = (250,450);
}
);
associatedMasterId = "1B8EDE0E-D46F-48F9-B9C6-2CD34FEA95FD";
layerId = "CB166B79-726C-487A-9C54-5E27280FD18F";
name = "Nov 14, 25 at 13:37";
shapes = (
{
closed = 1;
nodes = (
(150,0,l),
(150,405,l),
(130,450,l),
(62,450,l),
(62,0,l)
);
},
{
closed = 1;
nodes = (
(150,263,l),
(153,340,o),
(197,388,o),
(257,388,cs),
(317,388,o),
(364,357,o),
(364,263,cs),
(364,0,l),
(449,0,l),
(449,265,ls),
(449,414,o),
(360,463,o),
(271,463,cs),
(169,463,o),
(112,393,o),
(112,263,c)
);
}
);
width = 511;
},
{
anchors = (
{
name = bottom;
pos = (250,0);
},
{
name = top;
pos = (250,450);
}
);
layerId = "37597A9B-137B-4040-B731-85284A6575D5";
shapes = (
{
closed = 1;
nodes = (
(150,0,l),
(150,405,l),
(130,450,l),
(62,450,l),
(62,0,l)
);
},
{
closed = 1;
nodes = (
(150,263,l),
(153,340,o),
(197,388,o),
(257,388,cs),
(317,388,o),
(364,357,o),
(364,263,cs),
(364,0,l),
(449,0,l),
(449,265,ls),
(449,414,o),
(360,463,o),
(271,463,cs),
(169,463,o),
(112,393,o),
(112,263,c)
);
}
);
width = 511;
},
{
anchors = (
{
name = bottom;
pos = (250,0);
},
{
name = top;
pos = (250,450);
}
);
layerId = "4D009BB9-CCD0-4844-B12B-B6DC88771387";
shapes = (
{
closed = 1;
nodes = (
(150,0,l),
(150,405,l),
(130,450,l),
(62,450,l),
(62,0,l)
);
},
{
closed = 1;
nodes = (
(150,263,l),
(153,340,o),
(197,388,o),
(257,388,cs),
(317,388,o),
(364,357,o),
(364,263,cs),
(364,0,l),
(449,0,l),
(449,265,ls),
(449,414,o),
(360,463,o),
(271,463,cs),
(169,463,o),
(112,393,o),
(112,263,c)
);
}
);
width = 511;
}
);
metricRight = "=|";
unicode = 110;
},
{
glyphname = o;
lastChange = "2025-11-15 17:09:45 +0000";
layers = (
{
anchors = (
{
name = bottom;
pos = (239,0);
},
{
name = center;
pos = (239,225);
},
{
name = ogonek;
pos = (429,10);
},
{
name = top;
pos = (239,450);
},
{
name = topright;
pos = (457,450);
}
);
background = {
anchors = (
{
name = bottom;
pos = (239,0);
},
{
name = center;
pos = (239,225);
},
{
name = ogonek;
pos = (429,10);
},
{
name = top;
pos = (239,450);
},
{
name = topright;
pos = (457,450);
}
);
shapes = (
{
closed = 1;
nodes = (
(190,63,o),
(126,88,o),
(125,192,cs),
(125,256,ls),
(126,361,o),
(190,387,o),
(239,387,cs),
(286,387,o),
(352,360,o),
(352,256,cs),
(352,192,ls),
(352,89,o),
(286,63,o),
(239,63,cs)
);
},
{
closed = 1;
nodes = (
(327,-12,o),
(437,38,o),
(437,192,cs),
(437,256,ls),
(437,411,o),
(320,462,o),
(239,462,cs),
(149,462,o),
(41,414,o),
(40,256,cs),
(40,192,ls),
(41,37,o),
(149,-12,o),
(239,-12,cs)
);
}
);
};
layerId = "1B8EDE0E-D46F-48F9-B9C6-2CD34FEA95FD";
shapes = (
{
closed = 1;
nodes = (
(124,63,o),
(104,138,o),
(118,201,cs),
(131,268,ls),
(149,364,o),
(210,387,o),
(258,387,cs),
(351,387,o),
(370,308,o),
(357,247,cs),
(344,180,ls),
(326,86,o),
(265,63,o),
(219,63,cs)
);
},
{
closed = 1;
nodes = (
(299,-12,o),
(402,31,o),
(429,171,cs),
(443,244,ls),
(467,369,o),
(382,462,o),
(261,462,cs),
(176,462,o),
(75,419,o),
(47,277,cs),
(34,210,ls),
(6,78,o),
(85,-12,o),
(215,-12,cs)
);
}
);
width = 476;
},
{
anchors = (
{
name = bottom;
pos = (239,0);
},
{
name = center;
pos = (239,225);
},
{
name = ogonek;
pos = (429,10);
},
{
name = top;
pos = (239,450);
},
{
name = topright;
pos = (457,450);
}
);
associatedMasterId = "1B8EDE0E-D46F-48F9-B9C6-2CD34FEA95FD";
layerId = "8B0FBFB4-195D-48F5-B2F9-1A24AE46D86C";
name = "Nov 14, 25 at 13:37";
shapes = (
{
closed = 1;
nodes = (
(190,63,o),
(126,88,o),
(125,192,cs),
(125,256,ls),
(126,361,o),
(190,387,o),
(239,387,cs),
(286,387,o),
(352,360,o),
(352,256,cs),
(352,192,ls),
(352,89,o),
(286,63,o),
(239,63,cs)
);
},
{
closed = 1;
nodes = (
(327,-12,o),
(437,38,o),
(437,192,cs),
(437,256,ls),
(437,411,o),
(320,462,o),
(239,462,cs),
(149,462,o),
(41,414,o),
(40,256,cs),
(40,192,ls),
(41,37,o),
(149,-12,o),
(239,-12,cs)
);
}
);
width = 477;
},
{
anchors = (
{
name = bottom;
pos = (239,0);
},
{
name = center;
pos = (239,225);
},
{
name = ogonek;
pos = (429,10);
},
{
name = top;
pos = (239,450);
},
{
name = topright;
pos = (457,450);
}
);
layerId = "37597A9B-137B-4040-B731-85284A6575D5";
shapes = (
{
closed = 1;
nodes = (
(190,63,o),
(126,88,o),
(125,192,cs),
(125,256,ls),
(126,361,o),
(190,387,o),
(239,387,cs),
(286,387,o),
(352,360,o),
(352,256,cs),
(352,192,ls),
(352,89,o),
(286,63,o),
(239,63,cs)
);
},
{
closed = 1;
nodes = (
(327,-12,o),
(437,38,o),
(437,192,cs),
(437,256,ls),
(437,411,o),
(320,462,o),
(239,462,cs),
(149,462,o),
(41,414,o),
(40,256,cs),
(40,192,ls),
(41,37,o),
(149,-12,o),
(239,-12,cs)
);
}
);
width = 477;
},
{
anchors = (
{
name = bottom;
pos = (239,0);
},
{
name = center;
pos = (239,225);
},
{
name = ogonek;
pos = (429,10);
},
{
name = top;
pos = (239,450);
},
{
name = topright;
pos = (457,450);
}
);
layerId = "4D009BB9-CCD0-4844-B12B-B6DC88771387";
shapes = (
{
closed = 1;
nodes = (
(190,63,o),
(126,88,o),
(125,192,cs),
(125,256,ls),
(126,361,o),
(190,387,o),
(239,387,cs),
(286,387,o),
(352,360,o),
(352,256,cs),
(352,192,ls),
(352,89,o),
(286,63,o),
(239,63,cs)
);
},
{
closed = 1;
nodes = (
(327,-12,o),
(437,38,o),
(437,192,cs),
(437,256,ls),
(437,411,o),
(320,462,o),
(239,462,cs),
(149,462,o),
(41,414,o),
(40,256,cs),
(40,192,ls),
(41,37,o),
(149,-12,o),
(239,-12,cs)
);
}
);
width = 477;
}
);
metricRight = "=|";
unicode = 111;
},
{
glyphname = p;
lastChange = "2025-11-15 17:09:45 +0000";
layers = (
{
layerId = "1B8EDE0E-D46F-48F9-B9C6-2CD34FEA95FD";
shapes = (
{
closed = 1;
nodes = (
(66,-200,l),
(184,411,l),
(172,450,l),
(104,450,l),
(-22,-200,l)
);
},
{
closed = 1;
nodes = (
(320,-12,o),
(414,31,o),
(440,171,cs),
(456,256,ls),
(480,385,o),
(380,462,o),
(301,462,cs),
(198,462,o),
(160,414,o),
(129,278,c),
(156,267,l),
(173,351,o),
(222,387,o),
(284,387,cs),
(331,387,o),
(387,341,o),
(371,256,cs),
(357,182,ls),
(337,79,o),
(269,63,o),
(222,63,cs),
(172,63,o),
(126,88,o),
(137,169,c),
(93,169,l),
(72,37,o),
(131,-12,o),
(208,-12,cs)
);
}
);
width = 488;
},
{
layerId = "37597A9B-137B-4040-B731-85284A6575D5";
shapes = (
{
closed = 1;
nodes = (
(150,-200,l),
(150,411,l),
(130,450,l),
(62,450,l),
(62,-200,l)
);
},
{
closed = 1;
nodes = (
(348,-12,o),
(452,37,o),
(452,194,cs),
(452,258,ls),
(452,414,o),
(350,462,o),
(266,462,cs),
(174,462,o),
(114,413,o),
(110,281,c),
(150,281,l),
(154,362,o),
(205,387,o),
(255,387,cs),
(302,387,o),
(367,361,o),
(367,258,cs),
(367,194,ls),
(367,88,o),
(302,63,o),
(255,63,cs),
(205,63,o),
(154,88,o),
(150,172,c),
(111,172,l),
(115,36,o),
(183,-12,o),
(271,-12,cs)
);
}
);
width = 492;
},
{
layerId = "4D009BB9-CCD0-4844-B12B-B6DC88771387";
shapes = (
{
closed = 1;
nodes = (
(150,-200,l),
(150,411,l),
(130,450,l),
(62,450,l),
(62,-200,l)
);
},
{
closed = 1;
nodes = (
(348,-12,o),
(452,37,o),
(452,194,cs),
(452,258,ls),
(452,414,o),
(350,462,o),
(266,462,cs),
(174,462,o),
(114,413,o),
(110,281,c),
(150,281,l),
(154,362,o),
(205,387,o),
(255,387,cs),
(302,387,o),
(367,361,o),
(367,258,cs),
(367,194,ls),
(367,88,o),
(302,63,o),
(255,63,cs),
(205,63,o),
(154,88,o),
(150,172,c),
(111,172,l),
(115,36,o),
(183,-12,o),
(271,-12,cs)
);
}
);
width = 492;
}
);
metricLeft = "=n";
metricRight = o;
unicode = 112;
},
{
glyphname = q;
lastChange = "2025-11-15 17:09:45 +0000";
layers = (
{
anchors = (
{
name = bottom;
pos = (209,0);
},
{
name = top;
pos = (209,450);
}
);
background = {
anchors = (
{
name = bottom;
pos = (209,0);
},
{
name = top;
pos = (209,450);
}
);
shapes = (
{
closed = 1;
nodes = (
(404,-200,l),
(404,450,l),
(335,450,l),
(316,407,l),
(316,-200,l)
);
},
{
closed = 1;
nodes = (
(283,-12,o),
(351,38,o),
(354,172,c),
(316,172,l),
(312,88,o),
(261,63,o),
(210,63,cs),
(164,63,o),
(99,87,o),
(98,194,cs),
(98,258,ls),
(99,362,o),
(164,387,o),
(210,387,cs),
(261,387,o),
(312,361,o),
(316,281,c),
(360,281,l),
(356,413,o),
(287,462,o),
(200,462,cs),
(116,462,o),
(14,415,o),
(13,258,cs),
(13,194,ls),
(14,36,o),
(117,-12,o),
(195,-12,cs)
);
}
);
};
layerId = "1B8EDE0E-D46F-48F9-B9C6-2CD34FEA95FD";
shapes = (
{
closed = 1;
nodes = (
(341,-200,l),
(467,450,l),
(398,450,l),
(370,407,l),
(253,-200,l)
);
},
{
closed = 1;
nodes = (
(302,-12,o),
(348,82,o),
(367,169,c),
(324,169,l),
(305,89,o),
(270,63,o),
(219,63,cs),
(124,63,o),
(106,138,o),
(118,201,cs),
(131,268,ls),
(150,364,o),
(204,387,o),
(260,387,cs),
(311,387,o),
(362,362,o),
(345,278,c),
(382,278,l),
(405,412,o),
(331,462,o),
(261,462,cs),
(176,462,o),
(75,419,o),
(47,277,cs),
(34,210,ls),
(8,78,o),
(85,-12,o),
(195,-12,cs)
);
}
);
width = 484;
},
{
anchors = (
{
name = bottom;
pos = (236,0);
},
{
name = top;
pos = (236,450);
}
);
associatedMasterId = "1B8EDE0E-D46F-48F9-B9C6-2CD34FEA95FD";
layerId = "8FD81C6F-D9CD-48F2-AD76-8435CDCF240D";
name = "Nov 14, 25 at 13:37";
shapes = (
{
closed = 1;
nodes = (
(431,-200,l),
(431,450,l),
(362,450,l),
(343,407,l),
(343,-200,l)
);
},
{
closed = 1;
nodes = (
(310,-12,o),
(378,38,o),
(381,172,c),
(343,172,l),
(339,88,o),
(288,63,o),
(237,63,cs),
(191,63,o),
(126,87,o),
(125,194,cs),
(125,258,ls),
(126,362,o),
(191,387,o),
(237,387,cs),
(288,387,o),
(339,361,o),
(343,281,c),
(387,281,l),
(383,413,o),
(314,462,o),
(227,462,cs),
(143,462,o),
(41,415,o),
(40,258,cs),
(40,194,ls),
(41,36,o),
(144,-12,o),
(222,-12,cs)
);
}
);
width = 493;
},
{
anchors = (
{
name = bottom;
pos = (236,0);
},
{
name = top;
pos = (236,450);
}
);
layerId = "37597A9B-137B-4040-B731-85284A6575D5";
shapes = (
{
closed = 1;
nodes = (
(431,-200,l),
(431,450,l),
(362,450,l),
(343,407,l),
(343,-200,l)
);
},
{
closed = 1;
nodes = (
(310,-12,o),
(378,38,o),
(381,172,c),
(343,172,l),
(339,88,o),
(288,63,o),
(237,63,cs),
(191,63,o),
(126,87,o),
(125,194,cs),
(125,258,ls),
(126,362,o),
(191,387,o),
(237,387,cs),
(288,387,o),
(339,361,o),
(343,281,c),
(387,281,l),
(383,413,o),
(314,462,o),
(227,462,cs),
(143,462,o),
(41,415,o),
(40,258,cs),
(40,194,ls),
(41,36,o),
(144,-12,o),
(222,-12,cs)
);
}
);
width = 493;
},
{
anchors = (
{
name = bottom;
pos = (236,0);
},
{
name = top;
pos = (236,450);
}
);
layerId = "4D009BB9-CCD0-4844-B12B-B6DC88771387";
shapes = (
{
closed = 1;
nodes = (
(431,-200,l),
(431,450,l),
(362,450,l),
(343,407,l),
(343,-200,l)
);
},
{
closed = 1;
nodes = (
(310,-12,o),
(378,38,o),
(381,172,c),
(343,172,l),
(339,88,o),
(288,63,o),
(237,63,cs),
(191,63,o),
(126,87,o),
(125,194,cs),
(125,258,ls),
(126,362,o),
(191,387,o),
(237,387,cs),
(288,387,o),
(339,361,o),
(343,281,c),
(387,281,l),
(383,413,o),
(314,462,o),
(227,462,cs),
(143,462,o),
(41,415,o),
(40,258,cs),
(40,194,ls),
(41,36,o),
(144,-12,o),
(222,-12,cs)
);
}
);
width = 493;
}
);
metricLeft = "=o";
metricRight = "=n";
unicode = 113;
},
{
glyphname = r;
lastChange = "2025-11-15 17:09:45 +0000";
layers = (
{
anchors = (
{
name = bottom;
pos = (168,0);
},
{
name = top;
pos = (168,450);
}
);
background = {
anchors = (
{
name = bottom;
pos = (168,0);
},
{
name = top;
pos = (168,450);
}
);
shapes = (
{
closed = 1;
nodes = (
(149,0,l),
(149,399,l),
(144,399,l),
(133,450,l),
(61,450,l),
(61,0,l)
);
},
{
closed = 1;
nodes = (
(149,236,l),
(149,350,o),
(194,369,o),
(266,369,c),
(289,369,l),
(289,450,l),
(261,450,l),
(145,450,o),
(105,366,o),
(105,237,c)
);
}
);
};
layerId = "1B8EDE0E-D46F-48F9-B9C6-2CD34FEA95FD";
shapes = (
{
closed = 1;
nodes = (
(106,0,l),
(183,399,l),
(178,399,l),
(176,450,l),
(104,450,l),
(18,0,l)
);
},
{
closed = 1;
nodes = (
(151,236,l),
(173,350,o),
(222,369,o),
(294,369,c),
(317,369,l),
(332,450,l),
(304,450,l),
(188,450,o),
(132,366,o),
(107,237,c)
);
}
);
width = 315;
},
{
anchors = (
{
name = bottom;
pos = (169,0);
},
{
name = top;
pos = (169,450);
}
);
associatedMasterId = "1B8EDE0E-D46F-48F9-B9C6-2CD34FEA95FD";
layerId = "1574F81C-5BDD-4A57-936B-6B53C7C52AEC";
name = "Nov 14, 25 at 13:37";
shapes = (
{
closed = 1;
nodes = (
(150,0,l),
(150,399,l),
(145,399,l),
(134,450,l),
(62,450,l),
(62,0,l)
);
},
{
closed = 1;
nodes = (
(150,236,l),
(150,350,o),
(195,369,o),
(267,369,c),
(290,369,l),
(290,450,l),
(262,450,l),
(146,450,o),
(106,366,o),
(106,237,c)
);
}
);
width = 316;
},
{
anchors = (
{
name = bottom;
pos = (169,0);
},
{
name = top;
pos = (169,450);
}
);
layerId = "37597A9B-137B-4040-B731-85284A6575D5";
shapes = (
{
closed = 1;
nodes = (
(150,0,l),
(150,399,l),
(145,399,l),
(134,450,l),
(62,450,l),
(62,0,l)
);
},
{
closed = 1;
nodes = (
(150,236,l),
(150,350,o),
(195,369,o),
(267,369,c),
(290,369,l),
(290,450,l),
(262,450,l),
(146,450,o),
(106,366,o),
(106,237,c)
);
}
);
width = 316;
},
{
anchors = (
{
name = bottom;
pos = (169,0);
},
{
name = top;
pos = (169,450);
}
);
layerId = "4D009BB9-CCD0-4844-B12B-B6DC88771387";
shapes = (
{
closed = 1;
nodes = (
(150,0,l),
(150,399,l),
(145,399,l),
(134,450,l),
(62,450,l),
(62,0,l)
);
},
{
closed = 1;
nodes = (
(150,236,l),
(150,350,o),
(195,369,o),
(267,369,c),
(290,369,l),
(290,450,l),
(262,450,l),
(146,450,o),
(106,366,o),
(106,237,c)
);
}
);
width = 316;
}
);
metricLeft = "=n";
unicode = 114;
},
{
glyphname = s;
lastChange = "2025-11-15 17:09:45 +0000";
layers = (
{
anchors = (
{
name = bottom;
pos = (182,0);
},
{
name = top;
pos = (182,450);
}
);
background = {
shapes = (
{
closed = 1;
nodes = (
(262,-9,o),
(335,33,o),
(350,109,cs),
(366,193,o),
(288,232,o),
(240,262,cs),
(205,284,ls),
(179,300,o),
(140,321,o),
(147,356,cs),
(153,391,o),
(186,404,o),
(232,399,cs),
(281,395,o),
(307,367,o),
(297,319,c),
(379,311,l),
(402,427,o),
(313,462,o),
(245,469,cs),
(176,475,o),
(84,457,o),
(65,359,cs),
(51,286,o),
(105,246,o),
(152,217,cs),
(189,195,ls),
(221,176,o),
(272,153,o),
(265,117,cs),
(258,82,o),
(218,66,o),
(170,71,cs),
(115,76,o),
(87,104,o),
(98,165,c),
(16,173,l),
(-3,73,o),
(41,12,o),
(159,1,cs)
);
}
);
};
layerId = "1B8EDE0E-D46F-48F9-B9C6-2CD34FEA95FD";
shapes = (
{
closed = 1;
nodes = (
(264,-12,o),
(335,30,o),
(351,115,cs),
(366,193,o),
(288,231,o),
(248,252,cs),
(205,274,ls),
(179,288,o),
(139,305,o),
(146,341,cs),
(153,376,o),
(186,392,o),
(232,392,cs),
(281,392,o),
(307,367,o),
(298,318,c),
(380,318,l),
(402,429,o),
(314,462,o),
(246,462,cs),
(176,462,o),
(83,435,o),
(64,336,cs),
(50,262,o),
(121,220,o),
(152,203,cs),
(189,182,ls),
(220,165,o),
(273,151,o),
(266,114,cs),
(259,78,o),
(218,59,o),
(170,59,cs),
(115,59,o),
(84,84,o),
(95,146,c),
(15,146,l),
(-3,52,o),
(55,-12,o),
(158,-12,cs)
);
}
);
width = 402;
},
{
anchors = (
{
name = bottom;
pos = (182,0);
},
{
name = top;
pos = (182,450);
}
);
associatedMasterId = "1B8EDE0E-D46F-48F9-B9C6-2CD34FEA95FD";
layerId = "ED9E8E66-B4AB-429C-A6A9-DF08019A4678";
name = "Nov 14, 25 at 13:37";
shapes = (
{
closed = 1;
nodes = (
(308,-12,o),
(372,37,o),
(372,114,cs),
(372,199,o),
(287,231,o),
(234,256,cs),
(196,274,ls),
(167,288,o),
(124,305,o),
(124,341,cs),
(124,376,o),
(154,392,o),
(200,392,cs),
(249,392,o),
(280,367,o),
(280,318,c),
(362,318,l),
(362,436,o),
(268,462,o),
(200,462,cs),
(130,462,o),
(43,435,o),
(43,336,cs),
(43,262,o),
(104,227,o),
(156,203,cs),
(197,184,ls),
(232,168,o),
(287,151,o),
(287,114,cs),
(287,78,o),
(250,59,o),
(202,59,cs),
(147,59,o),
(114,84,o),
(113,146,c),
(30,146,l),
(31,44,o),
(86,-12,o),
(204,-12,cs)
);
}
);
width = 393;
},
{
anchors = (
{
name = bottom;
pos = (182,0);
},
{
name = top;
pos = (182,450);
}
);
layerId = "37597A9B-137B-4040-B731-85284A6575D5";
shapes = (
{
closed = 1;
nodes = (
(308,-12,o),
(372,37,o),
(372,114,cs),
(372,199,o),
(287,231,o),
(234,256,cs),
(196,274,ls),
(167,288,o),
(124,305,o),
(124,341,cs),
(124,376,o),
(154,392,o),
(200,392,cs),
(249,392,o),
(280,367,o),
(280,318,c),
(362,318,l),
(362,436,o),
(268,462,o),
(200,462,cs),
(130,462,o),
(43,435,o),
(43,336,cs),
(43,262,o),
(104,227,o),
(156,203,cs),
(197,184,ls),
(232,168,o),
(287,151,o),
(287,114,cs),
(287,78,o),
(250,59,o),
(202,59,cs),
(147,59,o),
(114,84,o),
(113,146,c),
(30,146,l),
(31,44,o),
(86,-12,o),
(204,-12,cs)
);
}
);
width = 393;
},
{
anchors = (
{
name = bottom;
pos = (182,0);
},
{
name = top;
pos = (182,450);
}
);
layerId = "4D009BB9-CCD0-4844-B12B-B6DC88771387";
shapes = (
{
closed = 1;
nodes = (
(308,-12,o),
(372,37,o),
(372,114,cs),
(372,199,o),
(287,231,o),
(234,256,cs),
(196,274,ls),
(167,288,o),
(124,305,o),
(124,341,cs),
(124,376,o),
(154,392,o),
(200,392,cs),
(249,392,o),
(280,367,o),
(280,318,c),
(362,318,l),
(362,436,o),
(268,462,o),
(200,462,cs),
(130,462,o),
(43,435,o),
(43,336,cs),
(43,262,o),
(104,227,o),
(156,203,cs),
(197,184,ls),
(232,168,o),
(287,151,o),
(287,114,cs),
(287,78,o),
(250,59,o),
(202,59,cs),
(147,59,o),
(114,84,o),
(113,146,c),
(30,146,l),
(31,44,o),
(86,-12,o),
(204,-12,cs)
);
}
);
width = 393;
}
);
metricLeft = "=30";
metricRight = "=|";
unicode = 115;
},
{
glyphname = t;
lastChange = "2025-11-15 17:09:45 +0000";
layers = (
{
background = {
shapes = (
{
closed = 1;
nodes = (
(268,0,l),
(268,79,l),
(224,79,ls),
(194,79,o),
(177,96,o),
(177,129,c),
(178,557,l),
(90,557,l),
(89,136,l),
(89,38,o),
(146,0,o),
(219,0,cs)
);
},
{
closed = 1;
nodes = (
(284,377,l),
(284,450,l),
(20,450,l),
(20,376,l)
);
}
);
};
layerId = "1B8EDE0E-D46F-48F9-B9C6-2CD34FEA95FD";
shapes = (
{
closed = 1;
nodes = (
(234,0,l),
(250,79,l),
(186,79,ls),
(156,79,o),
(142,96,o),
(148,129,c),
(232,557,l),
(144,557,l),
(62,136,l),
(43,38,o),
(92,0,o),
(165,0,cs)
);
},
{
closed = 1;
nodes = (
(303,377,l),
(317,450,l),
(53,450,l),
(39,376,l)
);
}
);
width = 319;
},
{
associatedMasterId = "1B8EDE0E-D46F-48F9-B9C6-2CD34FEA95FD";
layerId = "E3CBA71C-3BCF-40BF-AADB-F727602FD8D4";
name = "Nov 14, 25 at 13:37";
shapes = (
{
closed = 1;
nodes = (
(280,0,l),
(280,79,l),
(236,79,ls),
(206,79,o),
(189,96,o),
(189,129,c),
(190,557,l),
(102,557,l),
(101,136,l),
(101,38,o),
(158,0,o),
(231,0,cs)
);
},
{
closed = 1;
nodes = (
(296,377,l),
(296,450,l),
(32,450,l),
(32,376,l)
);
}
);
width = 315;
},
{
layerId = "37597A9B-137B-4040-B731-85284A6575D5";
shapes = (
{
closed = 1;
nodes = (
(280,0,l),
(280,79,l),
(236,79,ls),
(206,79,o),
(189,96,o),
(189,129,c),
(190,557,l),
(102,557,l),
(101,136,l),
(101,38,o),
(158,0,o),
(231,0,cs)
);
},
{
closed = 1;
nodes = (
(296,377,l),
(296,450,l),
(32,450,l),
(32,376,l)
);
}
);
width = 315;
},
{
layerId = "4D009BB9-CCD0-4844-B12B-B6DC88771387";
shapes = (
{
closed = 1;
nodes = (
(280,0,l),
(280,79,l),
(236,79,ls),
(206,79,o),
(189,96,o),
(189,129,c),
(190,557,l),
(102,557,l),
(101,136,l),
(101,38,o),
(158,0,o),
(231,0,cs)
);
},
{
closed = 1;
nodes = (
(296,377,l),
(296,450,l),
(32,450,l),
(32,376,l)
);
}
);
width = 315;
}
);
metricLeft = "=f";
metricRight = f;
unicode = 116;
},
{
glyphname = u;
lastChange = "2025-11-15 17:09:45 +0000";
layers = (
{
anchors = (
{
name = bottom;
pos = (251,0);
},
{
name = ogonek;
pos = (455,10);
},
{
name = top;
pos = (251,450);
},
{
name = topright;
pos = (486,450);
}
);
background = {
anchors = (
{
name = bottom;
pos = (251,0);
},
{
name = ogonek;
pos = (455,10);
},
{
name = top;
pos = (251,450);
},
{
name = topright;
pos = (486,450);
}
);
shapes = (
{
closed = 1;
nodes = (
(356,450,l),
(356,42,l),
(375,0,l),
(444,0,l),
(444,450,l)
);
},
{
closed = 1;
nodes = (
(356,187,l),
(353,110,o),
(309,62,o),
(249,62,cs),
(189,62,o),
(142,93,o),
(142,187,cs),
(142,450,l),
(57,450,l),
(57,185,ls),
(57,36,o),
(146,-13,o),
(235,-13,cs),
(337,-13,o),
(394,57,o),
(394,187,c)
);
}
);
};
layerId = "1B8EDE0E-D46F-48F9-B9C6-2CD34FEA95FD";
shapes = (
{
closed = 1;
nodes = (
(403,450,l),
(322,42,l),
(333,0,l),
(402,0,l),
(491,450,l)
);
},
{
closed = 1;
nodes = (
(350,187,l),
(332,110,o),
(269,62,o),
(209,62,cs),
(153,62,o),
(121,93,o),
(140,187,cs),
(193,450,l),
(108,450,l),
(52,174,ls),
(30,64,o),
(95,-13,o),
(180,-13,cs),
(282,-13,o),
(363,57,o),
(388,187,c)
);
}
);
width = 506;
},
{
anchors = (
{
name = bottom;
pos = (251,0);
},
{
name = ogonek;
pos = (455,10);
},
{
name = top;
pos = (251,450);
},
{
name = topright;
pos = (486,450);
}
);
associatedMasterId = "1B8EDE0E-D46F-48F9-B9C6-2CD34FEA95FD";
layerId = "81149A03-FE9A-43F7-B2CC-3632CFB1EAF5";
name = "Nov 14, 25 at 13:37";
shapes = (
{
closed = 1;
nodes = (
(356,450,l),
(356,42,l),
(375,0,l),
(444,0,l),
(444,450,l)
);
},
{
closed = 1;
nodes = (
(356,187,l),
(353,110,o),
(309,62,o),
(249,62,cs),
(189,62,o),
(142,93,o),
(142,187,cs),
(142,450,l),
(57,450,l),
(57,185,ls),
(57,36,o),
(146,-13,o),
(235,-13,cs),
(337,-13,o),
(394,57,o),
(394,187,c)
);
}
);
width = 506;
},
{
anchors = (
{
name = bottom;
pos = (251,0);
},
{
name = ogonek;
pos = (455,10);
},
{
name = top;
pos = (251,450);
},
{
name = topright;
pos = (486,450);
}
);
layerId = "37597A9B-137B-4040-B731-85284A6575D5";
shapes = (
{
closed = 1;
nodes = (
(356,450,l),
(356,42,l),
(375,0,l),
(444,0,l),
(444,450,l)
);
},
{
closed = 1;
nodes = (
(356,187,l),
(353,110,o),
(309,62,o),
(249,62,cs),
(189,62,o),
(142,93,o),
(142,187,cs),
(142,450,l),
(57,450,l),
(57,185,ls),
(57,36,o),
(146,-13,o),
(235,-13,cs),
(337,-13,o),
(394,57,o),
(394,187,c)
);
}
);
width = 506;
},
{
anchors = (
{
name = bottom;
pos = (251,0);
},
{
name = ogonek;
pos = (455,10);
},
{
name = top;
pos = (251,450);
},
{
name = topright;
pos = (486,450);
}
);
layerId = "4D009BB9-CCD0-4844-B12B-B6DC88771387";
shapes = (
{
closed = 1;
nodes = (
(356,450,l),
(356,42,l),
(375,0,l),
(444,0,l),
(444,450,l)
);
},
{
closed = 1;
nodes = (
(356,187,l),
(353,110,o),
(309,62,o),
(249,62,cs),
(189,62,o),
(142,93,o),
(142,187,cs),
(142,450,l),
(57,450,l),
(57,185,ls),
(57,36,o),
(146,-13,o),
(235,-13,cs),
(337,-13,o),
(394,57,o),
(394,187,c)
);
}
);
width = 506;
}
);
metricRight = "=|n";
unicode = 117;
},
{
glyphname = v;
lastChange = "2025-11-15 17:09:45 +0000";
layers = (
{
anchors = (
{
name = bottom;
pos = (186,0);
},
{
name = top;
pos = (272,450);
}
);
background = {
anchors = (
{
name = bottom;
pos = (235,0);
},
{
name = top;
pos = (235,450);
}
);
shapes = (
{
closed = 1;
nodes = (
(194,1,l),
(272,1,l),
(442,450,l),
(357,450,l),
(215,61,l),
(250,61,l),
(112,450,l),
(24,450,l)
);
}
);
};
layerId = "1B8EDE0E-D46F-48F9-B9C6-2CD34FEA95FD";
shapes = (
{
closed = 1;
nodes = (
(145,1,l),
(223,1,l),
(479,450,l),
(394,450,l),
(178,61,l),
(213,61,l),
(149,450,l),
(61,450,l)
);
}
);
width = 452;
},
{
anchors = (
{
name = bottom;
pos = (221,0);
},
{
name = top;
pos = (221,450);
}
);
associatedMasterId = "1B8EDE0E-D46F-48F9-B9C6-2CD34FEA95FD";
layerId = "BB8B18AD-048E-43BE-9C95-8A482ED4DD8D";
name = "Nov 14, 25 at 13:37";
shapes = (
{
closed = 1;
nodes = (
(180,1,l),
(258,1,l),
(428,450,l),
(343,450,l),
(201,61,l),
(236,61,l),
(98,450,l),
(10,450,l)
);
}
);
width = 438;
},
{
anchors = (
{
name = bottom;
pos = (221,0);
},
{
name = top;
pos = (221,450);
}
);
layerId = "37597A9B-137B-4040-B731-85284A6575D5";
shapes = (
{
closed = 1;
nodes = (
(180,1,l),
(258,1,l),
(428,450,l),
(343,450,l),
(201,61,l),
(236,61,l),
(98,450,l),
(10,450,l)
);
}
);
width = 438;
},
{
anchors = (
{
name = bottom;
pos = (221,0);
},
{
name = top;
pos = (221,450);
}
);
layerId = "4D009BB9-CCD0-4844-B12B-B6DC88771387";
shapes = (
{
closed = 1;
nodes = (
(180,1,l),
(258,1,l),
(428,450,l),
(343,450,l),
(201,61,l),
(236,61,l),
(98,450,l),
(10,450,l)
);
}
);
width = 438;
}
);
metricLeft = "=|";
metricRight = "=y";
unicode = 118;
},
{
glyphname = w;
lastChange = "2025-11-15 17:09:45 +0000";
layers = (
{
anchors = (
{
name = bottom;
pos = (279,0);
},
{
name = top;
pos = (366,450);
}
);
background = {
anchors = (
{
name = bottom;
pos = (295,0);
},
{
name = top;
pos = (295,450);
}
);
shapes = (
{
closed = 1;
nodes = (
(192,1,l),
(306,367,l),
(283,367,l),
(405,1,l),
(489,1,l),
(622,450,l),
(537,450,l),
(436,82,l),
(457,82,l),
(338,450,l),
(252,450,l),
(140,82,l),
(161,82,l),
(53,450,l),
(-32,450,l),
(108,1,l)
);
}
);
};
layerId = "1B8EDE0E-D46F-48F9-B9C6-2CD34FEA95FD";
shapes = (
{
closed = 1;
nodes = (
(176,1,l),
(361,367,l),
(338,367,l),
(389,1,l),
(473,1,l),
(693,450,l),
(608,450,l),
(436,82,l),
(457,82,l),
(409,450,l),
(323,450,l),
(140,82,l),
(161,82,l),
(124,450,l),
(39,450,l),
(92,1,l)
);
}
);
width = 644;
},
{
anchors = (
{
name = bottom;
pos = (342,0);
},
{
name = top;
pos = (342,450);
}
);
associatedMasterId = "1B8EDE0E-D46F-48F9-B9C6-2CD34FEA95FD";
layerId = "9A5AA18F-2D7B-43E6-A552-BA24555D9512";
name = "Nov 14, 25 at 13:37";
shapes = (
{
closed = 1;
nodes = (
(239,1,l),
(353,367,l),
(330,367,l),
(452,1,l),
(536,1,l),
(669,450,l),
(584,450,l),
(483,82,l),
(504,82,l),
(385,450,l),
(299,450,l),
(187,82,l),
(208,82,l),
(100,450,l),
(15,450,l),
(155,1,l)
);
}
);
width = 684;
},
{
anchors = (
{
name = bottom;
pos = (342,0);
},
{
name = top;
pos = (342,450);
}
);
layerId = "37597A9B-137B-4040-B731-85284A6575D5";
shapes = (
{
closed = 1;
nodes = (
(239,1,l),
(353,367,l),
(330,367,l),
(452,1,l),
(536,1,l),
(669,450,l),
(584,450,l),
(483,82,l),
(504,82,l),
(385,450,l),
(299,450,l),
(187,82,l),
(208,82,l),
(100,450,l),
(15,450,l),
(155,1,l)
);
}
);
width = 684;
},
{
anchors = (
{
name = bottom;
pos = (342,0);
},
{
name = top;
pos = (342,450);
}
);
layerId = "4D009BB9-CCD0-4844-B12B-B6DC88771387";
shapes = (
{
closed = 1;
nodes = (
(239,1,l),
(353,367,l),
(330,367,l),
(452,1,l),
(536,1,l),
(669,450,l),
(584,450,l),
(483,82,l),
(504,82,l),
(385,450,l),
(299,450,l),
(187,82,l),
(208,82,l),
(100,450,l),
(15,450,l),
(155,1,l)
);
}
);
width = 684;
}
);
metricLeft = "=V";
metricRight = "=|";
unicode = 119;
},
{
glyphname = x;
lastChange = "2025-11-15 17:09:45 +0000";
layers = (
{
anchors = (
{
name = bottom;
pos = (187,0);
},
{
name = top;
pos = (273,450);
}
);
background = {
anchors = (
{
name = bottom;
pos = (230,0);
},
{
name = top;
pos = (230,450);
}
);
shapes = (
{
closed = 1;
nodes = (
(440,1,l),
(118,450,l),
(18,450,l),
(339,1,l)
);
},
{
closed = 1;
nodes = (
(262,205,l),
(432,450,l),
(336,450,l),
(213,269,l)
);
},
{
closed = 1;
nodes = (
(111,1,l),
(256,205,l),
(207,269,l),
(17,1,l)
);
}
);
};
layerId = "1B8EDE0E-D46F-48F9-B9C6-2CD34FEA95FD";
shapes = (
{
closed = 1;
nodes = (
(397,1,l),
(161,450,l),
(61,450,l),
(296,1,l)
);
},
{
closed = 1;
nodes = (
(258,205,l),
(475,450,l),
(379,450,l),
(221,269,l)
);
},
{
closed = 1;
nodes = (
(68,1,l),
(252,205,l),
(215,269,l),
(-26,1,l)
);
}
);
width = 458;
},
{
anchors = (
{
name = bottom;
pos = (230,0);
},
{
name = top;
pos = (230,450);
}
);
associatedMasterId = "1B8EDE0E-D46F-48F9-B9C6-2CD34FEA95FD";
layerId = "91B4608D-6980-4FF4-806D-099173BAFD0E";
name = "Nov 14, 25 at 13:37";
shapes = (
{
closed = 1;
nodes = (
(440,1,l),
(118,450,l),
(18,450,l),
(339,1,l)
);
},
{
closed = 1;
nodes = (
(262,205,l),
(432,450,l),
(336,450,l),
(213,269,l)
);
},
{
closed = 1;
nodes = (
(111,1,l),
(256,205,l),
(207,269,l),
(17,1,l)
);
}
);
width = 457;
},
{
anchors = (
{
name = bottom;
pos = (230,0);
},
{
name = top;
pos = (230,450);
}
);
layerId = "37597A9B-137B-4040-B731-85284A6575D5";
shapes = (
{
closed = 1;
nodes = (
(440,1,l),
(118,450,l),
(18,450,l),
(339,1,l)
);
},
{
closed = 1;
nodes = (
(262,205,l),
(432,450,l),
(336,450,l),
(213,269,l)
);
},
{
closed = 1;
nodes = (
(111,1,l),
(256,205,l),
(207,269,l),
(17,1,l)
);
}
);
width = 457;
},
{
anchors = (
{
name = bottom;
pos = (230,0);
},
{
name = top;
pos = (230,450);
}
);
layerId = "4D009BB9-CCD0-4844-B12B-B6DC88771387";
shapes = (
{
closed = 1;
nodes = (
(440,1,l),
(118,450,l),
(18,450,l),
(339,1,l)
);
},
{
closed = 1;
nodes = (
(262,205,l),
(432,450,l),
(336,450,l),
(213,269,l)
);
},
{
closed = 1;
nodes = (
(111,1,l),
(256,205,l),
(207,269,l),
(17,1,l)
);
}
);
width = 457;
}
);
metricRight = "=|";
unicode = 120;
},
{
glyphname = y;
lastChange = "2025-11-15 17:09:45 +0000";
layers = (
{
anchors = (
{
name = bottom;
pos = (146,0);
},
{
name = top;
pos = (233,450);
}
);
background = {
anchors = (
{
name = bottom;
pos = (233,0);
},
{
name = top;
pos = (233,450);
}
);
shapes = (
{
closed = 1;
nodes = (
(92,-199,l),
(161,-199,o),
(198,-165,o),
(221,-104,cs),
(434,451,l),
(341,451,l),
(200,62,l),
(247,62,l),
(113,451,l),
(20,451,l),
(191,-21,l),
(177,22,l),
(149,-53,ls),
(134,-93,o),
(112,-119,o),
(72,-119,c),
(18,-119,l),
(18,-199,l)
);
}
);
};
layerId = "1B8EDE0E-D46F-48F9-B9C6-2CD34FEA95FD";
shapes = (
{
closed = 1;
nodes = (
(-33,-199,l),
(36,-199,o),
(79,-165,o),
(114,-104,cs),
(434,451,l),
(341,451,l),
(125,62,l),
(172,62,l),
(113,451,l),
(20,451,l),
(100,-21,l),
(94,22,l),
(52,-53,ls),
(29,-93,o),
(2,-119,o),
(-38,-119,c),
(-92,-119,l),
(-107,-199,l)
);
}
);
width = 407;
},
{
anchors = (
{
name = bottom;
pos = (210,0);
},
{
name = top;
pos = (210,450);
}
);
associatedMasterId = "1B8EDE0E-D46F-48F9-B9C6-2CD34FEA95FD";
layerId = "48DC3008-36D0-49E4-95D2-4550CE29E1F1";
name = "Nov 14, 25 at 13:37";
shapes = (
{
closed = 1;
nodes = (
(69,-199,l),
(138,-199,o),
(175,-165,o),
(198,-104,cs),
(411,451,l),
(318,451,l),
(177,62,l),
(224,62,l),
(90,451,l),
(-3,451,l),
(168,-21,l),
(154,22,l),
(126,-53,ls),
(111,-93,o),
(89,-119,o),
(49,-119,c),
(-5,-119,l),
(-5,-199,l)
);
}
);
width = 421;
},
{
anchors = (
{
name = bottom;
pos = (210,0);
},
{
name = top;
pos = (210,450);
}
);
layerId = "37597A9B-137B-4040-B731-85284A6575D5";
shapes = (
{
closed = 1;
nodes = (
(69,-199,l),
(138,-199,o),
(175,-165,o),
(198,-104,cs),
(411,451,l),
(318,451,l),
(177,62,l),
(224,62,l),
(90,451,l),
(-3,451,l),
(168,-21,l),
(154,22,l),
(126,-53,ls),
(111,-93,o),
(89,-119,o),
(49,-119,c),
(-5,-119,l),
(-5,-199,l)
);
}
);
width = 421;
},
{
anchors = (
{
name = bottom;
pos = (210,0);
},
{
name = top;
pos = (210,450);
}
);
layerId = "4D009BB9-CCD0-4844-B12B-B6DC88771387";
shapes = (
{
closed = 1;
nodes = (
(69,-199,l),
(138,-199,o),
(175,-165,o),
(198,-104,cs),
(411,451,l),
(318,451,l),
(177,62,l),
(224,62,l),
(90,451,l),
(-3,451,l),
(168,-21,l),
(154,22,l),
(126,-53,ls),
(111,-93,o),
(89,-119,o),
(49,-119,c),
(-5,-119,l),
(-5,-199,l)
);
}
);
width = 421;
}
);
metricLeft = "=V-20";
metricRight = "=v";
unicode = 121;
},
{
glyphname = z;
lastChange = "2025-11-15 17:09:45 +0000";
layers = (
{
anchors = (
{
name = bottom;
pos = (180,0);
},
{
name = center;
pos = (223,225);
},
{
name = top;
pos = (266,450);
}
);
background = {
anchors = (
{
name = bottom;
pos = (223,0);
},
{
name = center;
pos = (223,225);
},
{
name = top;
pos = (223,450);
}
);
shapes = (
{
closed = 1;
nodes = (
(51,55,l),
(51,0,l),
(392,0,l),
(392,72,l),
(163,72,l),
(392,395,l),
(392,450,l),
(51,450,l),
(51,378,l),
(281,378,l)
);
}
);
};
layerId = "1B8EDE0E-D46F-48F9-B9C6-2CD34FEA95FD";
shapes = (
{
closed = 1;
nodes = (
(18,55,l),
(8,0,l),
(349,0,l),
(363,72,l),
(134,72,l),
(425,395,l),
(435,450,l),
(94,450,l),
(80,378,l),
(310,378,l)
);
}
);
width = 443;
},
{
anchors = (
{
name = bottom;
pos = (224,0);
},
{
name = center;
pos = (224,225);
},
{
name = top;
pos = (224,450);
}
);
associatedMasterId = "1B8EDE0E-D46F-48F9-B9C6-2CD34FEA95FD";
layerId = "73BABCE5-7DD7-4A86-854E-A7EACFD5F479";
name = "Nov 14, 25 at 13:37";
shapes = (
{
closed = 1;
nodes = (
(52,55,l),
(52,0,l),
(393,0,l),
(393,72,l),
(164,72,l),
(393,395,l),
(393,450,l),
(52,450,l),
(52,378,l),
(282,378,l)
);
}
);
width = 445;
},
{
anchors = (
{
name = bottom;
pos = (224,0);
},
{
name = center;
pos = (224,225);
},
{
name = top;
pos = (224,450);
}
);
layerId = "37597A9B-137B-4040-B731-85284A6575D5";
shapes = (
{
closed = 1;
nodes = (
(52,55,l),
(52,0,l),
(393,0,l),
(393,72,l),
(164,72,l),
(393,395,l),
(393,450,l),
(52,450,l),
(52,378,l),
(282,378,l)
);
}
);
width = 445;
},
{
anchors = (
{
name = bottom;
pos = (224,0);
},
{
name = center;
pos = (224,225);
},
{
name = top;
pos = (224,450);
}
);
layerId = "4D009BB9-CCD0-4844-B12B-B6DC88771387";
shapes = (
{
closed = 1;
nodes = (
(52,55,l),
(52,0,l),
(393,0,l),
(393,72,l),
(164,72,l),
(393,395,l),
(393,450,l),
(52,450,l),
(52,378,l),
(282,378,l)
);
}
);
width = 445;
}
);
metricLeft = "=n-10";
metricRight = "=|";
unicode = 122;
},
{
glyphname = zero;
lastChange = "2025-11-15 17:09:45 +0000";
layers = (
{
layerId = "1B8EDE0E-D46F-48F9-B9C6-2CD34FEA95FD";
shapes = (
{
closed = 1;
nodes = (
(341,-12,o),
(455,40,o),
(455,217,cs),
(455,429,ls),
(455,610,o),
(341,662,o),
(251,662,cs),
(161,662,o),
(47,610,o),
(47,429,cs),
(47,217,ls),
(47,40,o),
(161,-12,o),
(251,-12,cs)
);
},
{
closed = 1;
nodes = (
(189,63,o),
(135,98,o),
(135,211,cs),
(135,435,ls),
(135,552,o),
(189,587,o),
(251,586,cs),
(313,585,o),
(367,552,o),
(367,435,cs),
(367,211,ls),
(367,98,o),
(313,65,o),
(251,64,cs)
);
}
);
width = 502;
},
{
layerId = "37597A9B-137B-4040-B731-85284A6575D5";
shapes = (
{
closed = 1;
nodes = (
(341,-12,o),
(455,40,o),
(455,217,cs),
(455,429,ls),
(455,610,o),
(341,662,o),
(251,662,cs),
(161,662,o),
(47,610,o),
(47,429,cs),
(47,217,ls),
(47,40,o),
(161,-12,o),
(251,-12,cs)
);
},
{
closed = 1;
nodes = (
(189,63,o),
(135,98,o),
(135,211,cs),
(135,435,ls),
(135,552,o),
(189,587,o),
(251,586,cs),
(313,585,o),
(367,552,o),
(367,435,cs),
(367,211,ls),
(367,98,o),
(313,65,o),
(251,64,cs)
);
}
);
width = 502;
},
{
layerId = "4D009BB9-CCD0-4844-B12B-B6DC88771387";
shapes = (
{
closed = 1;
nodes = (
(341,-12,o),
(455,40,o),
(455,217,cs),
(455,429,ls),
(455,610,o),
(341,662,o),
(251,662,cs),
(161,662,o),
(47,610,o),
(47,429,cs),
(47,217,ls),
(47,40,o),
(161,-12,o),
(251,-12,cs)
);
},
{
closed = 1;
nodes = (
(189,63,o),
(135,98,o),
(135,211,cs),
(135,435,ls),
(135,552,o),
(189,587,o),
(251,586,cs),
(313,585,o),
(367,552,o),
(367,435,cs),
(367,211,ls),
(367,98,o),
(313,65,o),
(251,64,cs)
);
}
);
width = 502;
}
);
metricLeft = "=O";
metricRight = "=|";
unicode = 48;
},
{
glyphname = one;
lastChange = "2025-11-15 17:09:45 +0000";
layers = (
{
layerId = "1B8EDE0E-D46F-48F9-B9C6-2CD34FEA95FD";
shapes = (
{
closed = 1;
nodes = (
(286,650,l),
(197,650,l),
(197,638,l),
(197,574,o),
(158,561,o),
(101,561,c),
(35,561,l),
(35,488,l),
(197,488,l),
(197,0,l),
(286,0,l)
);
}
);
width = 353;
},
{
layerId = "37597A9B-137B-4040-B731-85284A6575D5";
shapes = (
{
closed = 1;
nodes = (
(286,650,l),
(197,650,l),
(197,638,l),
(197,574,o),
(158,561,o),
(101,561,c),
(35,561,l),
(35,488,l),
(197,488,l),
(197,0,l),
(286,0,l)
);
}
);
width = 353;
},
{
layerId = "4D009BB9-CCD0-4844-B12B-B6DC88771387";
shapes = (
{
closed = 1;
nodes = (
(286,650,l),
(197,650,l),
(197,638,l),
(197,574,o),
(158,561,o),
(101,561,c),
(35,561,l),
(35,488,l),
(197,488,l),
(197,0,l),
(286,0,l)
);
}
);
width = 353;
}
);
metricRight = "=H";
unicode = 49;
},
{
glyphname = two;
lastChange = "2025-11-15 17:09:45 +0000";
layers = (
{
layerId = "1B8EDE0E-D46F-48F9-B9C6-2CD34FEA95FD";
shapes = (
{
closed = 1;
nodes = (
(464,0,l),
(464,76,l),
(145,76,l),
(160,41,l),
(363,263,ls),
(425,331,o),
(462,387,o),
(462,469,cs),
(462,604,o),
(370,662,o),
(261,662,cs),
(159,662,o),
(66,600,o),
(66,450,c),
(152,450,l),
(152,558,o),
(206,585,o),
(264,586,cs),
(323,587,o),
(378,554,o),
(378,466,cs),
(378,415,o),
(350,377,o),
(305,327,cs),
(60,55,l),
(60,0,l)
);
}
);
width = 500;
},
{
layerId = "37597A9B-137B-4040-B731-85284A6575D5";
shapes = (
{
closed = 1;
nodes = (
(464,0,l),
(464,76,l),
(145,76,l),
(160,41,l),
(363,263,ls),
(425,331,o),
(462,387,o),
(462,469,cs),
(462,604,o),
(370,662,o),
(261,662,cs),
(159,662,o),
(66,600,o),
(66,450,c),
(152,450,l),
(152,558,o),
(206,585,o),
(264,586,cs),
(323,587,o),
(378,554,o),
(378,466,cs),
(378,415,o),
(350,377,o),
(305,327,cs),
(60,55,l),
(60,0,l)
);
}
);
width = 500;
},
{
layerId = "4D009BB9-CCD0-4844-B12B-B6DC88771387";
shapes = (
{
closed = 1;
nodes = (
(464,0,l),
(464,76,l),
(145,76,l),
(160,41,l),
(363,263,ls),
(425,331,o),
(462,387,o),
(462,469,cs),
(462,604,o),
(370,662,o),
(261,662,cs),
(159,662,o),
(66,600,o),
(66,450,c),
(152,450,l),
(152,558,o),
(206,585,o),
(264,586,cs),
(323,587,o),
(378,554,o),
(378,466,cs),
(378,415,o),
(350,377,o),
(305,327,cs),
(60,55,l),
(60,0,l)
);
}
);
width = 500;
}
);
unicode = 50;
},
{
glyphname = three;
lastChange = "2025-11-15 17:09:45 +0000";
layers = (
{
layerId = "1B8EDE0E-D46F-48F9-B9C6-2CD34FEA95FD";
shapes = (
{
closed = 1;
nodes = (
(329,-12,o),
(443,37,o),
(443,178,c),
(443,191,l),
(443,332,o),
(329,382,o),
(241,382,c),
(241,306,l),
(293,306,o),
(355,284,o),
(355,191,cs),
(355,178,ls),
(355,85,o),
(293,64,o),
(241,64,cs),
(178,64,o),
(126,85,o),
(126,178,cs),
(126,185,l),
(38,185,l),
(38,177,l),
(38,37,o),
(142,-12,o),
(241,-12,cs)
);
},
{
closed = 1;
nodes = (
(241,306,l),
(309,306,o),
(423,355,o),
(423,475,c),
(423,490,l),
(423,613,o),
(319,662,o),
(241,662,cs),
(152,662,o),
(58,613,o),
(58,489,c),
(58,481,l),
(146,481,l),
(146,489,ls),
(146,565,o),
(188,586,o),
(241,586,cs),
(283,586,o),
(335,565,o),
(335,489,cs),
(335,476,ls),
(335,413,o),
(283,382,o),
(241,382,c)
);
},
{
closed = 1;
nodes = (
(217,306,l),
(241,306,l),
(241,382,l),
(217,382,l)
);
}
);
width = 490;
},
{
layerId = "37597A9B-137B-4040-B731-85284A6575D5";
shapes = (
{
closed = 1;
nodes = (
(329,-12,o),
(443,37,o),
(443,178,c),
(443,191,l),
(443,332,o),
(329,382,o),
(241,382,c),
(241,306,l),
(293,306,o),
(355,284,o),
(355,191,cs),
(355,178,ls),
(355,85,o),
(293,64,o),
(241,64,cs),
(178,64,o),
(126,85,o),
(126,178,cs),
(126,185,l),
(38,185,l),
(38,177,l),
(38,37,o),
(142,-12,o),
(241,-12,cs)
);
},
{
closed = 1;
nodes = (
(241,306,l),
(309,306,o),
(423,355,o),
(423,475,c),
(423,490,l),
(423,613,o),
(319,662,o),
(241,662,cs),
(152,662,o),
(58,613,o),
(58,489,c),
(58,481,l),
(146,481,l),
(146,489,ls),
(146,565,o),
(188,586,o),
(241,586,cs),
(283,586,o),
(335,565,o),
(335,489,cs),
(335,476,ls),
(335,413,o),
(283,382,o),
(241,382,c)
);
},
{
closed = 1;
nodes = (
(217,306,l),
(241,306,l),
(241,382,l),
(217,382,l)
);
}
);
width = 490;
},
{
layerId = "4D009BB9-CCD0-4844-B12B-B6DC88771387";
shapes = (
{
closed = 1;
nodes = (
(329,-12,o),
(443,37,o),
(443,178,c),
(443,191,l),
(443,332,o),
(329,382,o),
(241,382,c),
(241,306,l),
(293,306,o),
(355,284,o),
(355,191,cs),
(355,178,ls),
(355,85,o),
(293,64,o),
(241,64,cs),
(178,64,o),
(126,85,o),
(126,178,cs),
(126,185,l),
(38,185,l),
(38,177,l),
(38,37,o),
(142,-12,o),
(241,-12,cs)
);
},
{
closed = 1;
nodes = (
(241,306,l),
(309,306,o),
(423,355,o),
(423,475,c),
(423,490,l),
(423,613,o),
(319,662,o),
(241,662,cs),
(152,662,o),
(58,613,o),
(58,489,c),
(58,481,l),
(146,481,l),
(146,489,ls),
(146,565,o),
(188,586,o),
(241,586,cs),
(283,586,o),
(335,565,o),
(335,489,cs),
(335,476,ls),
(335,413,o),
(283,382,o),
(241,382,c)
);
},
{
closed = 1;
nodes = (
(217,306,l),
(241,306,l),
(241,382,l),
(217,382,l)
);
}
);
width = 490;
}
);
metricRight = "=O";
unicode = 51;
},
{
glyphname = four;
lastChange = "2025-11-15 17:09:45 +0000";
layers = (
{
layerId = "1B8EDE0E-D46F-48F9-B9C6-2CD34FEA95FD";
shapes = (
{
closed = 1;
nodes = (
(325,327,l),
(325,0,l),
(414,0,l),
(414,327,l)
);
},
{
closed = 1;
nodes = (
(77,113,l),
(488,113,l),
(488,189,l),
(183,189,l),
(410,650,l),
(320,650,l),
(77,170,l)
);
}
);
width = 508;
},
{
layerId = "37597A9B-137B-4040-B731-85284A6575D5";
shapes = (
{
closed = 1;
nodes = (
(325,327,l),
(325,0,l),
(414,0,l),
(414,327,l)
);
},
{
closed = 1;
nodes = (
(77,113,l),
(488,113,l),
(488,189,l),
(183,189,l),
(410,650,l),
(320,650,l),
(77,170,l)
);
}
);
width = 508;
},
{
layerId = "4D009BB9-CCD0-4844-B12B-B6DC88771387";
shapes = (
{
closed = 1;
nodes = (
(325,327,l),
(325,0,l),
(414,0,l),
(414,327,l)
);
},
{
closed = 1;
nodes = (
(77,113,l),
(488,113,l),
(488,189,l),
(183,189,l),
(410,650,l),
(320,650,l),
(77,170,l)
);
}
);
width = 508;
}
);
unicode = 52;
},
{
glyphname = five;
lastChange = "2025-11-15 17:09:45 +0000";
layers = (
{
background = {
shapes = (
{
closed = 1;
nodes = (
(333,-12,o),
(447,37,o),
(447,177,cs),
(447,282,ls),
(447,422,o),
(336,461,o),
(253,461,cs),
(160,461,o),
(105,413,o),
(105,323,c),
(65,310,l),
(149,310,l),
(149,363,o),
(195,385,o),
(253,385,cs),
(300,385,o),
(359,352,o),
(359,269,cs),
(359,189,ls),
(359,96,o),
(297,64,o),
(253,64,cs),
(192,64,o),
(148,86,o),
(148,189,cs),
(148,196,l),
(64,196,l),
(64,193,o),
(64,190,o),
(64,189,cs),
(64,188,o),
(64,188,o),
(64,188,c),
(64,38,o),
(156,-12,o),
(253,-12,cs)
);
}
);
};
layerId = "1B8EDE0E-D46F-48F9-B9C6-2CD34FEA95FD";
shapes = (
{
closed = 1;
nodes = (
(333,-12,o),
(445,47,o),
(445,177,cs),
(445,282,ls),
(445,412,o),
(336,461,o),
(253,461,cs),
(119,461,o),
(80,349,o),
(65,310,c),
(149,310,l),
(149,363,o),
(195,385,o),
(253,385,cs),
(300,385,o),
(359,352,o),
(359,269,cs),
(359,189,ls),
(359,96,o),
(297,64,o),
(253,64,cs),
(192,64,o),
(148,86,o),
(148,189,cs),
(148,196,l),
(64,196,l),
(64,188,l),
(64,48,o),
(156,-12,o),
(253,-12,cs)
);
},
{
closed = 1;
nodes = (
(154,339,l),
(154,574,l),
(421,574,l),
(421,650,l),
(67,650,l),
(65,310,l)
);
}
);
width = 492;
},
{
background = {
shapes = (
{
closed = 1;
nodes = (
(333,-12,o),
(447,37,o),
(447,177,cs),
(447,282,ls),
(447,422,o),
(336,461,o),
(253,461,cs),
(160,461,o),
(105,413,o),
(105,323,c),
(65,310,l),
(149,310,l),
(149,363,o),
(195,385,o),
(253,385,cs),
(300,385,o),
(359,352,o),
(359,269,cs),
(359,189,ls),
(359,96,o),
(297,64,o),
(253,64,cs),
(192,64,o),
(148,86,o),
(148,189,cs),
(148,196,l),
(64,196,l),
(64,193,o),
(64,190,o),
(64,189,cs),
(64,188,o),
(64,188,o),
(64,188,c),
(64,38,o),
(156,-12,o),
(253,-12,cs)
);
}
);
};
layerId = "37597A9B-137B-4040-B731-85284A6575D5";
shapes = (
{
closed = 1;
nodes = (
(333,-12,o),
(445,47,o),
(445,177,cs),
(445,282,ls),
(445,412,o),
(336,461,o),
(253,461,cs),
(119,461,o),
(80,349,o),
(65,310,c),
(149,310,l),
(149,363,o),
(195,385,o),
(253,385,cs),
(300,385,o),
(359,352,o),
(359,269,cs),
(359,189,ls),
(359,96,o),
(297,64,o),
(253,64,cs),
(192,64,o),
(148,86,o),
(148,189,cs),
(148,196,l),
(64,196,l),
(64,188,l),
(64,48,o),
(156,-12,o),
(253,-12,cs)
);
},
{
closed = 1;
nodes = (
(154,339,l),
(154,574,l),
(421,574,l),
(421,650,l),
(67,650,l),
(65,310,l)
);
}
);
width = 492;
},
{
background = {
shapes = (
{
closed = 1;
nodes = (
(333,-12,o),
(447,37,o),
(447,177,cs),
(447,282,ls),
(447,422,o),
(336,461,o),
(253,461,cs),
(160,461,o),
(105,413,o),
(105,323,c),
(65,310,l),
(149,310,l),
(149,363,o),
(195,385,o),
(253,385,cs),
(300,385,o),
(359,352,o),
(359,269,cs),
(359,189,ls),
(359,96,o),
(297,64,o),
(253,64,cs),
(192,64,o),
(148,86,o),
(148,189,cs),
(148,196,l),
(64,196,l),
(64,193,o),
(64,190,o),
(64,189,cs),
(64,188,o),
(64,188,o),
(64,188,c),
(64,38,o),
(156,-12,o),
(253,-12,cs)
);
}
);
};
layerId = "4D009BB9-CCD0-4844-B12B-B6DC88771387";
shapes = (
{
closed = 1;
nodes = (
(333,-12,o),
(445,47,o),
(445,177,cs),
(445,282,ls),
(445,412,o),
(336,461,o),
(253,461,cs),
(119,461,o),
(80,349,o),
(65,310,c),
(149,310,l),
(149,363,o),
(195,385,o),
(253,385,cs),
(300,385,o),
(359,352,o),
(359,269,cs),
(359,189,ls),
(359,96,o),
(297,64,o),
(253,64,cs),
(192,64,o),
(148,86,o),
(148,189,cs),
(148,196,l),
(64,196,l),
(64,188,l),
(64,48,o),
(156,-12,o),
(253,-12,cs)
);
},
{
closed = 1;
nodes = (
(154,339,l),
(154,574,l),
(421,574,l),
(421,650,l),
(67,650,l),
(65,310,l)
);
}
);
width = 492;
}
);
metricRight = "=O";
unicode = 53;
},
{
glyphname = six;
lastChange = "2025-11-15 17:09:45 +0000";
layers = (
{
layerId = "1B8EDE0E-D46F-48F9-B9C6-2CD34FEA95FD";
shapes = (
{
closed = 1;
nodes = (
(371,105,o),
(309,64,o),
(252,64,cs),
(184,64,o),
(132,105,o),
(132,178,c),
(132,202,l),
(132,277,o),
(191,315,o),
(252,315,cs),
(306,315,o),
(370,277,o),
(371,203,c),
(371,178,l)
);
},
{
closed = 1;
nodes = (
(345,-12,o),
(459,47,o),
(459,177,c),
(459,201,l),
(459,336,o),
(339,391,o),
(252,391,cs),
(180,391,o),
(146,362,o),
(102,307,c),
(182,347,l),
(379,651,l),
(280,651,l),
(136,428,ls),
(71,325,o),
(44,256,o),
(44,195,cs),
(44,195,o),
(44,177,o),
(44,177,cs),
(44,37,o),
(148,-12,o),
(252,-12,cs)
);
}
);
width = 500;
},
{
layerId = "37597A9B-137B-4040-B731-85284A6575D5";
shapes = (
{
closed = 1;
nodes = (
(371,105,o),
(309,64,o),
(252,64,cs),
(184,64,o),
(132,105,o),
(132,178,c),
(132,202,l),
(132,277,o),
(191,315,o),
(252,315,cs),
(306,315,o),
(370,277,o),
(371,203,c),
(371,178,l)
);
},
{
closed = 1;
nodes = (
(345,-12,o),
(459,47,o),
(459,177,c),
(459,201,l),
(459,336,o),
(339,391,o),
(252,391,cs),
(180,391,o),
(146,362,o),
(102,307,c),
(182,347,l),
(379,651,l),
(280,651,l),
(136,428,ls),
(71,325,o),
(44,256,o),
(44,195,cs),
(44,195,o),
(44,177,o),
(44,177,cs),
(44,37,o),
(148,-12,o),
(252,-12,cs)
);
}
);
width = 500;
},
{
layerId = "4D009BB9-CCD0-4844-B12B-B6DC88771387";
shapes = (
{
closed = 1;
nodes = (
(371,105,o),
(309,64,o),
(252,64,cs),
(184,64,o),
(132,105,o),
(132,178,c),
(132,202,l),
(132,277,o),
(191,315,o),
(252,315,cs),
(306,315,o),
(370,277,o),
(371,203,c),
(371,178,l)
);
},
{
closed = 1;
nodes = (
(345,-12,o),
(459,47,o),
(459,177,c),
(459,201,l),
(459,336,o),
(339,391,o),
(252,391,cs),
(180,391,o),
(146,362,o),
(102,307,c),
(182,347,l),
(379,651,l),
(280,651,l),
(136,428,ls),
(71,325,o),
(44,256,o),
(44,195,cs),
(44,195,o),
(44,177,o),
(44,177,cs),
(44,37,o),
(148,-12,o),
(252,-12,cs)
);
}
);
width = 500;
}
);
unicode = 54;
},
{
glyphname = seven;
lastChange = "2025-11-15 17:09:45 +0000";
layers = (
{
layerId = "1B8EDE0E-D46F-48F9-B9C6-2CD34FEA95FD";
shapes = (
{
closed = 1;
nodes = (
(199,0,l),
(429,597,l),
(429,650,l),
(25,650,l),
(25,574,l),
(380,574,l),
(347,619,l),
(108,0,l)
);
}
);
width = 470;
},
{
layerId = "37597A9B-137B-4040-B731-85284A6575D5";
shapes = (
{
closed = 1;
nodes = (
(199,0,l),
(429,597,l),
(429,650,l),
(25,650,l),
(25,574,l),
(380,574,l),
(347,619,l),
(108,0,l)
);
}
);
width = 470;
},
{
layerId = "4D009BB9-CCD0-4844-B12B-B6DC88771387";
shapes = (
{
closed = 1;
nodes = (
(199,0,l),
(429,597,l),
(429,650,l),
(25,650,l),
(25,574,l),
(380,574,l),
(347,619,l),
(108,0,l)
);
}
);
width = 470;
}
);
unicode = 55;
},
{
glyphname = eight;
lastChange = "2025-11-15 17:09:45 +0000";
layers = (
{
layerId = "1B8EDE0E-D46F-48F9-B9C6-2CD34FEA95FD";
shapes = (
{
closed = 1;
nodes = (
(338,-12,o),
(442,32,o),
(442,167,cs),
(442,202,ls),
(442,312,o),
(328,379,o),
(245,379,cs),
(151,379,o),
(47,312,o),
(47,202,c),
(47,167,l),
(47,42,o),
(151,-12,o),
(245,-12,cs)
);
},
{
closed = 1;
nodes = (
(187,64,o),
(135,101,o),
(135,168,cs),
(135,201,ls),
(135,277,o),
(187,309,o),
(245,309,cs),
(292,309,o),
(354,277,o),
(354,201,cs),
(354,168,ls),
(354,91,o),
(292,64,o),
(245,64,cs)
);
},
{
closed = 1;
nodes = (
(318,309,o),
(422,355,o),
(422,475,cs),
(422,490,ls),
(422,613,o),
(328,662,o),
(245,662,cs),
(151,662,o),
(67,613,o),
(67,490,c),
(67,475,l),
(67,355,o),
(161,309,o),
(245,309,cs)
);
},
{
closed = 1;
nodes = (
(187,379,o),
(155,411,o),
(155,476,cs),
(155,489,ls),
(155,554,o),
(187,586,o),
(245,586,cs),
(292,586,o),
(334,554,o),
(334,489,cs),
(334,476,ls),
(334,411,o),
(292,379,o),
(245,379,cs)
);
}
);
width = 489;
},
{
layerId = "37597A9B-137B-4040-B731-85284A6575D5";
shapes = (
{
closed = 1;
nodes = (
(338,-12,o),
(442,32,o),
(442,167,cs),
(442,202,ls),
(442,312,o),
(328,379,o),
(245,379,cs),
(151,379,o),
(47,312,o),
(47,202,c),
(47,167,l),
(47,42,o),
(151,-12,o),
(245,-12,cs)
);
},
{
closed = 1;
nodes = (
(187,64,o),
(135,101,o),
(135,168,cs),
(135,201,ls),
(135,277,o),
(187,309,o),
(245,309,cs),
(292,309,o),
(354,277,o),
(354,201,cs),
(354,168,ls),
(354,91,o),
(292,64,o),
(245,64,cs)
);
},
{
closed = 1;
nodes = (
(318,309,o),
(422,355,o),
(422,475,cs),
(422,490,ls),
(422,613,o),
(328,662,o),
(245,662,cs),
(151,662,o),
(67,613,o),
(67,490,c),
(67,475,l),
(67,355,o),
(161,309,o),
(245,309,cs)
);
},
{
closed = 1;
nodes = (
(187,379,o),
(155,411,o),
(155,476,cs),
(155,489,ls),
(155,554,o),
(187,586,o),
(245,586,cs),
(292,586,o),
(334,554,o),
(334,489,cs),
(334,476,ls),
(334,411,o),
(292,379,o),
(245,379,cs)
);
}
);
width = 489;
},
{
layerId = "4D009BB9-CCD0-4844-B12B-B6DC88771387";
shapes = (
{
closed = 1;
nodes = (
(338,-12,o),
(442,32,o),
(442,167,cs),
(442,202,ls),
(442,312,o),
(328,379,o),
(245,379,cs),
(151,379,o),
(47,312,o),
(47,202,c),
(47,167,l),
(47,42,o),
(151,-12,o),
(245,-12,cs)
);
},
{
closed = 1;
nodes = (
(187,64,o),
(135,101,o),
(135,168,cs),
(135,201,ls),
(135,277,o),
(187,309,o),
(245,309,cs),
(292,309,o),
(354,277,o),
(354,201,cs),
(354,168,ls),
(354,91,o),
(292,64,o),
(245,64,cs)
);
},
{
closed = 1;
nodes = (
(318,309,o),
(422,355,o),
(422,475,cs),
(422,490,ls),
(422,613,o),
(328,662,o),
(245,662,cs),
(151,662,o),
(67,613,o),
(67,490,c),
(67,475,l),
(67,355,o),
(161,309,o),
(245,309,cs)
);
},
{
closed = 1;
nodes = (
(187,379,o),
(155,411,o),
(155,476,cs),
(155,489,ls),
(155,554,o),
(187,586,o),
(245,586,cs),
(292,586,o),
(334,554,o),
(334,489,cs),
(334,476,ls),
(334,411,o),
(292,379,o),
(245,379,cs)
);
}
);
width = 489;
}
);
metricLeft = "=O";
metricRight = "=|";
unicode = 56;
},
{
glyphname = nine;
lastChange = "2025-11-15 17:09:45 +0000";
layers = (
{
layerId = "1B8EDE0E-D46F-48F9-B9C6-2CD34FEA95FD";
shapes = (
{
closed = 1;
nodes = (
(129,546,o),
(191,587,o),
(248,587,cs),
(316,587,o),
(368,546,o),
(368,473,c),
(368,449,l),
(368,374,o),
(309,336,o),
(248,336,cs),
(194,336,o),
(130,374,o),
(129,448,c),
(129,473,l)
);
},
{
closed = 1;
nodes = (
(155,663,o),
(41,604,o),
(41,474,c),
(41,450,l),
(41,315,o),
(161,260,o),
(248,260,cs),
(320,260,o),
(354,289,o),
(398,344,c),
(318,304,l),
(121,0,l),
(220,0,l),
(364,223,ls),
(429,326,o),
(456,395,o),
(456,456,cs),
(456,456,o),
(456,474,o),
(456,474,cs),
(456,614,o),
(352,663,o),
(248,663,cs)
);
}
);
width = 500;
},
{
layerId = "37597A9B-137B-4040-B731-85284A6575D5";
shapes = (
{
closed = 1;
nodes = (
(129,546,o),
(191,587,o),
(248,587,cs),
(316,587,o),
(368,546,o),
(368,473,c),
(368,449,l),
(368,374,o),
(309,336,o),
(248,336,cs),
(194,336,o),
(130,374,o),
(129,448,c),
(129,473,l)
);
},
{
closed = 1;
nodes = (
(155,663,o),
(41,604,o),
(41,474,c),
(41,450,l),
(41,315,o),
(161,260,o),
(248,260,cs),
(320,260,o),
(354,289,o),
(398,344,c),
(318,304,l),
(121,0,l),
(220,0,l),
(364,223,ls),
(429,326,o),
(456,395,o),
(456,456,cs),
(456,456,o),
(456,474,o),
(456,474,cs),
(456,614,o),
(352,663,o),
(248,663,cs)
);
}
);
width = 500;
},
{
layerId = "4D009BB9-CCD0-4844-B12B-B6DC88771387";
shapes = (
{
closed = 1;
nodes = (
(129,546,o),
(191,587,o),
(248,587,cs),
(316,587,o),
(368,546,o),
(368,473,c),
(368,449,l),
(368,374,o),
(309,336,o),
(248,336,cs),
(194,336,o),
(130,374,o),
(129,448,c),
(129,473,l)
);
},
{
closed = 1;
nodes = (
(155,663,o),
(41,604,o),
(41,474,c),
(41,450,l),
(41,315,o),
(161,260,o),
(248,260,cs),
(320,260,o),
(354,289,o),
(398,344,c),
(318,304,l),
(121,0,l),
(220,0,l),
(364,223,ls),
(429,326,o),
(456,395,o),
(456,456,cs),
(456,456,o),
(456,474,o),
(456,474,cs),
(456,614,o),
(352,663,o),
(248,663,cs)
);
}
);
width = 500;
}
);
unicode = 57;
},
{
glyphname = period;
lastChange = "2025-11-15 17:09:45 +0000";
layers = (
{
layerId = "1B8EDE0E-D46F-48F9-B9C6-2CD34FEA95FD";
shapes = (
{
closed = 1;
nodes = (
(118,-12,o),
(137,9,o),
(137,45,cs),
(137,79,o),
(118,99,o),
(81,99,cs),
(44,99,o),
(25,79,o),
(25,45,cs),
(25,9,o),
(44,-12,o),
(81,-12,cs)
);
}
);
width = 162;
},
{
layerId = "37597A9B-137B-4040-B731-85284A6575D5";
shapes = (
{
closed = 1;
nodes = (
(118,-12,o),
(137,9,o),
(137,45,cs),
(137,79,o),
(118,99,o),
(81,99,cs),
(44,99,o),
(25,79,o),
(25,45,cs),
(25,9,o),
(44,-12,o),
(81,-12,cs)
);
}
);
width = 162;
},
{
layerId = "4D009BB9-CCD0-4844-B12B-B6DC88771387";
shapes = (
{
closed = 1;
nodes = (
(118,-12,o),
(137,9,o),
(137,45,cs),
(137,79,o),
(118,99,o),
(81,99,cs),
(44,99,o),
(25,79,o),
(25,45,cs),
(25,9,o),
(44,-12,o),
(81,-12,cs)
);
}
);
width = 162;
}
);
metricRight = "=|";
unicode = 46;
},
{
glyphname = comma;
lastChange = "2025-11-15 17:09:45 +0000";
layers = (
{
layerId = "1B8EDE0E-D46F-48F9-B9C6-2CD34FEA95FD";
shapes = (
{
closed = 1;
nodes = (
(115,-64,o),
(138,-28,o),
(138,31,cs),
(138,90,o),
(124,103,o),
(80,103,cs),
(36,103,o),
(22,90,o),
(22,45,cs),
(22,-8,o),
(44,-12,o),
(66,-12,cs),
(72,-12,o),
(81,-11,o),
(88,-8,c),
(84,-36,o),
(70,-55,o),
(53,-73,c),
(79,-102,l)
);
}
);
width = 180;
},
{
layerId = "37597A9B-137B-4040-B731-85284A6575D5";
shapes = (
{
closed = 1;
nodes = (
(115,-64,o),
(138,-28,o),
(138,31,cs),
(138,90,o),
(124,103,o),
(80,103,cs),
(36,103,o),
(22,90,o),
(22,45,cs),
(22,-8,o),
(44,-12,o),
(66,-12,cs),
(72,-12,o),
(81,-11,o),
(88,-8,c),
(84,-36,o),
(70,-55,o),
(53,-73,c),
(79,-102,l)
);
}
);
width = 180;
},
{
layerId = "4D009BB9-CCD0-4844-B12B-B6DC88771387";
shapes = (
{
closed = 1;
nodes = (
(115,-64,o),
(138,-28,o),
(138,31,cs),
(138,90,o),
(124,103,o),
(80,103,cs),
(36,103,o),
(22,90,o),
(22,45,cs),
(22,-8,o),
(44,-12,o),
(66,-12,cs),
(72,-12,o),
(81,-11,o),
(88,-8,c),
(84,-36,o),
(70,-55,o),
(53,-73,c),
(79,-102,l)
);
}
);
width = 180;
}
);
unicode = 44;
},
{
glyphname = colon;
lastChange = "2025-11-15 17:09:45 +0000";
layers = (
{
layerId = "1B8EDE0E-D46F-48F9-B9C6-2CD34FEA95FD";
shapes = (
{
closed = 1;
nodes = (
(125,-12,o),
(137,2,o),
(137,45,cs),
(137,86,o),
(125,99,o),
(81,99,cs),
(37,99,o),
(25,86,o),
(25,45,cs),
(25,2,o),
(37,-12,o),
(81,-12,cs)
);
},
{
closed = 1;
nodes = (
(125,291,o),
(137,305,o),
(137,348,cs),
(137,390,o),
(125,403,o),
(81,403,cs),
(37,403,o),
(25,390,o),
(25,348,cs),
(25,305,o),
(37,291,o),
(81,291,cs)
);
}
);
width = 162;
},
{
layerId = "37597A9B-137B-4040-B731-85284A6575D5";
shapes = (
{
closed = 1;
nodes = (
(125,-12,o),
(137,2,o),
(137,45,cs),
(137,86,o),
(125,99,o),
(81,99,cs),
(37,99,o),
(25,86,o),
(25,45,cs),
(25,2,o),
(37,-12,o),
(81,-12,cs)
);
},
{
closed = 1;
nodes = (
(125,291,o),
(137,305,o),
(137,348,cs),
(137,390,o),
(125,403,o),
(81,403,cs),
(37,403,o),
(25,390,o),
(25,348,cs),
(25,305,o),
(37,291,o),
(81,291,cs)
);
}
);
width = 162;
},
{
layerId = "4D009BB9-CCD0-4844-B12B-B6DC88771387";
shapes = (
{
closed = 1;
nodes = (
(125,-12,o),
(137,2,o),
(137,45,cs),
(137,86,o),
(125,99,o),
(81,99,cs),
(37,99,o),
(25,86,o),
(25,45,cs),
(25,2,o),
(37,-12,o),
(81,-12,cs)
);
},
{
closed = 1;
nodes = (
(125,291,o),
(137,305,o),
(137,348,cs),
(137,390,o),
(125,403,o),
(81,403,cs),
(37,403,o),
(25,390,o),
(25,348,cs),
(25,305,o),
(37,291,o),
(81,291,cs)
);
}
);
width = 162;
}
);
metricRight = "=|";
unicode = 58;
},
{
glyphname = semicolon;
lastChange = "2025-11-15 17:09:45 +0000";
layers = (
{
layerId = "1B8EDE0E-D46F-48F9-B9C6-2CD34FEA95FD";
shapes = (
{
closed = 1;
nodes = (
(125,291,o),
(137,305,o),
(137,348,cs),
(137,390,o),
(125,403,o),
(81,403,cs),
(37,403,o),
(25,390,o),
(25,348,cs),
(25,305,o),
(37,291,o),
(81,291,cs)
);
},
{
closed = 1;
nodes = (
(115,-64,o),
(138,-28,o),
(138,31,cs),
(138,90,o),
(124,103,o),
(80,103,cs),
(36,103,o),
(22,90,o),
(22,45,cs),
(22,-8,o),
(44,-12,o),
(66,-12,cs),
(72,-12,o),
(81,-11,o),
(88,-8,c),
(84,-36,o),
(70,-55,o),
(53,-73,c),
(79,-102,l)
);
}
);
width = 160;
},
{
layerId = "37597A9B-137B-4040-B731-85284A6575D5";
shapes = (
{
closed = 1;
nodes = (
(125,291,o),
(137,305,o),
(137,348,cs),
(137,390,o),
(125,403,o),
(81,403,cs),
(37,403,o),
(25,390,o),
(25,348,cs),
(25,305,o),
(37,291,o),
(81,291,cs)
);
},
{
closed = 1;
nodes = (
(115,-64,o),
(138,-28,o),
(138,31,cs),
(138,90,o),
(124,103,o),
(80,103,cs),
(36,103,o),
(22,90,o),
(22,45,cs),
(22,-8,o),
(44,-12,o),
(66,-12,cs),
(72,-12,o),
(81,-11,o),
(88,-8,c),
(84,-36,o),
(70,-55,o),
(53,-73,c),
(79,-102,l)
);
}
);
width = 160;
},
{
layerId = "4D009BB9-CCD0-4844-B12B-B6DC88771387";
shapes = (
{
closed = 1;
nodes = (
(125,291,o),
(137,305,o),
(137,348,cs),
(137,390,o),
(125,403,o),
(81,403,cs),
(37,403,o),
(25,390,o),
(25,348,cs),
(25,305,o),
(37,291,o),
(81,291,cs)
);
},
{
closed = 1;
nodes = (
(115,-64,o),
(138,-28,o),
(138,31,cs),
(138,90,o),
(124,103,o),
(80,103,cs),
(36,103,o),
(22,90,o),
(22,45,cs),
(22,-8,o),
(44,-12,o),
(66,-12,cs),
(72,-12,o),
(81,-11,o),
(88,-8,c),
(84,-36,o),
(70,-55,o),
(53,-73,c),
(79,-102,l)
);
}
);
width = 160;
}
);
metricRight = "=|";
unicode = 59;
},
{
glyphname = exclam;
lastChange = "2025-11-15 17:09:45 +0000";
layers = (
{
layerId = "1B8EDE0E-D46F-48F9-B9C6-2CD34FEA95FD";
shapes = (
{
closed = 1;
nodes = (
(154,157,l),
(164,401,l),
(164,650,l),
(71,650,l),
(71,401,l),
(82,157,l)
);
},
{
closed = 1;
nodes = (
(157,-13,o),
(169,-1,o),
(169,38,cs),
(169,77,o),
(157,88,o),
(118,88,cs),
(79,88,o),
(67,77,o),
(67,38,cs),
(67,-1,o),
(79,-13,o),
(118,-13,cs)
);
}
);
width = 236;
},
{
layerId = "37597A9B-137B-4040-B731-85284A6575D5";
shapes = (
{
closed = 1;
nodes = (
(154,157,l),
(164,401,l),
(164,650,l),
(71,650,l),
(71,401,l),
(82,157,l)
);
},
{
closed = 1;
nodes = (
(157,-13,o),
(169,-1,o),
(169,38,cs),
(169,77,o),
(157,88,o),
(118,88,cs),
(79,88,o),
(67,77,o),
(67,38,cs),
(67,-1,o),
(79,-13,o),
(118,-13,cs)
);
}
);
width = 236;
},
{
layerId = "4D009BB9-CCD0-4844-B12B-B6DC88771387";
shapes = (
{
closed = 1;
nodes = (
(154,157,l),
(164,401,l),
(164,650,l),
(71,650,l),
(71,401,l),
(82,157,l)
);
},
{
closed = 1;
nodes = (
(157,-13,o),
(169,-1,o),
(169,38,cs),
(169,77,o),
(157,88,o),
(118,88,cs),
(79,88,o),
(67,77,o),
(67,38,cs),
(67,-1,o),
(79,-13,o),
(118,-13,cs)
);
}
);
width = 236;
}
);
metricLeft = "=H";
metricRight = "=|";
unicode = 33;
},
{
glyphname = exclamdown;
lastChange = "2025-11-15 17:09:45 +0000";
layers = (
{
layerId = "1B8EDE0E-D46F-48F9-B9C6-2CD34FEA95FD";
shapes = (
{
closed = 1;
nodes = (
(82,293,l),
(72,49,l),
(72,-200,l),
(165,-200,l),
(165,49,l),
(154,293,l)
);
},
{
closed = 1;
nodes = (
(79,463,o),
(67,451,o),
(67,412,cs),
(67,374,o),
(79,362,o),
(118,362,cs),
(157,362,o),
(169,374,o),
(169,412,cs),
(169,451,o),
(157,463,o),
(118,463,cs)
);
}
);
width = 236;
},
{
layerId = "37597A9B-137B-4040-B731-85284A6575D5";
shapes = (
{
closed = 1;
nodes = (
(82,293,l),
(72,49,l),
(72,-200,l),
(165,-200,l),
(165,49,l),
(154,293,l)
);
},
{
closed = 1;
nodes = (
(79,463,o),
(67,451,o),
(67,412,cs),
(67,374,o),
(79,362,o),
(118,362,cs),
(157,362,o),
(169,374,o),
(169,412,cs),
(169,451,o),
(157,463,o),
(118,463,cs)
);
}
);
width = 236;
},
{
layerId = "4D009BB9-CCD0-4844-B12B-B6DC88771387";
shapes = (
{
closed = 1;
nodes = (
(82,293,l),
(72,49,l),
(72,-200,l),
(165,-200,l),
(165,49,l),
(154,293,l)
);
},
{
closed = 1;
nodes = (
(79,463,o),
(67,451,o),
(67,412,cs),
(67,374,o),
(79,362,o),
(118,362,cs),
(157,362,o),
(169,374,o),
(169,412,cs),
(169,451,o),
(157,463,o),
(118,463,cs)
);
}
);
width = 236;
}
);
metricLeft = "=H";
metricRight = "=H";
unicode = 161;
},
{
glyphname = question;
lastChange = "2025-11-15 17:09:45 +0000";
layers = (
{
layerId = "1B8EDE0E-D46F-48F9-B9C6-2CD34FEA95FD";
shapes = (
{
closed = 1;
nodes = (
(229,-12,o),
(241,-1,o),
(241,41,cs),
(241,83,o),
(229,94,o),
(188,94,cs),
(146,94,o),
(135,83,o),
(135,41,cs),
(135,-1,o),
(146,-12,o),
(188,-12,cs)
);
},
{
closed = 1;
nodes = (
(229,146,l),
(229,178,ls),
(229,223,o),
(302,277,o),
(324,296,cs),
(352,320,o),
(414,361,o),
(414,462,cs),
(414,606,o),
(325,662,o),
(216,662,cs),
(104,662,o),
(19,606,o),
(19,450,c),
(106,450,l),
(106,540,o),
(146,585,o),
(216,586,cs),
(280,586,o),
(322,540,o),
(322,459,cs),
(322,410,o),
(271,362,o),
(248,341,cs),
(224,319,o),
(143,261,o),
(143,197,cs),
(143,146,l)
);
}
);
width = 433;
},
{
layerId = "37597A9B-137B-4040-B731-85284A6575D5";
shapes = (
{
closed = 1;
nodes = (
(229,-12,o),
(241,-1,o),
(241,41,cs),
(241,83,o),
(229,94,o),
(188,94,cs),
(146,94,o),
(135,83,o),
(135,41,cs),
(135,-1,o),
(146,-12,o),
(188,-12,cs)
);
},
{
closed = 1;
nodes = (
(229,146,l),
(229,178,ls),
(229,223,o),
(302,277,o),
(324,296,cs),
(352,320,o),
(414,361,o),
(414,462,cs),
(414,606,o),
(325,662,o),
(216,662,cs),
(104,662,o),
(19,606,o),
(19,450,c),
(106,450,l),
(106,540,o),
(146,585,o),
(216,586,cs),
(280,586,o),
(322,540,o),
(322,459,cs),
(322,410,o),
(271,362,o),
(248,341,cs),
(224,319,o),
(143,261,o),
(143,197,cs),
(143,146,l)
);
}
);
width = 433;
},
{
layerId = "4D009BB9-CCD0-4844-B12B-B6DC88771387";
shapes = (
{
closed = 1;
nodes = (
(229,-12,o),
(241,-1,o),
(241,41,cs),
(241,83,o),
(229,94,o),
(188,94,cs),
(146,94,o),
(135,83,o),
(135,41,cs),
(135,-1,o),
(146,-12,o),
(188,-12,cs)
);
},
{
closed = 1;
nodes = (
(229,146,l),
(229,178,ls),
(229,223,o),
(302,277,o),
(324,296,cs),
(352,320,o),
(414,361,o),
(414,462,cs),
(414,606,o),
(325,662,o),
(216,662,cs),
(104,662,o),
(19,606,o),
(19,450,c),
(106,450,l),
(106,540,o),
(146,585,o),
(216,586,cs),
(280,586,o),
(322,540,o),
(322,459,cs),
(322,410,o),
(271,362,o),
(248,341,cs),
(224,319,o),
(143,261,o),
(143,197,cs),
(143,146,l)
);
}
);
width = 433;
}
);
unicode = 63;
},
{
glyphname = questiondown;
lastChange = "2025-11-15 17:09:45 +0000";
layers = (
{
layerId = "1B8EDE0E-D46F-48F9-B9C6-2CD34FEA95FD";
shapes = (
{
closed = 1;
nodes = (
(204,463,o),
(192,452,o),
(192,410,cs),
(192,368,o),
(204,357,o),
(245,357,cs),
(287,357,o),
(298,368,o),
(298,410,cs),
(298,452,o),
(287,463,o),
(245,463,cs)
);
},
{
closed = 1;
nodes = (
(205,305,l),
(205,273,ls),
(205,228,o),
(129,173,o),
(110,155,cs),
(83,129,o),
(19,74,o),
(19,-11,cs),
(19,-155,o),
(109,-211,o),
(218,-211,cs),
(330,-211,o),
(414,-155,o),
(414,1,c),
(327,1,l),
(327,-97,o),
(280,-134,o),
(218,-135,cs),
(151,-136,o),
(112,-97,o),
(112,-9,cs),
(112,41,o),
(162,89,o),
(185,110,cs),
(209,132,o),
(291,190,o),
(291,254,cs),
(291,305,l)
);
}
);
width = 433;
},
{
layerId = "37597A9B-137B-4040-B731-85284A6575D5";
shapes = (
{
closed = 1;
nodes = (
(204,463,o),
(192,452,o),
(192,410,cs),
(192,368,o),
(204,357,o),
(245,357,cs),
(287,357,o),
(298,368,o),
(298,410,cs),
(298,452,o),
(287,463,o),
(245,463,cs)
);
},
{
closed = 1;
nodes = (
(205,305,l),
(205,273,ls),
(205,228,o),
(129,173,o),
(110,155,cs),
(83,129,o),
(19,74,o),
(19,-11,cs),
(19,-155,o),
(109,-211,o),
(218,-211,cs),
(330,-211,o),
(414,-155,o),
(414,1,c),
(327,1,l),
(327,-97,o),
(280,-134,o),
(218,-135,cs),
(151,-136,o),
(112,-97,o),
(112,-9,cs),
(112,41,o),
(162,89,o),
(185,110,cs),
(209,132,o),
(291,190,o),
(291,254,cs),
(291,305,l)
);
}
);
width = 433;
},
{
layerId = "4D009BB9-CCD0-4844-B12B-B6DC88771387";
shapes = (
{
closed = 1;
nodes = (
(204,463,o),
(192,452,o),
(192,410,cs),
(192,368,o),
(204,357,o),
(245,357,cs),
(287,357,o),
(298,368,o),
(298,410,cs),
(298,452,o),
(287,463,o),
(245,463,cs)
);
},
{
closed = 1;
nodes = (
(205,305,l),
(205,273,ls),
(205,228,o),
(129,173,o),
(110,155,cs),
(83,129,o),
(19,74,o),
(19,-11,cs),
(19,-155,o),
(109,-211,o),
(218,-211,cs),
(330,-211,o),
(414,-155,o),
(414,1,c),
(327,1,l),
(327,-97,o),
(280,-134,o),
(218,-135,cs),
(151,-136,o),
(112,-97,o),
(112,-9,cs),
(112,41,o),
(162,89,o),
(185,110,cs),
(209,132,o),
(291,190,o),
(291,254,cs),
(291,305,l)
);
}
);
width = 433;
}
);
unicode = 191;
},
{
glyphname = periodcentered;
lastChange = "2025-11-15 17:09:45 +0000";
layers = (
{
layerId = "1B8EDE0E-D46F-48F9-B9C6-2CD34FEA95FD";
shapes = (
{
closed = 1;
nodes = (
(125,281,o),
(137,294,o),
(137,338,cs),
(137,379,o),
(125,392,o),
(81,392,cs),
(37,392,o),
(25,379,o),
(25,338,cs),
(25,294,o),
(37,281,o),
(81,281,cs)
);
}
);
width = 162;
},
{
layerId = "37597A9B-137B-4040-B731-85284A6575D5";
shapes = (
{
closed = 1;
nodes = (
(125,281,o),
(137,294,o),
(137,338,cs),
(137,379,o),
(125,392,o),
(81,392,cs),
(37,392,o),
(25,379,o),
(25,338,cs),
(25,294,o),
(37,281,o),
(81,281,cs)
);
}
);
width = 162;
},
{
layerId = "4D009BB9-CCD0-4844-B12B-B6DC88771387";
shapes = (
{
closed = 1;
nodes = (
(125,281,o),
(137,294,o),
(137,338,cs),
(137,379,o),
(125,392,o),
(81,392,cs),
(37,392,o),
(25,379,o),
(25,338,cs),
(25,294,o),
(37,281,o),
(81,281,cs)
);
}
);
width = 162;
}
);
metricRight = "=|";
unicode = 183;
},
{
glyphname = bullet;
lastChange = "2025-11-15 17:09:45 +0000";
layers = (
{
layerId = "1B8EDE0E-D46F-48F9-B9C6-2CD34FEA95FD";
shapes = (
{
closed = 1;
nodes = (
(230,218,o),
(261,252,o),
(261,325,cs),
(261,394,o),
(230,427,o),
(156,427,cs),
(81,427,o),
(50,394,o),
(50,325,cs),
(50,252,o),
(81,218,o),
(156,218,cs)
);
}
);
width = 311;
},
{
layerId = "37597A9B-137B-4040-B731-85284A6575D5";
shapes = (
{
closed = 1;
nodes = (
(230,218,o),
(261,252,o),
(261,325,cs),
(261,394,o),
(230,427,o),
(156,427,cs),
(81,427,o),
(50,394,o),
(50,325,cs),
(50,252,o),
(81,218,o),
(156,218,cs)
);
}
);
width = 311;
},
{
layerId = "4D009BB9-CCD0-4844-B12B-B6DC88771387";
shapes = (
{
closed = 1;
nodes = (
(230,218,o),
(261,252,o),
(261,325,cs),
(261,394,o),
(230,427,o),
(156,427,cs),
(81,427,o),
(50,394,o),
(50,325,cs),
(50,252,o),
(81,218,o),
(156,218,cs)
);
}
);
width = 311;
}
);
metricRight = "=|";
unicode = 8226;
},
{
glyphname = asterisk;
lastChange = "2025-11-15 17:09:45 +0000";
layers = (
{
layerId = "1B8EDE0E-D46F-48F9-B9C6-2CD34FEA95FD";
shapes = (
{
closed = 1;
nodes = (
(201,650,l),
(138,650,l),
(148,538,l),
(44,582,l),
(24,521,l),
(135,497,l),
(60,411,l),
(111,374,l),
(169,471,l),
(227,373,l),
(279,411,l),
(204,496,l),
(314,521,l),
(295,582,l),
(191,537,l)
);
}
);
width = 338;
},
{
layerId = "37597A9B-137B-4040-B731-85284A6575D5";
shapes = (
{
closed = 1;
nodes = (
(201,650,l),
(138,650,l),
(148,538,l),
(44,582,l),
(24,521,l),
(135,497,l),
(60,411,l),
(111,374,l),
(169,471,l),
(227,373,l),
(279,411,l),
(204,496,l),
(314,521,l),
(295,582,l),
(191,537,l)
);
}
);
width = 338;
},
{
layerId = "4D009BB9-CCD0-4844-B12B-B6DC88771387";
shapes = (
{
closed = 1;
nodes = (
(201,650,l),
(138,650,l),
(148,538,l),
(44,582,l),
(24,521,l),
(135,497,l),
(60,411,l),
(111,374,l),
(169,471,l),
(227,373,l),
(279,411,l),
(204,496,l),
(314,521,l),
(295,582,l),
(191,537,l)
);
}
);
width = 338;
}
);
metricRight = "=|";
unicode = 42;
},
{
glyphname = numbersign;
lastChange = "2025-11-15 17:09:45 +0000";
layers = (
{
layerId = "1B8EDE0E-D46F-48F9-B9C6-2CD34FEA95FD";
shapes = (
{
closed = 1;
nodes = (
(80,0,l),
(158,0,l),
(276,650,l),
(198,650,l)
);
},
{
closed = 1;
nodes = (
(320,0,l),
(398,0,l),
(516,650,l),
(438,650,l)
);
},
{
closed = 1;
nodes = (
(70,417,l),
(557,417,l),
(557,483,l),
(70,483,l)
);
},
{
closed = 1;
nodes = (
(40,187,l),
(527,187,l),
(527,252,l),
(40,252,l)
);
}
);
width = 597;
},
{
layerId = "37597A9B-137B-4040-B731-85284A6575D5";
shapes = (
{
closed = 1;
nodes = (
(80,0,l),
(158,0,l),
(276,650,l),
(198,650,l)
);
},
{
closed = 1;
nodes = (
(320,0,l),
(398,0,l),
(516,650,l),
(438,650,l)
);
},
{
closed = 1;
nodes = (
(70,417,l),
(557,417,l),
(557,483,l),
(70,483,l)
);
},
{
closed = 1;
nodes = (
(40,187,l),
(527,187,l),
(527,252,l),
(40,252,l)
);
}
);
width = 597;
},
{
layerId = "4D009BB9-CCD0-4844-B12B-B6DC88771387";
shapes = (
{
closed = 1;
nodes = (
(80,0,l),
(158,0,l),
(276,650,l),
(198,650,l)
);
},
{
closed = 1;
nodes = (
(320,0,l),
(398,0,l),
(516,650,l),
(438,650,l)
);
},
{
closed = 1;
nodes = (
(70,417,l),
(557,417,l),
(557,483,l),
(70,483,l)
);
},
{
closed = 1;
nodes = (
(40,187,l),
(527,187,l),
(527,252,l),
(40,252,l)
);
}
);
width = 597;
}
);
metricLeft = "=40";
metricRight = "=|";
unicode = 35;
},
{
glyphname = slash;
lastChange = "2025-11-15 17:09:45 +0000";
layers = (
{
layerId = "1B8EDE0E-D46F-48F9-B9C6-2CD34FEA95FD";
shapes = (
{
closed = 1;
nodes = (
(20,-20,l),
(90,-20,l),
(348,685,l),
(278,685,l)
);
}
);
width = 368;
},
{
layerId = "37597A9B-137B-4040-B731-85284A6575D5";
shapes = (
{
closed = 1;
nodes = (
(20,-20,l),
(90,-20,l),
(348,685,l),
(278,685,l)
);
}
);
width = 368;
},
{
layerId = "4D009BB9-CCD0-4844-B12B-B6DC88771387";
shapes = (
{
closed = 1;
nodes = (
(20,-20,l),
(90,-20,l),
(348,685,l),
(278,685,l)
);
}
);
width = 368;
}
);
metricRight = "=|";
unicode = 47;
},
{
glyphname = backslash;
lastChange = "2025-11-15 17:09:45 +0000";
layers = (
{
layerId = "1B8EDE0E-D46F-48F9-B9C6-2CD34FEA95FD";
shapes = (
{
closed = 1;
nodes = (
(20,685,l),
(278,-20,l),
(348,-20,l),
(90,685,l)
);
}
);
width = 368;
},
{
layerId = "37597A9B-137B-4040-B731-85284A6575D5";
shapes = (
{
closed = 1;
nodes = (
(20,685,l),
(278,-20,l),
(348,-20,l),
(90,685,l)
);
}
);
width = 368;
},
{
layerId = "4D009BB9-CCD0-4844-B12B-B6DC88771387";
shapes = (
{
closed = 1;
nodes = (
(20,685,l),
(278,-20,l),
(348,-20,l),
(90,685,l)
);
}
);
width = 368;
}
);
metricRight = "=|";
unicode = 92;
},
{
glyphname = hyphen;
lastChange = "2025-11-15 17:09:45 +0000";
layers = (
{
layerId = "1B8EDE0E-D46F-48F9-B9C6-2CD34FEA95FD";
shapes = (
{
closed = 1;
nodes = (
(31,250,l),
(342,250,l),
(342,322,l),
(31,322,l)
);
}
);
width = 373;
},
{
layerId = "37597A9B-137B-4040-B731-85284A6575D5";
shapes = (
{
closed = 1;
nodes = (
(31,250,l),
(342,250,l),
(342,322,l),
(31,322,l)
);
}
);
width = 373;
},
{
layerId = "4D009BB9-CCD0-4844-B12B-B6DC88771387";
shapes = (
{
closed = 1;
nodes = (
(31,250,l),
(342,250,l),
(342,322,l),
(31,322,l)
);
}
);
width = 373;
}
);
metricRight = "=|";
unicode = 45;
},
{
glyphname = endash;
lastChange = "2025-11-15 17:09:45 +0000";
layers = (
{
layerId = "1B8EDE0E-D46F-48F9-B9C6-2CD34FEA95FD";
shapes = (
{
closed = 1;
nodes = (
(31,250,l),
(456,250,l),
(456,322,l),
(31,322,l)
);
}
);
width = 487;
},
{
layerId = "37597A9B-137B-4040-B731-85284A6575D5";
shapes = (
{
closed = 1;
nodes = (
(31,250,l),
(456,250,l),
(456,322,l),
(31,322,l)
);
}
);
width = 487;
},
{
layerId = "4D009BB9-CCD0-4844-B12B-B6DC88771387";
shapes = (
{
closed = 1;
nodes = (
(31,250,l),
(456,250,l),
(456,322,l),
(31,322,l)
);
}
);
width = 487;
}
);
metricRight = "=|";
unicode = 8211;
},
{
glyphname = emdash;
lastChange = "2025-11-15 17:09:45 +0000";
layers = (
{
layerId = "1B8EDE0E-D46F-48F9-B9C6-2CD34FEA95FD";
shapes = (
{
closed = 1;
nodes = (
(31,250,l),
(732,250,l),
(732,322,l),
(31,322,l)
);
}
);
width = 763;
},
{
layerId = "37597A9B-137B-4040-B731-85284A6575D5";
shapes = (
{
closed = 1;
nodes = (
(31,250,l),
(732,250,l),
(732,322,l),
(31,322,l)
);
}
);
width = 763;
},
{
layerId = "4D009BB9-CCD0-4844-B12B-B6DC88771387";
shapes = (
{
closed = 1;
nodes = (
(31,250,l),
(732,250,l),
(732,322,l),
(31,322,l)
);
}
);
width = 763;
}
);
metricRight = "=|";
unicode = 8212;
},
{
glyphname = underscore;
lastChange = "2025-11-15 17:09:45 +0000";
layers = (
{
layerId = "1B8EDE0E-D46F-48F9-B9C6-2CD34FEA95FD";
shapes = (
{
closed = 1;
nodes = (
(4,-200,l),
(429,-200,l),
(429,-128,l),
(4,-128,l)
);
}
);
width = 433;
},
{
layerId = "37597A9B-137B-4040-B731-85284A6575D5";
shapes = (
{
closed = 1;
nodes = (
(4,-200,l),
(429,-200,l),
(429,-128,l),
(4,-128,l)
);
}
);
width = 433;
},
{
layerId = "4D009BB9-CCD0-4844-B12B-B6DC88771387";
shapes = (
{
closed = 1;
nodes = (
(4,-200,l),
(429,-200,l),
(429,-128,l),
(4,-128,l)
);
}
);
width = 433;
}
);
metricRight = "=|";
unicode = 95;
},
{
glyphname = parenleft;
lastChange = "2025-11-15 17:09:45 +0000";
layers = (
{
layerId = "1B8EDE0E-D46F-48F9-B9C6-2CD34FEA95FD";
shapes = (
{
closed = 1;
nodes = (
(67,68,o),
(156,-79,o),
(218,-178,c),
(292,-130,l),
(233,-41,o),
(156,86,o),
(156,275,cs),
(156,464,o),
(233,591,o),
(292,680,c),
(218,728,l),
(156,629,o),
(67,482,o),
(67,275,cs)
);
}
);
width = 342;
},
{
layerId = "37597A9B-137B-4040-B731-85284A6575D5";
shapes = (
{
closed = 1;
nodes = (
(67,68,o),
(156,-79,o),
(218,-178,c),
(292,-130,l),
(233,-41,o),
(156,86,o),
(156,275,cs),
(156,464,o),
(233,591,o),
(292,680,c),
(218,728,l),
(156,629,o),
(67,482,o),
(67,275,cs)
);
}
);
width = 342;
},
{
layerId = "4D009BB9-CCD0-4844-B12B-B6DC88771387";
shapes = (
{
closed = 1;
nodes = (
(67,68,o),
(156,-79,o),
(218,-178,c),
(292,-130,l),
(233,-41,o),
(156,86,o),
(156,275,cs),
(156,464,o),
(233,591,o),
(292,680,c),
(218,728,l),
(156,629,o),
(67,482,o),
(67,275,cs)
);
}
);
width = 342;
}
);
metricLeft = "=H";
unicode = 40;
},
{
glyphname = parenright;
lastChange = "2025-11-15 17:09:45 +0000";
layers = (
{
layerId = "1B8EDE0E-D46F-48F9-B9C6-2CD34FEA95FD";
shapes = (
{
closed = 1;
nodes = (
(292,482,o),
(203,629,o),
(141,728,c),
(68,680,l),
(127,591,o),
(204,464,o),
(204,275,cs),
(204,86,o),
(127,-41,o),
(68,-130,c),
(141,-178,l),
(203,-79,o),
(292,68,o),
(292,275,cs)
);
}
);
width = 359;
},
{
layerId = "37597A9B-137B-4040-B731-85284A6575D5";
shapes = (
{
closed = 1;
nodes = (
(292,482,o),
(203,629,o),
(141,728,c),
(68,680,l),
(127,591,o),
(204,464,o),
(204,275,cs),
(204,86,o),
(127,-41,o),
(68,-130,c),
(141,-178,l),
(203,-79,o),
(292,68,o),
(292,275,cs)
);
}
);
width = 359;
},
{
layerId = "4D009BB9-CCD0-4844-B12B-B6DC88771387";
shapes = (
{
closed = 1;
nodes = (
(292,482,o),
(203,629,o),
(141,728,c),
(68,680,l),
(127,591,o),
(204,464,o),
(204,275,cs),
(204,86,o),
(127,-41,o),
(68,-130,c),
(141,-178,l),
(203,-79,o),
(292,68,o),
(292,275,cs)
);
}
);
width = 359;
}
);
metricRight = "=H";
unicode = 41;
},
{
glyphname = braceleft;
lastChange = "2025-11-15 17:09:45 +0000";
layers = (
{
layerId = "1B8EDE0E-D46F-48F9-B9C6-2CD34FEA95FD";
shapes = (
{
closed = 1;
nodes = (
(342,-145,l),
(342,-72,l),
(284,-72,ls),
(252,-72,o),
(240,-59,o),
(240,-26,cs),
(240,198,ls),
(240,279,o),
(174,303,o),
(130,303,cs),
(48,303,l),
(48,240,l),
(107,240,ls),
(139,240,o),
(152,222,o),
(152,188,cs),
(152,-36,ls),
(152,-117,o),
(193,-145,o),
(262,-145,cs)
);
},
{
closed = 1;
nodes = (
(193,704,o),
(152,675,o),
(152,594,cs),
(152,362,ls),
(152,328,o),
(139,311,o),
(107,311,cs),
(48,311,l),
(48,247,l),
(130,247,ls),
(174,247,o),
(240,271,o),
(240,352,cs),
(240,584,ls),
(240,617,o),
(252,630,o),
(284,630,cs),
(342,630,l),
(342,704,l),
(262,704,ls)
);
}
);
width = 441;
},
{
layerId = "37597A9B-137B-4040-B731-85284A6575D5";
shapes = (
{
closed = 1;
nodes = (
(342,-145,l),
(342,-72,l),
(284,-72,ls),
(252,-72,o),
(240,-59,o),
(240,-26,cs),
(240,198,ls),
(240,279,o),
(174,303,o),
(130,303,cs),
(48,303,l),
(48,240,l),
(107,240,ls),
(139,240,o),
(152,222,o),
(152,188,cs),
(152,-36,ls),
(152,-117,o),
(193,-145,o),
(262,-145,cs)
);
},
{
closed = 1;
nodes = (
(193,704,o),
(152,675,o),
(152,594,cs),
(152,362,ls),
(152,328,o),
(139,311,o),
(107,311,cs),
(48,311,l),
(48,247,l),
(130,247,ls),
(174,247,o),
(240,271,o),
(240,352,cs),
(240,584,ls),
(240,617,o),
(252,630,o),
(284,630,cs),
(342,630,l),
(342,704,l),
(262,704,ls)
);
}
);
width = 441;
},
{
layerId = "4D009BB9-CCD0-4844-B12B-B6DC88771387";
shapes = (
{
closed = 1;
nodes = (
(342,-145,l),
(342,-72,l),
(284,-72,ls),
(252,-72,o),
(240,-59,o),
(240,-26,cs),
(240,198,ls),
(240,279,o),
(174,303,o),
(130,303,cs),
(48,303,l),
(48,240,l),
(107,240,ls),
(139,240,o),
(152,222,o),
(152,188,cs),
(152,-36,ls),
(152,-117,o),
(193,-145,o),
(262,-145,cs)
);
},
{
closed = 1;
nodes = (
(193,704,o),
(152,675,o),
(152,594,cs),
(152,362,ls),
(152,328,o),
(139,311,o),
(107,311,cs),
(48,311,l),
(48,247,l),
(130,247,ls),
(174,247,o),
(240,271,o),
(240,352,cs),
(240,584,ls),
(240,617,o),
(252,630,o),
(284,630,cs),
(342,630,l),
(342,704,l),
(262,704,ls)
);
}
);
width = 441;
}
);
unicode = 123;
},
{
glyphname = braceright;
lastChange = "2025-11-15 17:09:45 +0000";
layers = (
{
layerId = "1B8EDE0E-D46F-48F9-B9C6-2CD34FEA95FD";
shapes = (
{
closed = 1;
nodes = (
(206,-148,o),
(247,-119,o),
(247,-38,cs),
(247,188,ls),
(247,222,o),
(259,240,o),
(292,240,cs),
(350,240,l),
(350,303,l),
(269,303,ls),
(225,303,o),
(159,279,o),
(159,198,cs),
(159,-28,ls),
(159,-62,o),
(147,-74,o),
(115,-74,cs),
(56,-74,l),
(56,-148,l),
(137,-148,ls)
);
},
{
closed = 1;
nodes = (
(56,704,l),
(56,630,l),
(115,630,ls),
(147,630,o),
(159,617,o),
(159,584,cs),
(159,352,ls),
(159,271,o),
(225,247,o),
(269,247,cs),
(350,247,l),
(350,311,l),
(292,311,ls),
(259,311,o),
(247,328,o),
(247,362,cs),
(247,594,ls),
(247,675,o),
(206,704,o),
(137,704,cs)
);
}
);
width = 441;
},
{
layerId = "37597A9B-137B-4040-B731-85284A6575D5";
shapes = (
{
closed = 1;
nodes = (
(206,-148,o),
(247,-119,o),
(247,-38,cs),
(247,188,ls),
(247,222,o),
(259,240,o),
(292,240,cs),
(350,240,l),
(350,303,l),
(269,303,ls),
(225,303,o),
(159,279,o),
(159,198,cs),
(159,-28,ls),
(159,-62,o),
(147,-74,o),
(115,-74,cs),
(56,-74,l),
(56,-148,l),
(137,-148,ls)
);
},
{
closed = 1;
nodes = (
(56,704,l),
(56,630,l),
(115,630,ls),
(147,630,o),
(159,617,o),
(159,584,cs),
(159,352,ls),
(159,271,o),
(225,247,o),
(269,247,cs),
(350,247,l),
(350,311,l),
(292,311,ls),
(259,311,o),
(247,328,o),
(247,362,cs),
(247,594,ls),
(247,675,o),
(206,704,o),
(137,704,cs)
);
}
);
width = 441;
},
{
layerId = "4D009BB9-CCD0-4844-B12B-B6DC88771387";
shapes = (
{
closed = 1;
nodes = (
(206,-148,o),
(247,-119,o),
(247,-38,cs),
(247,188,ls),
(247,222,o),
(259,240,o),
(292,240,cs),
(350,240,l),
(350,303,l),
(269,303,ls),
(225,303,o),
(159,279,o),
(159,198,cs),
(159,-28,ls),
(159,-62,o),
(147,-74,o),
(115,-74,cs),
(56,-74,l),
(56,-148,l),
(137,-148,ls)
);
},
{
closed = 1;
nodes = (
(56,704,l),
(56,630,l),
(115,630,ls),
(147,630,o),
(159,617,o),
(159,584,cs),
(159,352,ls),
(159,271,o),
(225,247,o),
(269,247,cs),
(350,247,l),
(350,311,l),
(292,311,ls),
(259,311,o),
(247,328,o),
(247,362,cs),
(247,594,ls),
(247,675,o),
(206,704,o),
(137,704,cs)
);
}
);
width = 441;
}
);
unicode = 125;
},
{
glyphname = bracketleft;
lastChange = "2025-11-15 17:09:45 +0000";
layers = (
{
layerId = "1B8EDE0E-D46F-48F9-B9C6-2CD34FEA95FD";
shapes = (
{
closed = 1;
nodes = (
(251,-148,l),
(251,-74,l),
(200,-74,ls),
(168,-74,o),
(155,-62,o),
(155,-28,cs),
(155,581,ls),
(155,615,o),
(168,627,o),
(200,627,cs),
(251,627,l),
(251,701,l),
(177,701,ls),
(108,701,o),
(67,672,o),
(67,591,cs),
(67,-38,ls),
(67,-119,o),
(108,-148,o),
(177,-148,cs)
);
}
);
width = 261;
},
{
layerId = "37597A9B-137B-4040-B731-85284A6575D5";
shapes = (
{
closed = 1;
nodes = (
(251,-148,l),
(251,-74,l),
(200,-74,ls),
(168,-74,o),
(155,-62,o),
(155,-28,cs),
(155,581,ls),
(155,615,o),
(168,627,o),
(200,627,cs),
(251,627,l),
(251,701,l),
(177,701,ls),
(108,701,o),
(67,672,o),
(67,591,cs),
(67,-38,ls),
(67,-119,o),
(108,-148,o),
(177,-148,cs)
);
}
);
width = 261;
},
{
layerId = "4D009BB9-CCD0-4844-B12B-B6DC88771387";
shapes = (
{
closed = 1;
nodes = (
(251,-148,l),
(251,-74,l),
(200,-74,ls),
(168,-74,o),
(155,-62,o),
(155,-28,cs),
(155,581,ls),
(155,615,o),
(168,627,o),
(200,627,cs),
(251,627,l),
(251,701,l),
(177,701,ls),
(108,701,o),
(67,672,o),
(67,591,cs),
(67,-38,ls),
(67,-119,o),
(108,-148,o),
(177,-148,cs)
);
}
);
width = 261;
}
);
metricLeft = "=H";
unicode = 91;
},
{
glyphname = bracketright;
lastChange = "2025-11-15 17:09:45 +0000";
layers = (
{
layerId = "1B8EDE0E-D46F-48F9-B9C6-2CD34FEA95FD";
shapes = (
{
closed = 1;
nodes = (
(153,-148,o),
(194,-119,o),
(194,-38,cs),
(194,591,ls),
(194,672,o),
(153,701,o),
(84,701,cs),
(10,701,l),
(10,627,l),
(61,627,ls),
(93,627,o),
(105,615,o),
(105,581,cs),
(105,-28,ls),
(105,-62,o),
(93,-74,o),
(61,-74,cs),
(10,-74,l),
(10,-148,l),
(84,-148,ls)
);
}
);
width = 261;
},
{
layerId = "37597A9B-137B-4040-B731-85284A6575D5";
shapes = (
{
closed = 1;
nodes = (
(153,-148,o),
(194,-119,o),
(194,-38,cs),
(194,591,ls),
(194,672,o),
(153,701,o),
(84,701,cs),
(10,701,l),
(10,627,l),
(61,627,ls),
(93,627,o),
(105,615,o),
(105,581,cs),
(105,-28,ls),
(105,-62,o),
(93,-74,o),
(61,-74,cs),
(10,-74,l),
(10,-148,l),
(84,-148,ls)
);
}
);
width = 261;
},
{
layerId = "4D009BB9-CCD0-4844-B12B-B6DC88771387";
shapes = (
{
closed = 1;
nodes = (
(153,-148,o),
(194,-119,o),
(194,-38,cs),
(194,591,ls),
(194,672,o),
(153,701,o),
(84,701,cs),
(10,701,l),
(10,627,l),
(61,627,ls),
(93,627,o),
(105,615,o),
(105,581,cs),
(105,-28,ls),
(105,-62,o),
(93,-74,o),
(61,-74,cs),
(10,-74,l),
(10,-148,l),
(84,-148,ls)
);
}
);
width = 261;
}
);
metricRight = "=H";
unicode = 93;
},
{
glyphname = quotesinglbase;
lastChange = "2025-11-15 17:09:45 +0000";
layers = (
{
layerId = "1B8EDE0E-D46F-48F9-B9C6-2CD34FEA95FD";
shapes = (
{
closed = 1;
nodes = (
(119,-62,o),
(140,-30,o),
(140,31,cs),
(140,90,o),
(127,104,o),
(82,104,cs),
(38,104,o),
(25,90,o),
(25,46,cs),
(25,-7,o),
(46,-11,o),
(68,-11,cs),
(75,-11,o),
(84,-9,o),
(89,-7,c),
(85,-36,o),
(72,-54,o),
(54,-74,c),
(83,-100,l)
);
}
);
width = 170;
},
{
layerId = "37597A9B-137B-4040-B731-85284A6575D5";
shapes = (
{
closed = 1;
nodes = (
(119,-62,o),
(140,-30,o),
(140,31,cs),
(140,90,o),
(127,104,o),
(82,104,cs),
(38,104,o),
(25,90,o),
(25,46,cs),
(25,-7,o),
(46,-11,o),
(68,-11,cs),
(75,-11,o),
(84,-9,o),
(89,-7,c),
(85,-36,o),
(72,-54,o),
(54,-74,c),
(83,-100,l)
);
}
);
width = 170;
},
{
layerId = "4D009BB9-CCD0-4844-B12B-B6DC88771387";
shapes = (
{
closed = 1;
nodes = (
(119,-62,o),
(140,-30,o),
(140,31,cs),
(140,90,o),
(127,104,o),
(82,104,cs),
(38,104,o),
(25,90,o),
(25,46,cs),
(25,-7,o),
(46,-11,o),
(68,-11,cs),
(75,-11,o),
(84,-9,o),
(89,-7,c),
(85,-36,o),
(72,-54,o),
(54,-74,c),
(83,-100,l)
);
}
);
width = 170;
}
);
unicode = 8218;
},
{
glyphname = quoteleft;
lastChange = "2025-11-15 17:09:45 +0000";
layers = (
{
layerId = "1B8EDE0E-D46F-48F9-B9C6-2CD34FEA95FD";
shapes = (
{
closed = 1;
nodes = (
(122,498,o),
(136,511,o),
(136,556,cs),
(136,609,o),
(114,613,o),
(91,613,cs),
(85,613,o),
(77,612,o),
(70,609,c),
(74,637,o),
(88,656,o),
(105,674,c),
(78,703,l),
(42,665,o),
(20,629,o),
(20,570,cs),
(20,511,o),
(33,498,o),
(78,498,cs)
);
}
);
width = 152;
},
{
layerId = "37597A9B-137B-4040-B731-85284A6575D5";
shapes = (
{
closed = 1;
nodes = (
(122,498,o),
(136,511,o),
(136,556,cs),
(136,609,o),
(114,613,o),
(91,613,cs),
(85,613,o),
(77,612,o),
(70,609,c),
(74,637,o),
(88,656,o),
(105,674,c),
(78,703,l),
(42,665,o),
(20,629,o),
(20,570,cs),
(20,511,o),
(33,498,o),
(78,498,cs)
);
}
);
width = 152;
},
{
layerId = "4D009BB9-CCD0-4844-B12B-B6DC88771387";
shapes = (
{
closed = 1;
nodes = (
(122,498,o),
(136,511,o),
(136,556,cs),
(136,609,o),
(114,613,o),
(91,613,cs),
(85,613,o),
(77,612,o),
(70,609,c),
(74,637,o),
(88,656,o),
(105,674,c),
(78,703,l),
(42,665,o),
(20,629,o),
(20,570,cs),
(20,511,o),
(33,498,o),
(78,498,cs)
);
}
);
width = 152;
}
);
unicode = 8216;
},
{
glyphname = quoteright;
lastChange = "2025-11-15 17:09:45 +0000";
layers = (
{
layerId = "1B8EDE0E-D46F-48F9-B9C6-2CD34FEA95FD";
shapes = (
{
closed = 1;
nodes = (
(114,537,o),
(136,573,o),
(136,632,cs),
(136,691,o),
(122,704,o),
(78,704,cs),
(33,704,o),
(20,691,o),
(20,646,cs),
(20,593,o),
(42,589,o),
(64,589,cs),
(70,589,o),
(79,591,o),
(86,594,c),
(82,565,o),
(69,547,o),
(51,528,c),
(77,499,l)
);
}
);
width = 148;
},
{
layerId = "37597A9B-137B-4040-B731-85284A6575D5";
shapes = (
{
closed = 1;
nodes = (
(114,537,o),
(136,573,o),
(136,632,cs),
(136,691,o),
(122,704,o),
(78,704,cs),
(33,704,o),
(20,691,o),
(20,646,cs),
(20,593,o),
(42,589,o),
(64,589,cs),
(70,589,o),
(79,591,o),
(86,594,c),
(82,565,o),
(69,547,o),
(51,528,c),
(77,499,l)
);
}
);
width = 148;
},
{
layerId = "4D009BB9-CCD0-4844-B12B-B6DC88771387";
shapes = (
{
closed = 1;
nodes = (
(114,537,o),
(136,573,o),
(136,632,cs),
(136,691,o),
(122,704,o),
(78,704,cs),
(33,704,o),
(20,691,o),
(20,646,cs),
(20,593,o),
(42,589,o),
(64,589,cs),
(70,589,o),
(79,591,o),
(86,594,c),
(82,565,o),
(69,547,o),
(51,528,c),
(77,499,l)
);
}
);
width = 148;
}
);
unicode = 8217;
},
{
glyphname = guillemetleft;
lastChange = "2025-11-15 17:09:45 +0000";
layers = (
{
layerId = "1B8EDE0E-D46F-48F9-B9C6-2CD34FEA95FD";
shapes = (
{
closed = 1;
nodes = (
(123,374,l),
(40,226,l),
(123,77,l),
(199,77,l),
(119,224,l),
(198,374,l)
);
},
{
closed = 1;
nodes = (
(276,374,l),
(193,226,l),
(276,77,l),
(352,77,l),
(272,224,l),
(351,374,l)
);
}
);
width = 392;
},
{
layerId = "37597A9B-137B-4040-B731-85284A6575D5";
shapes = (
{
closed = 1;
nodes = (
(123,374,l),
(40,226,l),
(123,77,l),
(199,77,l),
(119,224,l),
(198,374,l)
);
},
{
closed = 1;
nodes = (
(276,374,l),
(193,226,l),
(276,77,l),
(352,77,l),
(272,224,l),
(351,374,l)
);
}
);
width = 392;
},
{
layerId = "4D009BB9-CCD0-4844-B12B-B6DC88771387";
shapes = (
{
closed = 1;
nodes = (
(123,374,l),
(40,226,l),
(123,77,l),
(199,77,l),
(119,224,l),
(198,374,l)
);
},
{
closed = 1;
nodes = (
(276,374,l),
(193,226,l),
(276,77,l),
(352,77,l),
(272,224,l),
(351,374,l)
);
}
);
width = 392;
}
);
unicode = 171;
},
{
glyphname = guillemetright;
lastChange = "2025-11-15 17:09:45 +0000";
layers = (
{
layerId = "1B8EDE0E-D46F-48F9-B9C6-2CD34FEA95FD";
shapes = (
{
closed = 1;
nodes = (
(273,224,l),
(193,77,l),
(269,77,l),
(352,226,l),
(269,374,l),
(194,374,l)
);
},
{
closed = 1;
nodes = (
(120,224,l),
(40,77,l),
(116,77,l),
(199,226,l),
(116,374,l),
(41,374,l)
);
}
);
width = 392;
},
{
layerId = "37597A9B-137B-4040-B731-85284A6575D5";
shapes = (
{
closed = 1;
nodes = (
(273,224,l),
(193,77,l),
(269,77,l),
(352,226,l),
(269,374,l),
(194,374,l)
);
},
{
closed = 1;
nodes = (
(120,224,l),
(40,77,l),
(116,77,l),
(199,226,l),
(116,374,l),
(41,374,l)
);
}
);
width = 392;
},
{
layerId = "4D009BB9-CCD0-4844-B12B-B6DC88771387";
shapes = (
{
closed = 1;
nodes = (
(273,224,l),
(193,77,l),
(269,77,l),
(352,226,l),
(269,374,l),
(194,374,l)
);
},
{
closed = 1;
nodes = (
(120,224,l),
(40,77,l),
(116,77,l),
(199,226,l),
(116,374,l),
(41,374,l)
);
}
);
width = 392;
}
);
unicode = 187;
},
{
glyphname = guilsinglleft;
lastChange = "2025-11-15 17:09:45 +0000";
layers = (
{
layerId = "1B8EDE0E-D46F-48F9-B9C6-2CD34FEA95FD";
shapes = (
{
closed = 1;
nodes = (
(123,374,l),
(40,226,l),
(123,77,l),
(199,77,l),
(119,224,l),
(198,374,l)
);
}
);
width = 239;
},
{
layerId = "37597A9B-137B-4040-B731-85284A6575D5";
shapes = (
{
closed = 1;
nodes = (
(123,374,l),
(40,226,l),
(123,77,l),
(199,77,l),
(119,224,l),
(198,374,l)
);
}
);
width = 239;
},
{
layerId = "4D009BB9-CCD0-4844-B12B-B6DC88771387";
shapes = (
{
closed = 1;
nodes = (
(123,374,l),
(40,226,l),
(123,77,l),
(199,77,l),
(119,224,l),
(198,374,l)
);
}
);
width = 239;
}
);
unicode = 8249;
},
{
glyphname = guilsinglright;
lastChange = "2025-11-15 17:09:45 +0000";
layers = (
{
layerId = "1B8EDE0E-D46F-48F9-B9C6-2CD34FEA95FD";
shapes = (
{
closed = 1;
nodes = (
(120,224,l),
(40,77,l),
(116,77,l),
(199,226,l),
(116,374,l),
(41,374,l)
);
}
);
width = 239;
},
{
layerId = "37597A9B-137B-4040-B731-85284A6575D5";
shapes = (
{
closed = 1;
nodes = (
(120,224,l),
(40,77,l),
(116,77,l),
(199,226,l),
(116,374,l),
(41,374,l)
);
}
);
width = 239;
},
{
layerId = "4D009BB9-CCD0-4844-B12B-B6DC88771387";
shapes = (
{
closed = 1;
nodes = (
(120,224,l),
(40,77,l),
(116,77,l),
(199,226,l),
(116,374,l),
(41,374,l)
);
}
);
width = 239;
}
);
unicode = 8250;
},
{
glyphname = quotedbl;
lastChange = "2025-11-15 17:09:45 +0000";
layers = (
{
layerId = "1B8EDE0E-D46F-48F9-B9C6-2CD34FEA95FD";
shapes = (
{
closed = 1;
nodes = (
(150,475,l),
(162,680,l),
(72,680,l),
(84,475,l)
);
},
{
closed = 1;
nodes = (
(286,475,l),
(298,680,l),
(209,680,l),
(221,475,l)
);
}
);
width = 370;
},
{
layerId = "37597A9B-137B-4040-B731-85284A6575D5";
shapes = (
{
closed = 1;
nodes = (
(150,475,l),
(162,680,l),
(72,680,l),
(84,475,l)
);
},
{
closed = 1;
nodes = (
(286,475,l),
(298,680,l),
(209,680,l),
(221,475,l)
);
}
);
width = 370;
},
{
layerId = "4D009BB9-CCD0-4844-B12B-B6DC88771387";
shapes = (
{
closed = 1;
nodes = (
(150,475,l),
(162,680,l),
(72,680,l),
(84,475,l)
);
},
{
closed = 1;
nodes = (
(286,475,l),
(298,680,l),
(209,680,l),
(221,475,l)
);
}
);
width = 370;
}
);
metricRight = "=|";
unicode = 34;
},
{
glyphname = quotesingle;
lastChange = "2025-11-15 17:09:45 +0000";
layers = (
{
layerId = "1B8EDE0E-D46F-48F9-B9C6-2CD34FEA95FD";
shapes = (
{
closed = 1;
nodes = (
(150,475,l),
(162,680,l),
(72,680,l),
(84,475,l)
);
}
);
width = 234;
},
{
layerId = "37597A9B-137B-4040-B731-85284A6575D5";
shapes = (
{
closed = 1;
nodes = (
(150,475,l),
(162,680,l),
(72,680,l),
(84,475,l)
);
}
);
width = 234;
},
{
layerId = "4D009BB9-CCD0-4844-B12B-B6DC88771387";
shapes = (
{
closed = 1;
nodes = (
(150,475,l),
(162,680,l),
(72,680,l),
(84,475,l)
);
}
);
width = 234;
}
);
metricRight = "=|";
unicode = 39;
},
{
glyphname = at;
lastChange = "2025-11-15 17:09:45 +0000";
layers = (
{
layerId = "1B8EDE0E-D46F-48F9-B9C6-2CD34FEA95FD";
shapes = (
{
closed = 1;
nodes = (
(601,99,o),
(568,76,o),
(540,76,cs),
(507,76,o),
(473,102,o),
(479,147,cs),
(518,450,l),
(464,450,l),
(454,425,l),
(429,452,o),
(397,459,o),
(364,459,cs),
(283,459,o),
(210,427,o),
(192,278,cs),
(175,136,o),
(230,100,o),
(319,100,cs),
(362,100,o),
(398,112,o),
(425,146,c),
(426,146,l),
(419,74,o),
(467,33,o),
(534,33,cs),
(582,33,o),
(650,70,o),
(679,145,cs),
(695,185,o),
(704,230,o),
(704,280,cs),
(704,486,o),
(577,616,o),
(368,616,cs),
(159,616,o),
(31,486,o),
(31,280,cs),
(31,73,o),
(159,-57,o),
(409,-57,c),
(409,-16,l),
(189,-16,o),
(80,101,o),
(80,280,cs),
(80,459,o),
(189,568,o),
(368,568,cs),
(547,568,o),
(655,456,o),
(655,280,cs),
(655,229,o),
(644,181,o),
(624,143,cs)
);
},
{
closed = 1;
nodes = (
(282,157,o),
(246,174,o),
(260,278,cs),
(274,387,o),
(313,403,o),
(364,403,cs),
(412,403,o),
(450,391,o),
(435,278,cs),
(423,187,o),
(381,157,o),
(334,157,cs)
);
}
);
width = 735;
},
{
layerId = "37597A9B-137B-4040-B731-85284A6575D5";
shapes = (
{
closed = 1;
nodes = (
(601,99,o),
(568,76,o),
(540,76,cs),
(507,76,o),
(473,102,o),
(479,147,cs),
(518,450,l),
(464,450,l),
(454,425,l),
(429,452,o),
(397,459,o),
(364,459,cs),
(283,459,o),
(210,427,o),
(192,278,cs),
(175,136,o),
(230,100,o),
(319,100,cs),
(362,100,o),
(398,112,o),
(425,146,c),
(426,146,l),
(419,74,o),
(467,33,o),
(534,33,cs),
(582,33,o),
(650,70,o),
(679,145,cs),
(695,185,o),
(704,230,o),
(704,280,cs),
(704,486,o),
(577,616,o),
(368,616,cs),
(159,616,o),
(31,486,o),
(31,280,cs),
(31,73,o),
(159,-57,o),
(409,-57,c),
(409,-16,l),
(189,-16,o),
(80,101,o),
(80,280,cs),
(80,459,o),
(189,568,o),
(368,568,cs),
(547,568,o),
(655,456,o),
(655,280,cs),
(655,229,o),
(644,181,o),
(624,143,cs)
);
},
{
closed = 1;
nodes = (
(282,157,o),
(246,174,o),
(260,278,cs),
(274,387,o),
(313,403,o),
(364,403,cs),
(412,403,o),
(450,391,o),
(435,278,cs),
(423,187,o),
(381,157,o),
(334,157,cs)
);
}
);
width = 735;
},
{
layerId = "4D009BB9-CCD0-4844-B12B-B6DC88771387";
shapes = (
{
closed = 1;
nodes = (
(601,99,o),
(568,76,o),
(540,76,cs),
(507,76,o),
(473,102,o),
(479,147,cs),
(518,450,l),
(464,450,l),
(454,425,l),
(429,452,o),
(397,459,o),
(364,459,cs),
(283,459,o),
(210,427,o),
(192,278,cs),
(175,136,o),
(230,100,o),
(319,100,cs),
(362,100,o),
(398,112,o),
(425,146,c),
(426,146,l),
(419,74,o),
(467,33,o),
(534,33,cs),
(582,33,o),
(650,70,o),
(679,145,cs),
(695,185,o),
(704,230,o),
(704,280,cs),
(704,486,o),
(577,616,o),
(368,616,cs),
(159,616,o),
(31,486,o),
(31,280,cs),
(31,73,o),
(159,-57,o),
(409,-57,c),
(409,-16,l),
(189,-16,o),
(80,101,o),
(80,280,cs),
(80,459,o),
(189,568,o),
(368,568,cs),
(547,568,o),
(655,456,o),
(655,280,cs),
(655,229,o),
(644,181,o),
(624,143,cs)
);
},
{
closed = 1;
nodes = (
(282,157,o),
(246,174,o),
(260,278,cs),
(274,387,o),
(313,403,o),
(364,403,cs),
(412,403,o),
(450,391,o),
(435,278,cs),
(423,187,o),
(381,157,o),
(334,157,cs)
);
}
);
width = 735;
}
);
metricRight = "=|";
unicode = 64;
},
{
glyphname = ampersand;
lastChange = "2025-11-15 17:09:45 +0000";
layers = (
{
layerId = "1B8EDE0E-D46F-48F9-B9C6-2CD34FEA95FD";
shapes = (
{
closed = 1;
nodes = (
(438,-13,o),
(523,54,o),
(523,194,cs),
(523,321,l),
(561,321,l),
(561,397,l),
(283,397,ls),
(214,397,o),
(181,436,o),
(181,488,cs),
(181,544,o),
(207,589,o),
(283,589,cs),
(358,589,o),
(384,544,o),
(384,488,c),
(476,488,l),
(476,603,o),
(398,665,o),
(283,665,cs),
(167,665,o),
(89,601,o),
(89,493,cs),
(89,436,o),
(110,392,o),
(150,363,c),
(95,330,o),
(61,271,o),
(61,188,cs),
(61,50,o),
(150,-13,o),
(283,-13,cs)
);
},
{
closed = 1;
nodes = (
(198,63,o),
(154,110,o),
(154,191,cs),
(154,272,o),
(189,321,o),
(282,321,cs),
(431,321,l),
(431,194,ls),
(431,110,o),
(388,63,o),
(283,63,cs)
);
}
);
width = 600;
},
{
layerId = "37597A9B-137B-4040-B731-85284A6575D5";
shapes = (
{
closed = 1;
nodes = (
(438,-13,o),
(523,54,o),
(523,194,cs),
(523,321,l),
(561,321,l),
(561,397,l),
(283,397,ls),
(214,397,o),
(181,436,o),
(181,488,cs),
(181,544,o),
(207,589,o),
(283,589,cs),
(358,589,o),
(384,544,o),
(384,488,c),
(476,488,l),
(476,603,o),
(398,665,o),
(283,665,cs),
(167,665,o),
(89,601,o),
(89,493,cs),
(89,436,o),
(110,392,o),
(150,363,c),
(95,330,o),
(61,271,o),
(61,188,cs),
(61,50,o),
(150,-13,o),
(283,-13,cs)
);
},
{
closed = 1;
nodes = (
(198,63,o),
(154,110,o),
(154,191,cs),
(154,272,o),
(189,321,o),
(282,321,cs),
(431,321,l),
(431,194,ls),
(431,110,o),
(388,63,o),
(283,63,cs)
);
}
);
width = 600;
},
{
layerId = "4D009BB9-CCD0-4844-B12B-B6DC88771387";
shapes = (
{
closed = 1;
nodes = (
(438,-13,o),
(523,54,o),
(523,194,cs),
(523,321,l),
(561,321,l),
(561,397,l),
(283,397,ls),
(214,397,o),
(181,436,o),
(181,488,cs),
(181,544,o),
(207,589,o),
(283,589,cs),
(358,589,o),
(384,544,o),
(384,488,c),
(476,488,l),
(476,603,o),
(398,665,o),
(283,665,cs),
(167,665,o),
(89,601,o),
(89,493,cs),
(89,436,o),
(110,392,o),
(150,363,c),
(95,330,o),
(61,271,o),
(61,188,cs),
(61,50,o),
(150,-13,o),
(283,-13,cs)
);
},
{
closed = 1;
nodes = (
(198,63,o),
(154,110,o),
(154,191,cs),
(154,272,o),
(189,321,o),
(282,321,cs),
(431,321,l),
(431,194,ls),
(431,110,o),
(388,63,o),
(283,63,cs)
);
}
);
width = 600;
}
);
unicode = 38;
},
{
glyphname = copyright;
lastChange = "2025-11-15 17:09:45 +0000";
layers = (
{
layerId = "1B8EDE0E-D46F-48F9-B9C6-2CD34FEA95FD";
shapes = (
{
closed = 1;
nodes = (
(554,-11,o),
(704,139,o),
(704,326,cs),
(704,512,o),
(554,662,o),
(368,662,cs),
(181,662,o),
(31,512,o),
(31,326,cs),
(31,139,o),
(181,-11,o),
(368,-11,cs)
);
},
{
closed = 1;
nodes = (
(213,47,o),
(89,171,o),
(89,326,cs),
(89,480,o),
(213,604,o),
(368,604,cs),
(522,604,o),
(646,480,o),
(646,326,cs),
(646,171,o),
(522,47,o),
(368,47,cs)
);
},
{
closed = 1;
nodes = (
(438,133,o),
(519,160,o),
(520,261,c),
(453,261,l),
(452,209,o),
(417,195,o),
(368,195,cs),
(311,195,o),
(275,234,o),
(275,325,cs),
(275,418,o),
(311,455,o),
(368,455,cs),
(417,455,o),
(452,434,o),
(453,389,c),
(520,389,l),
(519,484,o),
(438,518,o),
(368,518,cs),
(271,515,o),
(200,462,o),
(200,325,cs),
(200,189,o),
(272,133,o),
(368,133,cs)
);
}
);
width = 735;
},
{
layerId = "37597A9B-137B-4040-B731-85284A6575D5";
shapes = (
{
closed = 1;
nodes = (
(554,-11,o),
(704,139,o),
(704,326,cs),
(704,512,o),
(554,662,o),
(368,662,cs),
(181,662,o),
(31,512,o),
(31,326,cs),
(31,139,o),
(181,-11,o),
(368,-11,cs)
);
},
{
closed = 1;
nodes = (
(213,47,o),
(89,171,o),
(89,326,cs),
(89,480,o),
(213,604,o),
(368,604,cs),
(522,604,o),
(646,480,o),
(646,326,cs),
(646,171,o),
(522,47,o),
(368,47,cs)
);
},
{
closed = 1;
nodes = (
(438,133,o),
(519,160,o),
(520,261,c),
(453,261,l),
(452,209,o),
(417,195,o),
(368,195,cs),
(311,195,o),
(275,234,o),
(275,325,cs),
(275,418,o),
(311,455,o),
(368,455,cs),
(417,455,o),
(452,434,o),
(453,389,c),
(520,389,l),
(519,484,o),
(438,518,o),
(368,518,cs),
(271,515,o),
(200,462,o),
(200,325,cs),
(200,189,o),
(272,133,o),
(368,133,cs)
);
}
);
width = 735;
},
{
layerId = "4D009BB9-CCD0-4844-B12B-B6DC88771387";
shapes = (
{
closed = 1;
nodes = (
(554,-11,o),
(704,139,o),
(704,326,cs),
(704,512,o),
(554,662,o),
(368,662,cs),
(181,662,o),
(31,512,o),
(31,326,cs),
(31,139,o),
(181,-11,o),
(368,-11,cs)
);
},
{
closed = 1;
nodes = (
(213,47,o),
(89,171,o),
(89,326,cs),
(89,480,o),
(213,604,o),
(368,604,cs),
(522,604,o),
(646,480,o),
(646,326,cs),
(646,171,o),
(522,47,o),
(368,47,cs)
);
},
{
closed = 1;
nodes = (
(438,133,o),
(519,160,o),
(520,261,c),
(453,261,l),
(452,209,o),
(417,195,o),
(368,195,cs),
(311,195,o),
(275,234,o),
(275,325,cs),
(275,418,o),
(311,455,o),
(368,455,cs),
(417,455,o),
(452,434,o),
(453,389,c),
(520,389,l),
(519,484,o),
(438,518,o),
(368,518,cs),
(271,515,o),
(200,462,o),
(200,325,cs),
(200,189,o),
(272,133,o),
(368,133,cs)
);
}
);
width = 735;
}
);
metricRight = "=|";
unicode = 169;
},
{
glyphname = registered;
lastChange = "2025-11-15 17:09:45 +0000";
layers = (
{
layerId = "1B8EDE0E-D46F-48F9-B9C6-2CD34FEA95FD";
shapes = (
{
closed = 1;
nodes = (
(339,266,o),
(427,354,o),
(427,464,cs),
(427,574,o),
(339,662,o),
(229,662,cs),
(119,662,o),
(31,574,o),
(31,464,cs),
(31,354,o),
(119,266,o),
(229,266,cs)
);
},
{
closed = 1;
nodes = (
(138,301,o),
(65,373,o),
(65,464,cs),
(65,555,o),
(138,628,o),
(229,628,cs),
(320,628,o),
(392,555,o),
(392,464,cs),
(392,373,o),
(320,301,o),
(229,301,cs)
);
},
{
closed = 1;
nodes = (
(198,380,l),
(198,453,l),
(231,453,l),
(266,380,l),
(300,380,l),
(264,456,l),
(283,461,o),
(298,477,o),
(298,508,cs),
(298,555,o),
(269,564,o),
(240,564,cs),
(168,564,l),
(168,380,l)
);
},
{
closed = 1;
nodes = (
(198,538,l),
(240,538,ls),
(255,538,o),
(266,533,o),
(266,508,cs),
(266,484,o),
(255,479,o),
(240,479,cs),
(198,479,l)
);
}
);
width = 458;
},
{
layerId = "37597A9B-137B-4040-B731-85284A6575D5";
shapes = (
{
closed = 1;
nodes = (
(339,266,o),
(427,354,o),
(427,464,cs),
(427,574,o),
(339,662,o),
(229,662,cs),
(119,662,o),
(31,574,o),
(31,464,cs),
(31,354,o),
(119,266,o),
(229,266,cs)
);
},
{
closed = 1;
nodes = (
(138,301,o),
(65,373,o),
(65,464,cs),
(65,555,o),
(138,628,o),
(229,628,cs),
(320,628,o),
(392,555,o),
(392,464,cs),
(392,373,o),
(320,301,o),
(229,301,cs)
);
},
{
closed = 1;
nodes = (
(198,380,l),
(198,453,l),
(231,453,l),
(266,380,l),
(300,380,l),
(264,456,l),
(283,461,o),
(298,477,o),
(298,508,cs),
(298,555,o),
(269,564,o),
(240,564,cs),
(168,564,l),
(168,380,l)
);
},
{
closed = 1;
nodes = (
(198,538,l),
(240,538,ls),
(255,538,o),
(266,533,o),
(266,508,cs),
(266,484,o),
(255,479,o),
(240,479,cs),
(198,479,l)
);
}
);
width = 458;
},
{
layerId = "4D009BB9-CCD0-4844-B12B-B6DC88771387";
shapes = (
{
closed = 1;
nodes = (
(339,266,o),
(427,354,o),
(427,464,cs),
(427,574,o),
(339,662,o),
(229,662,cs),
(119,662,o),
(31,574,o),
(31,464,cs),
(31,354,o),
(119,266,o),
(229,266,cs)
);
},
{
closed = 1;
nodes = (
(138,301,o),
(65,373,o),
(65,464,cs),
(65,555,o),
(138,628,o),
(229,628,cs),
(320,628,o),
(392,555,o),
(392,464,cs),
(392,373,o),
(320,301,o),
(229,301,cs)
);
},
{
closed = 1;
nodes = (
(198,380,l),
(198,453,l),
(231,453,l),
(266,380,l),
(300,380,l),
(264,456,l),
(283,461,o),
(298,477,o),
(298,508,cs),
(298,555,o),
(269,564,o),
(240,564,cs),
(168,564,l),
(168,380,l)
);
},
{
closed = 1;
nodes = (
(198,538,l),
(240,538,ls),
(255,538,o),
(266,533,o),
(266,508,cs),
(266,484,o),
(255,479,o),
(240,479,cs),
(198,479,l)
);
}
);
width = 458;
}
);
metricRight = "=|";
unicode = 174;
},
{
glyphname = trademark;
lastChange = "2025-11-15 17:09:45 +0000";
layers = (
{
layerId = "1B8EDE0E-D46F-48F9-B9C6-2CD34FEA95FD";
shapes = (
{
closed = 1;
nodes = (
(170,340,l),
(170,598,l),
(254,598,l),
(254,650,l),
(25,650,l),
(25,598,l),
(110,598,l),
(110,340,l)
);
},
{
closed = 1;
nodes = (
(353,339,l),
(353,596,l),
(327,570,l),
(437,339,l),
(477,339,l),
(587,570,l),
(560,596,l),
(560,339,l),
(613,339,l),
(613,650,l),
(565,650,l),
(434,367,l),
(482,367,l),
(349,650,l),
(301,650,l),
(301,339,l)
);
}
);
width = 798;
},
{
layerId = "37597A9B-137B-4040-B731-85284A6575D5";
shapes = (
{
closed = 1;
nodes = (
(170,340,l),
(170,598,l),
(254,598,l),
(254,650,l),
(25,650,l),
(25,598,l),
(110,598,l),
(110,340,l)
);
},
{
closed = 1;
nodes = (
(353,339,l),
(353,596,l),
(327,570,l),
(437,339,l),
(477,339,l),
(587,570,l),
(560,596,l),
(560,339,l),
(613,339,l),
(613,650,l),
(565,650,l),
(434,367,l),
(482,367,l),
(349,650,l),
(301,650,l),
(301,339,l)
);
}
);
width = 798;
},
{
layerId = "4D009BB9-CCD0-4844-B12B-B6DC88771387";
shapes = (
{
closed = 1;
nodes = (
(170,340,l),
(170,598,l),
(254,598,l),
(254,650,l),
(25,650,l),
(25,598,l),
(110,598,l),
(110,340,l)
);
},
{
closed = 1;
nodes = (
(353,339,l),
(353,596,l),
(327,570,l),
(437,339,l),
(477,339,l),
(587,570,l),
(560,596,l),
(560,339,l),
(613,339,l),
(613,650,l),
(565,650,l),
(434,367,l),
(482,367,l),
(349,650,l),
(301,650,l),
(301,339,l)
);
}
);
width = 798;
}
);
unicode = 8482;
},
{
glyphname = second;
lastChange = "2025-11-15 17:09:45 +0000";
layers = (
{
layerId = "1B8EDE0E-D46F-48F9-B9C6-2CD34FEA95FD";
shapes = (
{
closed = 1;
nodes = (
(155,460,l),
(217,680,l),
(122,680,l),
(84,460,l)
);
},
{
closed = 1;
nodes = (
(291,460,l),
(353,680,l),
(259,680,l),
(221,460,l)
);
}
);
width = 437;
},
{
layerId = "37597A9B-137B-4040-B731-85284A6575D5";
shapes = (
{
closed = 1;
nodes = (
(155,460,l),
(217,680,l),
(122,680,l),
(84,460,l)
);
},
{
closed = 1;
nodes = (
(291,460,l),
(353,680,l),
(259,680,l),
(221,460,l)
);
}
);
width = 437;
},
{
layerId = "4D009BB9-CCD0-4844-B12B-B6DC88771387";
shapes = (
{
closed = 1;
nodes = (
(155,460,l),
(217,680,l),
(122,680,l),
(84,460,l)
);
},
{
closed = 1;
nodes = (
(291,460,l),
(353,680,l),
(259,680,l),
(221,460,l)
);
}
);
width = 437;
}
);
metricRight = "=|";
unicode = 8243;
},
{
glyphname = bar;
lastChange = "2025-11-15 17:09:45 +0000";
layers = (
{
layerId = "1B8EDE0E-D46F-48F9-B9C6-2CD34FEA95FD";
shapes = (
{
closed = 1;
nodes = (
(36,680,l),
(36,-119,l),
(106,-119,l),
(106,680,l)
);
}
);
width = 142;
},
{
layerId = "37597A9B-137B-4040-B731-85284A6575D5";
shapes = (
{
closed = 1;
nodes = (
(36,680,l),
(36,-119,l),
(106,-119,l),
(106,680,l)
);
}
);
width = 142;
},
{
layerId = "4D009BB9-CCD0-4844-B12B-B6DC88771387";
shapes = (
{
closed = 1;
nodes = (
(36,680,l),
(36,-119,l),
(106,-119,l),
(106,680,l)
);
}
);
width = 142;
}
);
metricRight = "=|";
unicode = 124;
},
{
glyphname = dollar;
lastChange = "2025-11-15 17:09:45 +0000";
layers = (
{
layerId = "1B8EDE0E-D46F-48F9-B9C6-2CD34FEA95FD";
shapes = (
{
closed = 1;
nodes = (
(288,-82,l),
(288,732,l),
(235,732,l),
(235,-82,l)
);
},
{
ref = S;
}
);
width = 425;
},
{
layerId = "37597A9B-137B-4040-B731-85284A6575D5";
shapes = (
{
closed = 1;
nodes = (
(288,-82,l),
(288,732,l),
(235,732,l),
(235,-82,l)
);
},
{
ref = S;
}
);
width = 425;
},
{
layerId = "4D009BB9-CCD0-4844-B12B-B6DC88771387";
shapes = (
{
closed = 1;
nodes = (
(288,-82,l),
(288,732,l),
(235,732,l),
(235,-82,l)
);
},
{
ref = S;
}
);
width = 425;
}
);
metricLeft = "=S";
metricRight = "=S";
unicode = 36;
},
{
glyphname = euro;
lastChange = "2025-11-15 17:09:45 +0000";
layers = (
{
layerId = "1B8EDE0E-D46F-48F9-B9C6-2CD34FEA95FD";
shapes = (
{
closed = 1;
nodes = (
(449,-11,o),
(575,51,o),
(575,202,c),
(489,202,l),
(489,107,o),
(424,64,o),
(344,64,cs),
(230,64,o),
(167,154,o),
(167,326,cs),
(167,498,o),
(230,588,o),
(344,588,cs),
(423,588,o),
(489,546,o),
(489,449,c),
(575,449,l),
(575,605,o),
(448,662,o),
(337,662,cs),
(189,662,o),
(82,564,o),
(82,326,cs),
(82,91,o),
(189,-11,o),
(337,-11,cs)
);
},
{
closed = 1;
nodes = (
(23,358,l),
(405,358,l),
(405,415,l),
(23,415,l)
);
},
{
closed = 1;
nodes = (
(23,238,l),
(405,238,l),
(405,295,l),
(23,295,l)
);
}
);
width = 641;
},
{
layerId = "37597A9B-137B-4040-B731-85284A6575D5";
shapes = (
{
closed = 1;
nodes = (
(449,-11,o),
(575,51,o),
(575,202,c),
(489,202,l),
(489,107,o),
(424,64,o),
(344,64,cs),
(230,64,o),
(167,154,o),
(167,326,cs),
(167,498,o),
(230,588,o),
(344,588,cs),
(423,588,o),
(489,546,o),
(489,449,c),
(575,449,l),
(575,605,o),
(448,662,o),
(337,662,cs),
(189,662,o),
(82,564,o),
(82,326,cs),
(82,91,o),
(189,-11,o),
(337,-11,cs)
);
},
{
closed = 1;
nodes = (
(23,358,l),
(405,358,l),
(405,415,l),
(23,415,l)
);
},
{
closed = 1;
nodes = (
(23,238,l),
(405,238,l),
(405,295,l),
(23,295,l)
);
}
);
width = 641;
},
{
layerId = "4D009BB9-CCD0-4844-B12B-B6DC88771387";
shapes = (
{
closed = 1;
nodes = (
(449,-11,o),
(575,51,o),
(575,202,c),
(489,202,l),
(489,107,o),
(424,64,o),
(344,64,cs),
(230,64,o),
(167,154,o),
(167,326,cs),
(167,498,o),
(230,588,o),
(344,588,cs),
(423,588,o),
(489,546,o),
(489,449,c),
(575,449,l),
(575,605,o),
(448,662,o),
(337,662,cs),
(189,662,o),
(82,564,o),
(82,326,cs),
(82,91,o),
(189,-11,o),
(337,-11,cs)
);
},
{
closed = 1;
nodes = (
(23,358,l),
(405,358,l),
(405,415,l),
(23,415,l)
);
},
{
closed = 1;
nodes = (
(23,238,l),
(405,238,l),
(405,295,l),
(23,295,l)
);
}
);
width = 641;
}
);
unicode = 8364;
},
{
glyphname = sterling;
lastChange = "2025-11-15 17:09:45 +0000";
layers = (
{
layerId = "1B8EDE0E-D46F-48F9-B9C6-2CD34FEA95FD";
shapes = (
{
closed = 1;
nodes = (
(452,0,l),
(452,79,l),
(189,79,l),
(232,125,o),
(311,175,o),
(216,285,cs),
(174,338,o),
(150,390,o),
(150,449,cs),
(150,544,o),
(190,584,o),
(254,583,cs),
(314,582,o),
(361,544,o),
(361,450,c),
(448,450,l),
(448,607,o),
(364,662,o),
(254,662,cs),
(148,662,o),
(58,607,o),
(58,453,cs),
(58,355,o),
(98,288,o),
(140,239,cs),
(211,155,o),
(100,116,o),
(40,54,c),
(40,0,l)
);
},
{
closed = 1;
nodes = (
(21,291,l),
(390,291,l),
(390,361,l),
(21,361,l)
);
}
);
width = 477;
},
{
layerId = "37597A9B-137B-4040-B731-85284A6575D5";
shapes = (
{
closed = 1;
nodes = (
(452,0,l),
(452,79,l),
(189,79,l),
(232,125,o),
(311,175,o),
(216,285,cs),
(174,338,o),
(150,390,o),
(150,449,cs),
(150,544,o),
(190,584,o),
(254,583,cs),
(314,582,o),
(361,544,o),
(361,450,c),
(448,450,l),
(448,607,o),
(364,662,o),
(254,662,cs),
(148,662,o),
(58,607,o),
(58,453,cs),
(58,355,o),
(98,288,o),
(140,239,cs),
(211,155,o),
(100,116,o),
(40,54,c),
(40,0,l)
);
},
{
closed = 1;
nodes = (
(21,291,l),
(390,291,l),
(390,361,l),
(21,361,l)
);
}
);
width = 477;
},
{
layerId = "4D009BB9-CCD0-4844-B12B-B6DC88771387";
shapes = (
{
closed = 1;
nodes = (
(452,0,l),
(452,79,l),
(189,79,l),
(232,125,o),
(311,175,o),
(216,285,cs),
(174,338,o),
(150,390,o),
(150,449,cs),
(150,544,o),
(190,584,o),
(254,583,cs),
(314,582,o),
(361,544,o),
(361,450,c),
(448,450,l),
(448,607,o),
(364,662,o),
(254,662,cs),
(148,662,o),
(58,607,o),
(58,453,cs),
(58,355,o),
(98,288,o),
(140,239,cs),
(211,155,o),
(100,116,o),
(40,54,c),
(40,0,l)
);
},
{
closed = 1;
nodes = (
(21,291,l),
(390,291,l),
(390,361,l),
(21,361,l)
);
}
);
width = 477;
}
);
unicode = 163;
},
{
glyphname = plus;
lastChange = "2025-11-15 17:09:45 +0000";
layers = (
{
layerId = "1B8EDE0E-D46F-48F9-B9C6-2CD34FEA95FD";
shapes = (
{
closed = 1;
nodes = (
(73,302,l),
(473,302,l),
(473,376,l),
(73,376,l)
);
},
{
closed = 1;
nodes = (
(236,539,l),
(236,139,l),
(309,139,l),
(309,539,l)
);
}
);
width = 546;
},
{
layerId = "37597A9B-137B-4040-B731-85284A6575D5";
shapes = (
{
closed = 1;
nodes = (
(73,302,l),
(473,302,l),
(473,376,l),
(73,376,l)
);
},
{
closed = 1;
nodes = (
(236,539,l),
(236,139,l),
(309,139,l),
(309,539,l)
);
}
);
width = 546;
},
{
layerId = "4D009BB9-CCD0-4844-B12B-B6DC88771387";
shapes = (
{
closed = 1;
nodes = (
(73,302,l),
(473,302,l),
(473,376,l),
(73,376,l)
);
},
{
closed = 1;
nodes = (
(236,539,l),
(236,139,l),
(309,139,l),
(309,539,l)
);
}
);
width = 546;
}
);
metricRight = "=|";
unicode = 43;
},
{
glyphname = minus;
lastChange = "2025-11-15 17:09:45 +0000";
layers = (
{
layerId = "1B8EDE0E-D46F-48F9-B9C6-2CD34FEA95FD";
shapes = (
{
closed = 1;
nodes = (
(73,302,l),
(473,302,l),
(473,376,l),
(73,376,l)
);
}
);
width = 546;
},
{
layerId = "37597A9B-137B-4040-B731-85284A6575D5";
shapes = (
{
closed = 1;
nodes = (
(73,302,l),
(473,302,l),
(473,376,l),
(73,376,l)
);
}
);
width = 546;
},
{
layerId = "4D009BB9-CCD0-4844-B12B-B6DC88771387";
shapes = (
{
closed = 1;
nodes = (
(73,302,l),
(473,302,l),
(473,376,l),
(73,376,l)
);
}
);
width = 546;
}
);
metricRight = "=|";
unicode = 8722;
},
{
glyphname = multiply;
lastChange = "2025-11-15 17:09:45 +0000";
layers = (
{
layerId = "1B8EDE0E-D46F-48F9-B9C6-2CD34FEA95FD";
shapes = (
{
closed = 1;
nodes = (
(439,222,l),
(156,506,l),
(106,456,l),
(389,173,l)
);
},
{
closed = 1;
nodes = (
(439,456,l),
(389,506,l),
(106,222,l),
(156,173,l)
);
}
);
width = 545;
},
{
layerId = "37597A9B-137B-4040-B731-85284A6575D5";
shapes = (
{
closed = 1;
nodes = (
(439,222,l),
(156,506,l),
(106,456,l),
(389,173,l)
);
},
{
closed = 1;
nodes = (
(439,456,l),
(389,506,l),
(106,222,l),
(156,173,l)
);
}
);
width = 545;
},
{
layerId = "4D009BB9-CCD0-4844-B12B-B6DC88771387";
shapes = (
{
closed = 1;
nodes = (
(439,222,l),
(156,506,l),
(106,456,l),
(389,173,l)
);
},
{
closed = 1;
nodes = (
(439,456,l),
(389,506,l),
(106,222,l),
(156,173,l)
);
}
);
width = 545;
}
);
metricRight = "=|";
unicode = 215;
},
{
glyphname = divide;
lastChange = "2025-11-15 17:09:45 +0000";
layers = (
{
layerId = "1B8EDE0E-D46F-48F9-B9C6-2CD34FEA95FD";
shapes = (
{
closed = 1;
nodes = (
(473,302,l),
(473,376,l),
(73,376,l),
(73,302,l)
);
},
{
closed = 1;
nodes = (
(308,458,l),
(308,533,l),
(232,533,l),
(232,458,l)
);
},
{
closed = 1;
nodes = (
(308,145,l),
(308,220,l),
(232,220,l),
(232,145,l)
);
}
);
width = 546;
},
{
layerId = "37597A9B-137B-4040-B731-85284A6575D5";
shapes = (
{
closed = 1;
nodes = (
(473,302,l),
(473,376,l),
(73,376,l),
(73,302,l)
);
},
{
closed = 1;
nodes = (
(308,458,l),
(308,533,l),
(232,533,l),
(232,458,l)
);
},
{
closed = 1;
nodes = (
(308,145,l),
(308,220,l),
(232,220,l),
(232,145,l)
);
}
);
width = 546;
},
{
layerId = "4D009BB9-CCD0-4844-B12B-B6DC88771387";
shapes = (
{
closed = 1;
nodes = (
(473,302,l),
(473,376,l),
(73,376,l),
(73,302,l)
);
},
{
closed = 1;
nodes = (
(308,458,l),
(308,533,l),
(232,533,l),
(232,458,l)
);
},
{
closed = 1;
nodes = (
(308,145,l),
(308,220,l),
(232,220,l),
(232,145,l)
);
}
);
width = 546;
}
);
metricRight = "=|";
unicode = 247;
},
{
glyphname = equal;
lastChange = "2025-11-15 17:09:45 +0000";
layers = (
{
layerId = "1B8EDE0E-D46F-48F9-B9C6-2CD34FEA95FD";
shapes = (
{
closed = 1;
nodes = (
(95,392,l),
(465,392,l),
(465,466,l),
(95,466,l)
);
},
{
closed = 1;
nodes = (
(95,212,l),
(465,212,l),
(465,286,l),
(95,286,l)
);
}
);
width = 560;
},
{
layerId = "37597A9B-137B-4040-B731-85284A6575D5";
shapes = (
{
closed = 1;
nodes = (
(95,392,l),
(465,392,l),
(465,466,l),
(95,466,l)
);
},
{
closed = 1;
nodes = (
(95,212,l),
(465,212,l),
(465,286,l),
(95,286,l)
);
}
);
width = 560;
},
{
layerId = "4D009BB9-CCD0-4844-B12B-B6DC88771387";
shapes = (
{
closed = 1;
nodes = (
(95,392,l),
(465,392,l),
(465,466,l),
(95,466,l)
);
},
{
closed = 1;
nodes = (
(95,212,l),
(465,212,l),
(465,286,l),
(95,286,l)
);
}
);
width = 560;
}
);
metricRight = "=|";
unicode = 61;
},
{
glyphname = greater;
lastChange = "2025-11-15 17:09:45 +0000";
layers = (
{
layerId = "1B8EDE0E-D46F-48F9-B9C6-2CD34FEA95FD";
shapes = (
{
closed = 1;
nodes = (
(88,504,l),
(510,303,l),
(510,377,l),
(88,585,l)
);
},
{
closed = 1;
nodes = (
(88,99,l),
(510,303,l),
(510,377,l),
(88,181,l)
);
}
);
width = 540;
},
{
layerId = "37597A9B-137B-4040-B731-85284A6575D5";
shapes = (
{
closed = 1;
nodes = (
(88,504,l),
(510,303,l),
(510,377,l),
(88,585,l)
);
},
{
closed = 1;
nodes = (
(88,99,l),
(510,303,l),
(510,377,l),
(88,181,l)
);
}
);
width = 540;
},
{
layerId = "4D009BB9-CCD0-4844-B12B-B6DC88771387";
shapes = (
{
closed = 1;
nodes = (
(88,504,l),
(510,303,l),
(510,377,l),
(88,585,l)
);
},
{
closed = 1;
nodes = (
(88,99,l),
(510,303,l),
(510,377,l),
(88,181,l)
);
}
);
width = 540;
}
);
unicode = 62;
},
{
glyphname = less;
lastChange = "2025-11-15 17:09:45 +0000";
layers = (
{
layerId = "1B8EDE0E-D46F-48F9-B9C6-2CD34FEA95FD";
shapes = (
{
closed = 1;
nodes = (
(30,379,l),
(30,306,l),
(453,507,l),
(453,588,l)
);
},
{
closed = 1;
nodes = (
(30,379,l),
(30,306,l),
(453,102,l),
(453,183,l)
);
}
);
width = 540;
},
{
layerId = "37597A9B-137B-4040-B731-85284A6575D5";
shapes = (
{
closed = 1;
nodes = (
(30,379,l),
(30,306,l),
(453,507,l),
(453,588,l)
);
},
{
closed = 1;
nodes = (
(30,379,l),
(30,306,l),
(453,102,l),
(453,183,l)
);
}
);
width = 540;
},
{
layerId = "4D009BB9-CCD0-4844-B12B-B6DC88771387";
shapes = (
{
closed = 1;
nodes = (
(30,379,l),
(30,306,l),
(453,507,l),
(453,588,l)
);
},
{
closed = 1;
nodes = (
(30,379,l),
(30,306,l),
(453,102,l),
(453,183,l)
);
}
);
width = 540;
}
);
unicode = 60;
},
{
glyphname = percent;
lastChange = "2025-11-15 17:09:45 +0000";
layers = (
{
layerId = "1B8EDE0E-D46F-48F9-B9C6-2CD34FEA95FD";
shapes = (
{
closed = 1;
nodes = (
(23,2,l),
(115,2,l),
(562,650,l),
(471,650,l)
);
},
{
closed = 1;
nodes = (
(394,221,o),
(417,237,o),
(446,237,cs),
(471,237,o),
(494,221,o),
(494,142,cs),
(494,62,o),
(471,46,o),
(446,46,cs),
(417,46,o),
(394,62,o),
(394,142,cs)
);
},
{
closed = 1;
nodes = (
(99,575,o),
(121,591,o),
(149,591,cs),
(174,591,o),
(195,575,o),
(195,501,cs),
(195,426,o),
(174,410,o),
(149,410,cs),
(121,410,o),
(99,426,o),
(99,501,cs)
);
},
{
closed = 1;
nodes = (
(37,381,o),
(93,351,o),
(149,351,cs),
(201,351,o),
(257,381,o),
(257,501,cs),
(257,620,o),
(201,650,o),
(149,650,cs),
(93,650,o),
(37,620,o),
(37,501,cs)
);
},
{
closed = 1;
nodes = (
(334,22,o),
(390,-8,o),
(446,-8,cs),
(498,-8,o),
(554,22,o),
(554,142,cs),
(554,261,o),
(498,291,o),
(446,291,cs),
(390,291,o),
(334,261,o),
(334,142,cs)
);
}
);
width = 585;
},
{
layerId = "37597A9B-137B-4040-B731-85284A6575D5";
shapes = (
{
closed = 1;
nodes = (
(23,2,l),
(115,2,l),
(562,650,l),
(471,650,l)
);
},
{
closed = 1;
nodes = (
(394,221,o),
(417,237,o),
(446,237,cs),
(471,237,o),
(494,221,o),
(494,142,cs),
(494,62,o),
(471,46,o),
(446,46,cs),
(417,46,o),
(394,62,o),
(394,142,cs)
);
},
{
closed = 1;
nodes = (
(99,575,o),
(121,591,o),
(149,591,cs),
(174,591,o),
(195,575,o),
(195,501,cs),
(195,426,o),
(174,410,o),
(149,410,cs),
(121,410,o),
(99,426,o),
(99,501,cs)
);
},
{
closed = 1;
nodes = (
(37,381,o),
(93,351,o),
(149,351,cs),
(201,351,o),
(257,381,o),
(257,501,cs),
(257,620,o),
(201,650,o),
(149,650,cs),
(93,650,o),
(37,620,o),
(37,501,cs)
);
},
{
closed = 1;
nodes = (
(334,22,o),
(390,-8,o),
(446,-8,cs),
(498,-8,o),
(554,22,o),
(554,142,cs),
(554,261,o),
(498,291,o),
(446,291,cs),
(390,291,o),
(334,261,o),
(334,142,cs)
);
}
);
width = 585;
},
{
layerId = "4D009BB9-CCD0-4844-B12B-B6DC88771387";
shapes = (
{
closed = 1;
nodes = (
(23,2,l),
(115,2,l),
(562,650,l),
(471,650,l)
);
},
{
closed = 1;
nodes = (
(394,221,o),
(417,237,o),
(446,237,cs),
(471,237,o),
(494,221,o),
(494,142,cs),
(494,62,o),
(471,46,o),
(446,46,cs),
(417,46,o),
(394,62,o),
(394,142,cs)
);
},
{
closed = 1;
nodes = (
(99,575,o),
(121,591,o),
(149,591,cs),
(174,591,o),
(195,575,o),
(195,501,cs),
(195,426,o),
(174,410,o),
(149,410,cs),
(121,410,o),
(99,426,o),
(99,501,cs)
);
},
{
closed = 1;
nodes = (
(37,381,o),
(93,351,o),
(149,351,cs),
(201,351,o),
(257,381,o),
(257,501,cs),
(257,620,o),
(201,650,o),
(149,650,cs),
(93,650,o),
(37,620,o),
(37,501,cs)
);
},
{
closed = 1;
nodes = (
(334,22,o),
(390,-8,o),
(446,-8,cs),
(498,-8,o),
(554,22,o),
(554,142,cs),
(554,261,o),
(498,291,o),
(446,291,cs),
(390,291,o),
(334,261,o),
(334,142,cs)
);
}
);
width = 585;
}
);
metricRight = "=|";
unicode = 37;
},
